<?xml version="1.0" encoding="utf-8"?>
<!-- Generator: Adobe Illustrator 18.0.0, SVG Export Plug-In . SVG Version: 6.00 Build 0)  -->
<!DOCTYPE svg PUBLIC "-//W3C//DTD SVG 1.1//EN" "http://www.w3.org/Graphics/SVG/1.1/DTD/svg11.dtd">
<svg version="1.1" xmlns="http://www.w3.org/2000/svg" xmlns:xlink="http://www.w3.org/1999/xlink" x="0px" y="0px" width="134.3px"
	 height="142.8px" viewBox="0 0 134.3 142.8" enable-background="new 0 0 134.3 142.8" xml:space="preserve">
<g id="Camada_1">
	<g>
		<rect x="8.7" y="77" fill="#DDDDDD" width="116.9" height="63.3"/>
		<path fill="#6BB45E" d="M109.9,59.4H24.4L4.9,79.2h124.4L109.9,59.4z M32.4,69.4l2-3.2h65.5l2,3.2H32.4z"/>
		<g>
			<rect x="40.1" y="5.7" fill="#6BB45E" width="54.1" height="62.1"/>
			<rect x="47.6" y="2.5" fill="#FFFFFF" width="0.2" height="0"/>
			<g>
				<path fill="#FFFFFF" d="M54.9,23.2H46v-8.9h8.9V23.2z M47.3,21.9h6.2v-6.2h-6.2V21.9z"/>
			</g>
			<g>
				<path fill="#FFFFFF" d="M54.9,35.6H46v-8.9h8.9V35.6z M47.3,34.3h6.2v-6.2h-6.2V34.3z"/>
			</g>
			<g>
				<path fill="#FFFFFF" d="M54.9,48.1H46v-8.9h8.9V48.1z M47.3,46.8h6.2v-6.2h-6.2V46.8z"/>
			</g>
			<g>
				<path fill="#FFFFFF" d="M54.9,60.5H46v-8.9h8.9V60.5z M47.3,59.2h6.2V53h-6.2V59.2z"/>
			</g>
			<rect x="59.1" y="17.7" fill="#FFFFFF" width="29.5" height="2.1"/>
			<rect x="59.1" y="30.1" fill="#FFFFFF" width="29.5" height="2.1"/>
			<rect x="59.1" y="42.6" fill="#FFFFFF" width="29.5" height="2.1"/>
			<rect x="59.1" y="55" fill="#FFFFFF" width="29.5" height="2.1"/>
			<polygon fill="#FFFFFF" points="53.6,16.6 52.6,15.6 50.5,17.8 48.3,15.6 47.3,16.6 49.5,18.7 47.3,20.9 48.3,21.9 50.5,19.7 
				52.6,21.9 53.6,20.9 51.4,18.7 			"/>
		</g>
	</g>
</g>
<g id="Camada_2">
</g>
<g id="Camada_3">
</g>
<g id="Camada_4">
</g>
<g id="Camada_5">
</g>
<g id="Camada_7">
</g>
<g id="Camada_9">
</g>
<g id="Camada_8">
</g>
</svg>
