<?xml version="1.0" encoding="utf-8"?>
<!-- Generator: Adobe Illustrator 18.0.0, SVG Export Plug-In . SVG Version: 6.00 Build 0)  -->
<!DOCTYPE svg PUBLIC "-//W3C//DTD SVG 1.1//EN" "http://www.w3.org/Graphics/SVG/1.1/DTD/svg11.dtd">
<svg version="1.1" xmlns="http://www.w3.org/2000/svg" xmlns:xlink="http://www.w3.org/1999/xlink" x="0px" y="0px"
	 viewBox="0 0 41.9 41.9" enable-background="new 0 0 41.9 41.9" xml:space="preserve">
<g id="Camada_1">
</g>
<g id="Camada_2">
	<g>
		<g>
			<g>
				<circle fill="#4D4D4D" cx="21.3" cy="12.3" r="1.5"/>
				<circle fill="#4D4D4D" cx="21.3" cy="29.6" r="1.5"/>
				<circle fill="#4D4D4D" cx="30" cy="20.9" r="1.5"/>
				<path fill="#4D4D4D" d="M36.5,19.8c-0.3-3.5-1.7-6.9-4.4-9.6C27.6,5.6,20.9,4.6,15.3,7C15.8,7.4,16,8,16,8.7l-0.1,2
					c4.4-2.3,9.9-1.6,13.6,2.1c4.5,4.5,4.5,11.9,0,16.4c-3.8,3.8-9.7,4.4-14.1,1.7c0.2,0.6,0.1,1.2-0.2,1.7
					c-0.4,0.7-1.2,1.1-1.9,1.1c0,0-0.1,0-0.1,0c5.9,3.8,13.9,3.1,19.1-2c2.7-2.7,4.1-6.1,4.4-9.6L36.5,19.8z"/>
				<path fill="#4D4D4D" d="M14,31.9c0.2-0.4,0.1-0.9-0.3-1.2c0,0-4-2.8-2.6-10.1l1.8,1.1c0.3,0.2,0.6,0.2,0.8,0
					c0.3-0.2,0.5-0.4,0.5-0.7l0.5-12.4c0-0.3-0.2-0.6-0.4-0.8c-0.3-0.2-0.6-0.2-0.8,0L2.4,13.7C2.2,13.8,2,14.1,2,14.4
					c0,0.3,0.2,0.6,0.4,0.8l2.1,1.3C3.6,20,3.2,27.3,12.8,32.2c0.1,0.1,0.3,0.1,0.4,0.1C13.5,32.3,13.8,32.2,14,31.9z"/>
			</g>
			<path fill="#4D4D4D" d="M23.1,21l3.6-4.1c0.3-0.3,0.3-0.9,0-1.3c-0.3-0.4-0.9-0.3-1.3,0c0,0-5.5,3.3-5.8,3.6
				c-0.5,0.4-0.8,0.9-0.8,1.5l0,0l0,0c0,0,0,0.1,0,0.2c0,0.8,0.5,1.5,1.1,1.9c0.3,0.2,7.1,4.6,7.1,4.6c0.3,0.3,0.9,0.3,1.3,0
				c0.3-0.3,0.3-0.9,0-1.3L23.1,21z"/>
		</g>
	</g>
</g>
</svg>
