<?xml version="1.0" encoding="utf-8"?>
<!-- Generator: Adobe Illustrator 18.0.0, SVG Export Plug-In . SVG Version: 6.00 Build 0)  -->
<!DOCTYPE svg PUBLIC "-//W3C//DTD SVG 1.1//EN" "http://www.w3.org/Graphics/SVG/1.1/DTD/svg11.dtd">
<svg version="1.1" id="Camada_1" xmlns="http://www.w3.org/2000/svg" xmlns:xlink="http://www.w3.org/1999/xlink" x="0px" y="0px"
	 viewBox="0 0 74 74" enable-background="new 0 0 74 74" xml:space="preserve">
<g>
	
		<rect x="28.3" y="23.4" fill="#FFFFFF" stroke="#66A2D8" stroke-width="1.3675" stroke-linecap="round" stroke-linejoin="round" stroke-miterlimit="10" width="14.1" height="39.8"/>
	
		<rect x="22.6" y="63.2" fill="#FFFFFF" stroke="#66A2D8" stroke-width="1.3675" stroke-linecap="round" stroke-linejoin="round" stroke-miterlimit="10" width="25.5" height="6.6"/>
	
		<path fill="#66A2D8" stroke="#66A2D8" stroke-width="1.3675" stroke-linecap="round" stroke-linejoin="round" stroke-miterlimit="10" d="
		M47.8,61.4H25.1c-0.5,0-1,0.2-1.4,0.6l-0.5,0.6c-0.3,0.4-0.5,0.8-0.5,1.3v3.9c0,1.1,0.9,1.9,1.9,1.9h22.8c0.5,0,1-0.2,1.4-0.6
		l0.5-0.6c0.3-0.4,0.5-0.8,0.5-1.3v-3.9C49.8,62.3,48.9,61.4,47.8,61.4z"/>
	
		<polygon fill="#66A2D8" stroke="#66A2D8" stroke-width="1.3675" stroke-linecap="round" stroke-linejoin="round" stroke-miterlimit="10" points="
		44.1,21.6 29.9,21.6 28.3,23.4 28.3,63.2 42.5,63.2 44.1,61.4 	"/>
	
		<rect x="28.3" y="23.4" fill="#FFFFFF" stroke="#66A2D8" stroke-width="1.3675" stroke-linecap="round" stroke-linejoin="round" stroke-miterlimit="10" width="14.1" height="39.8"/>
	
		<path fill="#FFFFFF" stroke="#66A2D8" stroke-width="1.3675" stroke-linecap="round" stroke-linejoin="round" stroke-miterlimit="10" d="
		M47.1,69.7H23.7c-0.6,0-1-0.5-1-1v-4.5c0-0.6,0.5-1,1-1h23.4c0.6,0,1,0.5,1,1v4.5C48.2,69.3,47.7,69.7,47.1,69.7z"/>
	<path fill="#66A2D8" d="M60.7,4.3H19.6c-0.7,0-1.3,0.5-1.5,1.2l-7,26l1.2,0.9c0.3,0.2,0.6,0.3,0.9,0.3h41.1c0.7,0,1.3-0.5,1.5-1.2
		l7-26l-1.2-0.9C61.4,4.4,61.1,4.3,60.7,4.3z"/>
	
		<path fill="#FFFFFF" stroke="#66A2D8" stroke-width="1.3675" stroke-linecap="round" stroke-linejoin="round" stroke-miterlimit="10" d="
		M52.8,31.5H13.2c-1,0-1.8-1-1.5-2l6.5-24.1c0.2-0.7,0.8-1.2,1.5-1.2h39.6c1,0,1.8,1,1.5,2l-6.5,24.1C54.1,31,53.5,31.5,52.8,31.5z"
		/>
	<path fill="#66A2D8" d="M14.9,27L20,8c0.2-0.7,0.8-1.2,1.5-1.2H56c1,0,1.8,1,1.5,2l-5.1,19c-0.2,0.7-0.8,1.2-1.5,1.2H16.4
		C15.4,28.9,14.6,28,14.9,27z"/>
	
		<path fill="#66A2D8" stroke="#66A2D8" stroke-width="1.3675" stroke-linecap="round" stroke-linejoin="round" stroke-miterlimit="10" d="
		M50.5,36.4H37.8c-0.7,0-1.4,0.5-1.6,1.2l-1.6,4.7c-0.1,0.3-0.1,0.6-0.1,0.9l0.1,0.5c0.1,0.8,0.9,1.5,1.7,1.5h12.7
		c0.7,0,1.4-0.5,1.6-1.2l1.6-4.7c0.1-0.3,0.1-0.6,0.1-0.9l-0.1-0.5C52.1,37,51.3,36.4,50.5,36.4z"/>
	
		<path fill="#FFFFFF" stroke="#66A2D8" stroke-width="1.3675" stroke-linecap="round" stroke-linejoin="round" stroke-miterlimit="10" d="
		M48.5,42.6H36.8c-1.2,0-2-1.2-1.6-2.3l1-2.8c0.2-0.7,0.9-1.2,1.6-1.2h11.7c1.2,0,2,1.2,1.6,2.3l-1,2.8
		C49.9,42.2,49.3,42.6,48.5,42.6z"/>
	<path fill="#66A2D8" d="M42,38.4c-0.2,0.4-0.8,0.8-1.4,0.8s-1-0.4-0.8-0.8c0.2-0.4,0.8-0.8,1.4-0.8S42.2,38,42,38.4z"/>
	<path fill="#66A2D8" d="M40.9,40.6c-0.2,0.4-0.8,0.8-1.4,0.8c-0.6,0-1-0.4-0.8-0.8s0.8-0.8,1.4-0.8S41,40.2,40.9,40.6z"/>
	<path fill="#66A2D8" d="M48,38.4c-0.2,0.4-0.8,0.8-1.4,0.8s-1-0.4-0.8-0.8c0.2-0.4,0.8-0.8,1.4-0.8C47.7,37.6,48.1,38,48,38.4z"/>
	<path fill="#66A2D8" d="M46.8,40.6c-0.2,0.4-0.8,0.8-1.4,0.8s-1-0.4-0.8-0.8s0.8-0.8,1.4-0.8S47,40.2,46.8,40.6z"/>
</g>
</svg>
