<?xml version="1.0" encoding="utf-8"?>
<!-- Generator: Adobe Illustrator 18.0.0, SVG Export Plug-In . SVG Version: 6.00 Build 0)  -->
<!DOCTYPE svg PUBLIC "-//W3C//DTD SVG 1.1//EN" "http://www.w3.org/Graphics/SVG/1.1/DTD/svg11.dtd">
<svg version="1.1" id="Camada_1" xmlns="http://www.w3.org/2000/svg" xmlns:xlink="http://www.w3.org/1999/xlink" x="0px" y="0px"
	 viewBox="0 0 74 74" enable-background="new 0 0 74 74" xml:space="preserve">
<g>
	<path fill="#66A2D8" stroke="#66A2D8" stroke-miterlimit="10" d="M66.2,48.5H23c-0.2,0-0.4-0.2-0.4-0.4V16.7c0-0.2,0.2-0.4,0.4-0.4
		h43.1c0,0,0.8,0.7,0.8,0.9v30C66.9,47.4,66.2,48.5,66.2,48.5z"/>
	
		<path fill="#FFFFFF" stroke="#66A2D8" stroke-width="0.5955" stroke-linecap="round" stroke-linejoin="round" stroke-miterlimit="10" d="
		M65.7,48.5H20.6c-0.2,0-0.4-0.2-0.4-0.4V16.7c0-0.2,0.2-0.4,0.4-0.4h45.1c0.2,0,0.4,0.2,0.4,0.4v31.4C66.2,48.4,66,48.5,65.7,48.5z
		"/>
	<path fill="#66A2D8" d="M22.6,45.2V19.7c0-0.2,0.2-0.4,0.4-0.4h40.3c0.2,0,0.4,0.2,0.4,0.4v25.5c0,0.2-0.2,0.4-0.4,0.4H23
		C22.8,45.6,22.6,45.4,22.6,45.2z"/>
	<g>
		<path fill="#66A2D8" stroke="#66A2D8" stroke-miterlimit="10" d="M65.7,48.5c-0.6-0.4-1.7-0.1-2.4-0.1c-1.1,0-2.2,0-3.2,0
			c-3,0-6.1,0-9.1,0c-7.1,0-14.1,0-21.2,0c-3.4,0-6.8,0-10.3,0c-0.1,0-0.1,0-0.2,0.1c-2,1.1-3.9,2.2-5.9,3.3
			c-1.4,0.7-2.7,1.5-4.1,2.2c-0.7,0.4-1.5,0.7-2,1.4c-0.2,0.3-0.6,2.4,0,2.4h46.3c0.1,0,0.1,0,0.2-0.1c0,0,11.8-6.5,11.9-6.5
			c0.4-0.2,0.4-1.7,0.4-2.1C66,48.8,65.9,48.6,65.7,48.5z"/>
		<path fill="#66A2D8" stroke="#66A2D8" stroke-miterlimit="10" d="M53.5,55.8H7.3c-0.4,0-0.2-0.6,0.2-0.8l11.9-6.5
			c0.1,0,0.2-0.1,0.2-0.1h46.3c0.4,0,0.2,0.6-0.2,0.8l-11.9,6.5C53.7,55.8,53.6,55.8,53.5,55.8z"/>
		
			<path fill="#FFFFFF" stroke="#66A2D8" stroke-width="0.5955" stroke-linecap="round" stroke-linejoin="round" stroke-miterlimit="10" d="
			M53.5,55.8H7.3c-0.4,0-0.2-0.6,0.2-0.8l11.9-6.5c0.1,0,0.2-0.1,0.2-0.1h46.3c0.4,0,0.2,0.6-0.2,0.8l-11.9,6.5
			C53.7,55.8,53.6,55.8,53.5,55.8z"/>
		<path fill="#66A2D8" stroke="#66A2D8" stroke-miterlimit="10" d="M35.5,54.8h-7.7c-0.4,0-0.2-0.6,0.2-0.8l3.4-1.9
			c0.1,0,0.2-0.1,0.2-0.1h7.7c0.4,0,0.2,0.6-0.2,0.8l-3.4,1.9C35.7,54.8,35.6,54.8,35.5,54.8z"/>
	</g>
</g>
</svg>
