<?xml version="1.0" encoding="utf-8"?>
<!-- Generator: Adobe Illustrator 18.0.0, SVG Export Plug-In . SVG Version: 6.00 Build 0)  -->
<!DOCTYPE svg PUBLIC "-//W3C//DTD SVG 1.1//EN" "http://www.w3.org/Graphics/SVG/1.1/DTD/svg11.dtd">
<svg version="1.1" xmlns="http://www.w3.org/2000/svg" xmlns:xlink="http://www.w3.org/1999/xlink" x="0px" y="0px"
	 viewBox="0 0 41.9 41.9" enable-background="new 0 0 41.9 41.9" xml:space="preserve">
<g id="Camada_1">
</g>
<g id="Camada_2">
	<g>
		<g>
			<path fill="#4D4D4D" d="M14.7,30.3c0-1.4,1.1-2.4,2.4-2.4c1.3,0,2.4,1.1,2.4,2.4c0,1.3-1.1,2.4-2.4,2.4
				C15.8,32.7,14.7,31.6,14.7,30.3z M18.1,19c-0.6-0.1-1.3-0.1-1.9,0l-1.1,3c-0.8,0.2-1.6,0.5-2.3,0.9l-3-1.4
				C9.4,22.1,9,22.5,8.6,23l1.4,2.9c-0.4,0.7-0.7,1.5-0.9,2.3l-3,1.1c-0.1,0.6-0.1,1.3,0,1.9l3,1.1c0.2,0.8,0.5,1.6,0.9,2.3l-1.4,3
				c0.4,0.5,0.9,0.9,1.3,1.3l2.9-1.4c0.7,0.4,1.5,0.7,2.3,0.9l1.1,3.1c0.6,0.1,1.3,0.1,1.9,0l1.1-3c0.8-0.2,1.6-0.5,2.3-0.9l3,1.4
				c0.5-0.4,0.9-0.9,1.3-1.3l-1.4-2.9c0.4-0.7,0.7-1.5,0.9-2.3l3.1-1.1c0.1-0.6,0.1-1.3,0-1.9l-3-1.1c-0.2-0.8-0.5-1.6-0.9-2.3
				l1.4-3c-0.4-0.5-0.9-0.9-1.3-1.3L21.5,23c-0.7-0.4-1.5-0.7-2.3-0.9L18.1,19z"/>
			<path fill="#4D4D4D" d="M23,12c-0.5-1.2,0.1-2.7,1.3-3.2c1.2-0.5,2.7,0.1,3.2,1.3c0.5,1.2-0.1,2.7-1.3,3.2
				C24.9,13.9,23.5,13.3,23,12z M21.8,0.3c-0.6,0.2-1.2,0.4-1.7,0.7l0.1,3.2c-0.7,0.5-1.3,1.1-1.7,1.7l-3.2-0.1
				c-0.3,0.6-0.5,1.1-0.7,1.7l2.4,2.2c-0.1,0.8-0.1,1.7,0,2.5l-2.4,2.2c0.2,0.6,0.4,1.2,0.7,1.7l3.2-0.1c0.5,0.7,1.1,1.3,1.7,1.7
				l-0.1,3.2c0.6,0.3,1.1,0.5,1.7,0.7l2.2-2.4c0.8,0.1,1.7,0.1,2.5,0l2.2,2.4c0.6-0.2,1.2-0.4,1.7-0.7l-0.1-3.2
				c0.7-0.5,1.3-1.1,1.7-1.7l3.2,0.1c0.3-0.6,0.5-1.1,0.7-1.7l-2.4-2.2c0.1-0.8,0.1-1.7,0-2.5L36,7.6c-0.2-0.6-0.4-1.2-0.7-1.7
				L32.1,6c-0.5-0.7-1.1-1.3-1.7-1.7L30.4,1c-0.6-0.3-1.1-0.5-1.7-0.7l-2.2,2.4c-0.8-0.1-1.7-0.1-2.5,0L21.8,0.3z"/>
		</g>
	</g>
</g>
</svg>
