<?xml version="1.0" encoding="utf-8"?>
<!-- Generator: Adobe Illustrator 18.0.0, SVG Export Plug-In . SVG Version: 6.00 Build 0)  -->
<!DOCTYPE svg PUBLIC "-//W3C//DTD SVG 1.1//EN" "http://www.w3.org/Graphics/SVG/1.1/DTD/svg11.dtd">
<svg version="1.1" xmlns="http://www.w3.org/2000/svg" xmlns:xlink="http://www.w3.org/1999/xlink" x="0px" y="0px"
	 viewBox="0 0 41.9 41.9" enable-background="new 0 0 41.9 41.9" xml:space="preserve">
<g id="Camada_1">
</g>
<g id="Camada_2">
	<g>
		<g>
			<path fill="#4D4D4D" d="M25.3,35c-1.2-1.2-1.9-2.8-1.9-4.5c0-1.7,0.7-3.3,1.9-4.5c1.2-1.2,2.8-1.9,4.5-1.9l0,0
				c0.2,0,0.4-0.2,0.4-0.4v-17c0-0.2-0.2-0.4-0.4-0.4H7.3c-0.2,0-0.4,0.2-0.4,0.4V30c0,0.2,0.1,0.4,0.2,0.5l4.8,4.8
				c0.1,0.1,0.3,0.2,0.5,0.2h13.3c0.1,0,0.1-0.1,0-0.2C25.7,35.3,25.5,35.2,25.3,35z M11.8,10.1h13.5c0.3,0,0.6,0.3,0.6,0.6
				c0,0.3-0.3,0.6-0.6,0.6H11.8c-0.3,0-0.6-0.3-0.6-0.6C11.2,10.4,11.5,10.1,11.8,10.1z M11.8,15.9h13.5c0.3,0,0.6,0.3,0.6,0.6
				c0,0.3-0.3,0.6-0.6,0.6H11.8c-0.3,0-0.6-0.3-0.6-0.6C11.2,16.2,11.5,15.9,11.8,15.9z M11.8,21.6h13.5c0.3,0,0.6,0.3,0.6,0.6
				c0,0.3-0.3,0.6-0.6,0.6H11.8c-0.3,0-0.6-0.3-0.6-0.6C11.2,21.9,11.5,21.6,11.8,21.6z M13.6,33.9c0,0.2-0.2,0.2-0.3,0.1l-4.7-4.7
				c-0.1-0.1,0-0.3,0.1-0.3h4.7c0.1,0,0.2,0.1,0.2,0.2L13.6,33.9L13.6,33.9z"/>
			<path fill="#4D4D4D" d="M33.5,26.8c-2-2-5.3-2-7.3,0c-2,2-2,5.3,0,7.3c2,2,5.3,2,7.3,0C35.5,32.1,35.5,28.8,33.5,26.8z
				 M33.1,28.9l-3.9,3.9C29.1,33,29,33,28.8,33h0c-0.2,0-0.3-0.1-0.5-0.2l-1.7-2.4c-0.2-0.3-0.1-0.7,0.1-0.9
				c0.3-0.2,0.7-0.1,0.9,0.1l1.2,1.6c0.1,0.1,0.2,0.1,0.4,0l3.2-3.2c0.2-0.2,0.6-0.2,0.9,0C33.4,28.3,33.4,28.7,33.1,28.9z"/>
		</g>
	</g>
</g>
</svg>
