<?xml version="1.0" encoding="utf-8"?>
<!-- Generator: Adobe Illustrator 18.0.0, SVG Export Plug-In . SVG Version: 6.00 Build 0)  -->
<!DOCTYPE svg PUBLIC "-//W3C//DTD SVG 1.1//EN" "http://www.w3.org/Graphics/SVG/1.1/DTD/svg11.dtd">
<svg version="1.1" id="Camada_1" xmlns="http://www.w3.org/2000/svg" xmlns:xlink="http://www.w3.org/1999/xlink" x="0px" y="0px"
	 viewBox="0 0 74 74" enable-background="new 0 0 74 74" xml:space="preserve">
<g>
	<path fill="#66A2D8" stroke="#66A2D8" stroke-miterlimit="10" d="M48.3,61.3l-21.1,0.4c-2.6,0-4.8-2-4.8-4.6V16.9
		c0-2.6,2.1-4.7,4.8-4.6l21.1,0.4c2.5,0,4.6,2.1,4.6,4.7v39.3C53,59.2,50.9,61.3,48.3,61.3z"/>
	
		<path fill="#FFFFFF" stroke="#66A2D8" stroke-width="0.8072" stroke-linecap="round" stroke-linejoin="round" stroke-miterlimit="10" d="
		M46.8,61.8H25.7c-2.6,0-4.7-2.1-4.7-4.7V16.9c0-2.6,2.1-4.7,4.7-4.7h21.1c2.6,0,4.7,2.1,4.7,4.7v40.2
		C51.5,59.7,49.4,61.8,46.8,61.8z"/>
	<path fill="#66A2D8" d="M46.7,52.5H25.9c-0.2,0-0.3-0.1-0.3-0.3V21.3c0-0.2,0.1-0.3,0.3-0.3h20.8c0.2,0,0.3,0.1,0.3,0.3v30.9
		C47,52.4,46.9,52.5,46.7,52.5z"/>
	<circle fill="#66A2D8" cx="36.3" cy="57.2" r="3"/>
	<path fill="#66A2D8" d="M40.6,17.6H32c-0.1,0-0.2-0.1-0.2-0.2v-1.1c0-0.1,0.1-0.2,0.2-0.2h8.6c0.1,0,0.2,0.1,0.2,0.2v1.1
		C40.8,17.5,40.7,17.6,40.6,17.6z"/>
</g>
</svg>
