<?xml version="1.0" encoding="utf-8"?>
<!-- Generator: Adobe Illustrator 18.0.0, SVG Export Plug-In . SVG Version: 6.00 Build 0)  -->
<!DOCTYPE svg PUBLIC "-//W3C//DTD SVG 1.1//EN" "http://www.w3.org/Graphics/SVG/1.1/DTD/svg11.dtd">
<svg version="1.1" xmlns="http://www.w3.org/2000/svg" xmlns:xlink="http://www.w3.org/1999/xlink" x="0px" y="0px"
	 viewBox="0 0 41.9 41.9" enable-background="new 0 0 41.9 41.9" xml:space="preserve">
<g id="Camada_1">
</g>
<g id="Camada_2">
	<g>
		<g>
			<path fill="#4D4D4D" d="M17.9,14.2h10.4v3.4l9.7-5.6l-9.7-5.6v3.3H12.9C14.9,10.8,16.5,12.5,17.9,14.2z M28.3,27.6
				c-0.8-0.3-1.8-0.9-3-2c-2.3-2.3-4.8-6-7.4-9.3c-2.6-3.2-5.4-6.4-9.6-6.6H3.8v4.5h4.5c0.8,0,2.2,0.6,3.7,2.2
				c2.3,2.3,4.8,6,7.4,9.3c2.5,3,5,6,8.8,6.5v3.5l9.7-5.6l-9.7-5.6L28.3,27.6L28.3,27.6z"/>
		</g>
	</g>
</g>
</svg>
