<?xml version="1.0" encoding="utf-8"?>
<!-- Generator: Adobe Illustrator 18.0.0, SVG Export Plug-In . SVG Version: 6.00 Build 0)  -->
<!DOCTYPE svg PUBLIC "-//W3C//DTD SVG 1.1//EN" "http://www.w3.org/Graphics/SVG/1.1/DTD/svg11.dtd">
<svg version="1.1" xmlns="http://www.w3.org/2000/svg" xmlns:xlink="http://www.w3.org/1999/xlink" x="0px" y="0px"
	 viewBox="0 0 41.9 41.9" enable-background="new 0 0 41.9 41.9" xml:space="preserve">
<g id="Camada_1">
</g>
<g id="Camada_2">
	<g>
		<g>
			<path fill="#4D4D4D" d="M20.9,30.6L20.9,30.6L20.9,30.6L20.9,30.6z"/>
			<circle fill="#4D4D4D" cx="26" cy="5.6" r="3.2"/>
			<path fill="#4D4D4D" d="M24.6,14.9c0,1.7-1.2,3.1-2.8,3.5c1.6,0.2,3.3,0.8,4.1,2.2c0.1,0,0.2,0,0.3,0c0.8-1.3,2.4-2,4.1-2.2
				c-1.6-0.4-2.8-1.8-2.8-3.5c0-1.8,1.3-3.3,3-3.5C29.6,10,27.8,9.5,26,9.5c-1.7,0-3.5,0.6-4.5,1.9C23.2,11.6,24.6,13.1,24.6,14.9z"
				/>
			<circle fill="#4D4D4D" cx="15.9" cy="5.6" r="3.2"/>
			<path fill="#4D4D4D" d="M14.5,14.9c0,1.7-1.2,3.1-2.8,3.5c1.6,0.2,3.3,0.8,4,2.2c0.1,0,0.2,0,0.2,0c0.8-1.3,2.4-2.1,4.1-2.2
				c-1.6-0.4-2.8-1.8-2.8-3.5c0-1.8,1.3-3.2,3-3.5c-0.9-1.3-2.7-1.9-4.5-1.9c-1.7,0-3.5,0.6-4.5,1.9C13.2,11.6,14.5,13,14.5,14.9z"
				/>
			<path fill="#4D4D4D" d="M27.9,14.9c0,1.8,1.4,3.2,3.2,3.2l0,0c1.8,0,3.2-1.4,3.2-3.2c0-1.8-1.4-3.2-3.2-3.2c-0.1,0-0.2,0-0.4,0
				C29.1,11.9,27.9,13.2,27.9,14.9z"/>
			<path fill="#4D4D4D" d="M31,18.7L31,18.7c-1.7,0-3.5,0.6-4.5,1.9c0.4,0,0.8,0.2,1.2,0.4c1.2,0.6,2,1.8,2,3.2
				c0,1.7-1.2,3.1-2.8,3.5c1.8,0.2,3.5,0.9,4.2,2.6H36v-7.5c0,0,0,0,0-0.1C36,19.9,33.5,18.7,31,18.7z"/>
			<path fill="#4D4D4D" d="M10.9,18C10.9,18,10.9,18,10.9,18c1.9,0,3.3-1.4,3.3-3.2c0-1.7-1.3-3.1-2.9-3.2c-0.1,0-0.2,0-0.3,0
				c-1.8,0-3.2,1.4-3.2,3.2C7.8,16.6,9.1,18,10.9,18z"/>
			<path fill="#4D4D4D" d="M14.9,27.6c-1.6-0.4-2.8-1.8-2.8-3.5c0-1.4,0.8-2.6,2-3.2c0.4-0.2,0.8-0.3,1.2-0.4
				c-0.9-1.3-2.7-1.9-4.5-1.9h0c-2.4,0-5,1.2-5,3.9c0,0.2,0,3,0,3c0,0.6,0,4.2,0,4.6c0,0,0,0,0.1,0h4.7
				C11.4,28.6,13.1,27.8,14.9,27.6z"/>
			<path fill="#4D4D4D" d="M26,20.9C26,20.9,26,20.9,26,20.9c-0.1,0-0.2,0-0.2,0c-0.1,0-0.1,0-0.2,0c-1.5,0.3-2.6,1.6-2.6,3.1
				c0,1.6,1.1,2.8,2.6,3.1c0.1,0,0.1,0,0.2,0c0.1,0,0.1,0,0.2,0c0.1,0,0.1,0,0.2,0h0c0,0,0.1,0,0.2,0c1.7-0.1,3.1-1.5,3.1-3.2
				c0-1.7-1.4-3.1-3.1-3.2c0,0-0.1,0-0.2,0h0C26.1,20.9,26.1,20.9,26,20.9z"/>
			<path fill="#4D4D4D" d="M30.9,30.4c0-0.1,0-0.1-0.1-0.2C30,28.7,28.2,28,26.4,28c-0.1,0-0.1,0-0.2,0l0,0c-0.1,0-0.1,0-0.2,0
				c-0.1,0-0.1,0-0.2,0c-0.1,0-0.1,0-0.2,0c-1.7,0.1-3.3,0.8-4,2.2c0,0.1-0.1,0.1-0.1,0.2c0,0.1,0,0.1-0.1,0.2
				c-0.1,0.4-0.2,0.8-0.2,1.3l0,0c0,0,0,0,0,0.1c0,0.5,0,2.9,0,2.9c0,0.6,0,4.2,0,4.6c0,0,0,0,0.1,0h10V32c0,0,0,0,0-0.1
				c0-0.5-0.1-0.9-0.2-1.3C31,30.5,31,30.5,30.9,30.4z"/>
			<path fill="#4D4D4D" d="M15.9,20.9C15.8,20.9,15.8,20.9,15.9,20.9c-0.1,0-0.1,0-0.1,0c-0.1,0-0.1,0-0.2,0c-1.7,0.1-3,1.5-3,3.2
				c0,1.7,1.3,3.1,3,3.2c0.1,0,0.1,0,0.2,0h0c0,0,0.1,0,0.2,0h0c0.1,0,0.1,0,0.2,0c0.1,0,0.1,0,0.2,0c1.5-0.3,2.6-1.6,2.6-3.1
				c0-1.6-1.2-2.9-2.7-3.1c-0.1,0-0.1,0-0.2,0c0,0,0,0-0.1,0C16,20.9,15.9,20.9,15.9,20.9z"/>
			<path fill="#4D4D4D" d="M20.4,30.4c0-0.1,0-0.1-0.1-0.2c-0.7-1.4-2.3-2.1-4-2.2c-0.1,0-0.1,0-0.2,0c-0.1,0-0.1,0-0.2,0h0
				c-0.1,0-0.1,0-0.2,0l0,0c-0.1,0-0.1,0-0.2,0c-1.8,0-3.7,0.7-4.5,2.2c0,0.1-0.1,0.1-0.1,0.2c0,0.1,0,0.1-0.1,0.2
				c-0.1,0.4-0.2,0.8-0.2,1.3c0,0.2,0,3,0,3c0,0.6,0,4.2,0,4.6c0,0,0,0,0.1,0h10l0,0v-4.6V32v-0.1c0-0.5-0.1-0.9-0.2-1.3
				C20.5,30.5,20.5,30.5,20.4,30.4z"/>
		</g>
	</g>
</g>
</svg>
