<?xml version="1.0" encoding="utf-8"?>
<!-- Generator: Adobe Illustrator 18.0.0, SVG Export Plug-In . SVG Version: 6.00 Build 0)  -->
<!DOCTYPE svg PUBLIC "-//W3C//DTD SVG 1.1//EN" "http://www.w3.org/Graphics/SVG/1.1/DTD/svg11.dtd">
<svg version="1.1" id="Camada_1" xmlns="http://www.w3.org/2000/svg" xmlns:xlink="http://www.w3.org/1999/xlink" x="0px" y="0px"
	 width="828px" height="235px" viewBox="0 0 828 235" enable-background="new 0 0 828 235" xml:space="preserve">
<path fill="#515151" d="M115.3,144.1c0,27-16.1,39.8-49.8,39.8c-33.7,0-49.9-15.4-49.9-50.1v-29.2c0-32.2,16.1-50.1,49.9-50.1
	c33.7,0,49.8,15.5,49.8,50.1v25.5H45.7v3.3c0,20.7,8.1,24.6,20.2,24.6c14.1,0,20-5,20-13.9H115.3z M45.7,105.5h40.7
	c0-16.1-3.1-25-20-25C48.7,80.5,45.7,90.1,45.7,105.5z M143,55h25.9l2,13.1c7.2-9.4,18.7-14.1,30.3-13.7c12.6,0,25.5,4.1,31.6,16.3
	c6.7-10,20.2-16.5,36.6-16.5c26.6,0,42.4,15.5,42.4,50.3v79h-29.8v-79c0-16.5-6.7-23.3-19.2-23.3c-11.3,0-19.8,4.8-20.2,23.1v79.2
	h-29.8v-79c0-16.5-6.7-23.3-19.2-23.3c-11.5,0-20.7,5.7-20.7,22.2v80.1H143V55z M466.5,99.2c-2-32,15.2-44.8,45.9-44.8
	c33.5,0,48.1,16.8,48.1,50.1v79h-24.4l-2.8-14.8c-7.2,10-19.4,16.5-33.7,16.5c-21.1,0-37-12.2-37-36.4c0-30.3,25.3-42.2,69.4-39.2
	c0-19.2-3.7-28.7-19.4-28.7c-13.1,0-17.8,4.6-17.6,18.3H466.5z M490.8,146.5c0,8.5,7.4,11.3,17.6,11.3c17.4,0,22.2-12.6,23.5-25.5
	C501.5,129.3,490.8,136.2,490.8,146.5z M586.8,32.8l29.8-3.3v25h21.8v27.2h-21.8V136c0,14.1,2.2,23.7,22.2,21.3v26.1
	c-37.9,4.1-52-8.9-52-47V32.8z M693.1,29.1c0,21.8-33.7,22-33.7,0C659.3,6.9,693.1,7.1,693.1,29.1z M690.9,183.7h-29.8V57.9h29.8
	V183.7z M718.3,99.2c-2-32,15.2-44.8,45.9-44.8c33.5,0,48.1,16.8,48.1,50.1v79H788l-2.8-14.8c-7.2,10-19.4,16.5-33.7,16.5
	c-21.1,0-37-12.2-37-36.4c0-30.3,25.3-42.2,69.4-39.2c0-19.2-3.7-28.7-19.4-28.7c-13.1,0-17.9,4.6-17.6,18.3H718.3z M742.7,146.5
	c0,8.5,7.4,11.3,17.6,11.3c17.4,0,22.2-12.6,23.5-25.5C753.4,129.3,742.7,136.2,742.7,146.5z M391.6,54.2
	c-32.7,0-49.4,14.8-49.4,50.3v118H372V173c6.5,8.1,17.9,11.3,28.1,11.3c27.9,0,41.4-17.6,41.4-45.3v-34.4
	C441.4,69,424,54.2,391.6,54.2z M411.6,135.6c0,15.7-7,21.3-19.4,21.5c-6.7,0-11.8-1.9-15.3-5.7c-6.5,2.9-14.1,5.1-22.5,6.5
	c9.6-6.5,15.8-14.7,17.4-24.4c0-0.3,0.1-0.6,0.1-0.8v-27.6c0-15.5,4.4-24.4,19.6-24.4c11.8,0,20,6.1,20,24.6V135.6z"/>
</svg>
