<?xml version="1.0" encoding="utf-8"?>
<!-- Generator: Adobe Illustrator 18.0.0, SVG Export Plug-In . SVG Version: 6.00 Build 0)  -->
<!DOCTYPE svg PUBLIC "-//W3C//DTD SVG 1.1//EN" "http://www.w3.org/Graphics/SVG/1.1/DTD/svg11.dtd">
<svg version="1.1" xmlns="http://www.w3.org/2000/svg" xmlns:xlink="http://www.w3.org/1999/xlink" x="0px" y="0px" width="93px"
	 height="95.7px" viewBox="0 0 93 95.7" enable-background="new 0 0 93 95.7" xml:space="preserve">
<g id="Camada_1">
	<path fill="#BCBCBC" d="M27.3,43.1v-2.5c0-0.7,0.5-1.2,1.2-1.2H56c0.7,0,1.2,0.5,1.2,1.2v2.5c0,0.7-0.5,1.2-1.2,1.2H28.5
		C27.8,44.3,27.3,43.8,27.3,43.1z M80.7,66.4c0,11-8.9,19.8-19.8,19.8c-6.1,0-11.5-2.7-15.1-7H16.1c-2.1,0-3.7-1.7-3.7-3.7V13.1
		c0-2.1,1.7-3.7,3.7-3.7H51c2.1,0,5,1.2,6.4,2.7l12.2,12.2c1.4,1.4,2.6,4.3,2.6,6.4v19.6C77.3,53.8,80.7,59.7,80.7,66.4z M52.2,29.4
		h14.7c-0.2-0.7-0.6-1.3-0.9-1.6L53.8,15.6c-0.3-0.3-0.9-0.6-1.6-0.9V29.4z M42.7,74.3c-1-2.4-1.6-5-1.6-7.8c0-0.7,0-1.4,0.1-2.2
		H28.5c-0.7,0-1.2-0.5-1.2-1.2v-2.5c0-0.7,0.5-1.2,1.2-1.2h13.9c0.7-1.8,1.7-3.5,2.8-5H28.5c-0.7,0-1.2-0.5-1.2-1.2v-2.5
		c0-0.7,0.5-1.2,1.2-1.2h22.4c2.9-1.7,6.3-2.7,10-2.7c2.2,0,4.3,0.4,6.3,1.1V34.3H51c-2.1,0-3.7-1.7-3.7-3.7V14.4H17.3v59.9H42.7z
		 M74.1,60c0-0.4-0.2-0.9-0.5-1.2l-2.3-2.4c-0.3-0.3-0.7-0.5-1.2-0.5c-0.4,0-0.9,0.2-1.2,0.5L57.8,68l-5-5.2
		c-0.3-0.3-0.7-0.5-1.2-0.5c-0.4,0-0.9,0.2-1.2,0.5l-2.3,2.4c-0.3,0.3-0.5,0.8-0.5,1.2s0.2,0.9,0.5,1.2l6.2,6.4l2.3,2.4
		c0.3,0.3,0.7,0.5,1.2,0.5c0.4,0,0.9-0.2,1.2-0.5l2.3-2.4l12.4-12.8C73.9,60.9,74.1,60.5,74.1,60z"/>
</g>
<g id="Camada_2">
</g>
<g id="Camada_3">
</g>
<g id="Camada_4">
</g>
<g id="Camada_5">
</g>
<g id="Camada_7">
</g>
<g id="Camada_9">
</g>
<g id="Camada_8">
</g>
</svg>
