<?xml version="1.0" encoding="utf-8"?>
<!-- Generator: Adobe Illustrator 22.0.1, SVG Export Plug-In . SVG Version: 6.00 Build 0)  -->
<svg version="1.1" id="Layer_1" xmlns="http://www.w3.org/2000/svg" xmlns:xlink="http://www.w3.org/1999/xlink" x="0px" y="0px"
	 viewBox="0 0 92.2 71.9" enable-background="new 0 0 92.2 71.9" xml:space="preserve">
<g>
	<circle fill="#3C8DBC" cx="46.1" cy="19.2" r="10.8"/>
	<circle fill="#3C8DBC" cx="68" cy="37.3" r="10.8"/>
	<circle fill="#3C8DBC" cx="24.2" cy="37.3" r="10.8"/>
	<path fill="#3C8DBC" d="M47.7,62.2c0-7.2,3.8-13.9,9.8-17.4c-1.5-2.1-2.4-4.7-2.4-7.5c0-2.8,0.9-5.3,2.4-7.4
		c-0.6-0.5-1.3-0.9-1.9-1.3c-1.3,1.1-3.5,3.9-3.6,4l-2.7-0.2c-0.1,0.1-3.1,6-3.1,6s-3-5.9-3.1-6l-2.7,0.2c-0.1-0.1-2.3-2.9-3.6-4
		c-0.7,0.4-1.3,0.8-1.9,1.3c1.5,2.1,2.4,4.7,2.4,7.4c0,2.8-0.9,5.4-2.4,7.5c6.1,3.5,9.8,10.2,9.8,17.4c0,0,0,0.1,0,0.1
		c0.5,0,1.1,0.1,1.6,0.1c0.5,0,1.1,0,1.6-0.1C47.7,62.2,47.7,62.2,47.7,62.2z"/>
	<path fill="#3C8DBC" d="M42.3,63.5c0-0.4,0.1-0.9,0.1-1.3c0-7-3.8-12.7-8.8-15.6c-1.3,1.1-3.5,3.9-3.6,4l-2.7-0.2
		c-0.1,0.1-3.1,6-3.1,6s-3-5.9-3.1-6l-2.7,0.2c-0.1-0.1-2.3-2.9-3.6-4c-5,2.9-8.8,8.6-8.8,15.6c0,0.4,0,0.9,0.1,1.3H42.3z"/>
	<path fill="#3C8DBC" d="M86.2,63.5c0-0.4,0.1-0.9,0.1-1.3c0-7-3.8-12.7-8.8-15.6c-1.3,1.1-3.5,3.9-3.6,4l-2.7-0.2
		c-0.1,0.1-3.1,6-3.1,6s-3-5.9-3.1-6l-2.7,0.2c-0.1-0.1-2.3-2.9-3.6-4c-5,2.9-8.8,8.6-8.8,15.6c0,0.4,0,0.9,0.1,1.3H86.2z"/>
</g>
</svg>
