<?xml version="1.0" encoding="utf-8"?>
<!-- Generator: Adobe Illustrator 22.0.1, SVG Export Plug-In . SVG Version: 6.00 Build 0)  -->
<svg version="1.1" id="Layer_1" xmlns="http://www.w3.org/2000/svg" xmlns:xlink="http://www.w3.org/1999/xlink" x="0px" y="0px"
	 viewBox="0 0 92.2 71.9" enable-background="new 0 0 92.2 71.9" xml:space="preserve">
<g>
	<g>
		<path fill="#3C8DBC" d="M26.3,49.9h-0.5c-0.8,0-1.5-0.7-1.5-1.5V31.9c0-0.8,0.7-1.5,1.5-1.5h0.5c0.8,0,1.5,0.7,1.5,1.5v16.5
			C27.9,49.2,27.2,49.9,26.3,49.9z"/>
		<path fill="#3C8DBC" d="M38.6,49.9h-0.5c-0.8,0-1.5-0.7-1.5-1.5v-14c0-0.8,0.7-1.5,1.5-1.5h0.5c0.8,0,1.5,0.7,1.5,1.5v14
			C40.2,49.2,39.5,49.9,38.6,49.9z"/>
		<path fill="#3C8DBC" d="M20.2,49.9h-0.5c-0.8,0-1.5-0.7-1.5-1.5v-9.5c0-0.8,0.7-1.5,1.5-1.5h0.5c0.8,0,1.5,0.7,1.5,1.5v9.5
			C21.7,49.2,21,49.9,20.2,49.9z"/>
		<path fill="#3C8DBC" d="M32.5,49.9H32c-0.8,0-1.5-0.7-1.5-1.5V27.5c0-0.8,0.7-1.5,1.5-1.5h0.5c0.8,0,1.5,0.7,1.5,1.5v20.8
			C34,49.2,33.3,49.9,32.5,49.9z"/>
		<path fill="#3C8DBC" d="M44.8,49.9h-0.5c-0.8,0-1.5-0.7-1.5-1.5V23.6c0-0.8,0.7-1.5,1.5-1.5h0.5c0.8,0,1.5,0.7,1.5,1.5v24.8
			C46.3,49.2,45.6,49.9,44.8,49.9z"/>
		<path fill="#3C8DBC" d="M53.6,43.3v-0.5c0-0.8,0.7-1.5,1.5-1.5h17.4c0.8,0,1.5,0.7,1.5,1.5v0.5c0,0.8-0.7,1.5-1.5,1.5H55.1
			C54.3,44.8,53.6,44.1,53.6,43.3z"/>
		<path fill="#3C8DBC" d="M53.6,48.4v-0.5c0-0.8,0.7-1.5,1.5-1.5h17.4c0.8,0,1.5,0.7,1.5,1.5v0.5c0,0.8-0.7,1.5-1.5,1.5H55.1
			C54.3,49.9,53.6,49.2,53.6,48.4z"/>
		<g>
			<path fill="#3C8DBC" d="M63.8,36.3c-5,0-9.1-4.1-9.1-9.1s4.1-9.1,9.1-9.1s9.1,4.1,9.1,9.1S68.8,36.3,63.8,36.3z M63.8,20.7
				c-3.6,0-6.5,2.9-6.5,6.5s2.9,6.5,6.5,6.5s6.5-2.9,6.5-6.5S67.4,20.7,63.8,20.7z"/>
			<path fill="#3C8DBC" d="M72.9,28.5H61.9l4.4-10.2l1.2,0.5c3.3,1.4,5.5,4.7,5.5,8.4V28.5z M65.8,25.9h4.4
				c-0.3-1.6-1.3-3.1-2.7-4.1L65.8,25.9z"/>
		</g>
	</g>
	<path fill="#3C8DBC" d="M81.3,56.5H10.9c-0.8,0-1.4-0.6-1.4-1.4V11.5c0-0.8,0.6-1.4,1.4-1.4h70.3c0.8,0,1.4,0.6,1.4,1.4v43.5
		C82.7,55.9,82,56.5,81.3,56.5z M12.4,53.6h67.5V13H12.4V53.6z"/>
	<path fill="#3C8DBC" d="M65.2,61.8H27c-0.8,0-1.4-0.6-1.4-1.4S26.2,59,27,59h38.2c0.8,0,1.4,0.6,1.4,1.4S66,61.8,65.2,61.8z"/>
</g>
</svg>
