<?xml version="1.0" encoding="utf-8"?>
<!-- Generator: Adobe Illustrator 22.0.1, SVG Export Plug-In . SVG Version: 6.00 Build 0)  -->
<svg version="1.1" id="Layer_1" xmlns="http://www.w3.org/2000/svg" xmlns:xlink="http://www.w3.org/1999/xlink" x="0px" y="0px"
	 viewBox="0 0 92.2 71.9" enable-background="new 0 0 92.2 71.9" xml:space="preserve">
<g>
	<g>
		<path fill="#3C8DBC" d="M52.8,48.9c0,0,0.1,0,0.1,0"/>
	</g>
	<path fill="#3C8DBC" d="M58.2,28.7c0-0.2,0-0.4-0.1-0.6c-0.2-0.8-0.9-1-1.6-0.9c-1,0.1-2,0.4-2.9,0.9c-1.1,0.7-2,1.7-3,2.6
		c0,0-0.1,0-0.1,0c-1.3-2.1-0.3-4.7,0.4-6.8c0.3-0.9,0.5-1.8,0.8-2.7c0.3-1,1.1-2.7,0.3-3.6c-0.4-0.5-1.4-0.7-1.9-0.3
		c-0.3,0.3-0.5,0.7-0.6,1.1c-0.4,1.2-0.9,2.4-1.3,3.5c-0.4,1-0.6,2-1,3c-0.1,0.2-0.5,1.4-0.9,0.7c-0.1-0.1-0.1-0.3-0.1-0.5
		c0-1.2,0-2.5,0.1-3.7c0-1.4,0-2.8,0-4.2c0-1-0.2-2.5-1.5-2.4c-0.6,0.1-1,0.5-1.2,1.1c-0.2,0.5-0.2,1.1-0.2,1.7
		c0,1.5,0.1,3.1,0.1,4.6c0,0.8,0,1.5-0.1,2.3c0,0.3,0,1.8-0.6,1.2c-0.1-0.1-0.2-0.3-0.2-0.4c-0.6-1.8-1.2-3.7-1.7-5.5
		c-0.3-1-0.4-2-1-2.9c-0.5-0.7-1.8-0.1-2,0.6c-0.3,1,0.2,2.1,0.4,3c0.3,1.2,0.6,2.3,0.9,3.5c0.2,1,0.7,2.3,0.5,3.3
		c-0.7-1.1-1.4-2.2-2.2-3.2c-0.7-0.9-1.2-2-2-2.8c-0.1-0.1-0.2-0.2-0.4-0.3c-0.4-0.2-1-0.1-1.3,0.2c-0.3,0.4-0.4,0.9-0.3,1.4
		c0.1,0.5,0.4,0.9,0.6,1.3c0.3,0.5,0.5,1.1,0.8,1.6c0.4,0.7,0.8,1.3,1.1,2c0.5,0.9,0.9,1.8,1.1,2.8c0.2,0.9,0.1,1.8,0.2,2.8
		c0.1,1.2,0.4,2.4,0.9,3.5c0.2,0.6,0.5,1.1,0.8,1.6c0.3,0.5,0.6,0.8,1,1.2C40.4,40,40,41.2,40,42c-0.1,1.5-0.1,17.5-0.2,19
		c1.4,0.3,2.9,0.5,4.4,0.5c1.5,0,2.9-0.2,4.3-0.5c0-2.1-0.1-18.6-0.3-20.6c0-0.3,0-0.6,0.1-0.8c0.2-0.5,0.7-0.7,1.1-1
		c3.7-2,3.9-7.2,7.7-9c0.2-0.1,0.4-0.2,0.6-0.3S58.2,29,58.2,28.7z"/>
	<path fill="#3C8DBC" d="M43,45.5c0-0.2,0-0.4-0.1-0.5c-0.2-0.7-0.8-0.9-1.5-0.8c-0.9,0.1-1.9,0.3-2.7,0.8c-1.1,0.6-1.9,1.6-2.8,2.4
		c0,0,0,0,0,0c-1.2-1.9-0.2-4.4,0.4-6.3c0.3-0.8,0.5-1.7,0.7-2.5c0.2-0.9,1-2.5,0.3-3.3c-0.4-0.5-1.2-0.6-1.7-0.2
		c-0.3,0.2-0.4,0.6-0.6,1c-0.4,1.1-0.8,2.2-1.2,3.3c-0.4,0.9-0.6,1.8-1,2.7c-0.1,0.2-0.5,1.3-0.8,0.7C32,42.6,32,42.4,32,42.3
		c0-1.1,0-2.3,0.1-3.4c0-1.3,0-2.6,0-3.9c0-0.9-0.2-2.3-1.4-2.2c-0.5,0.1-0.9,0.5-1.1,1c-0.2,0.5-0.2,1-0.2,1.6
		c0,1.4,0.1,2.8,0.1,4.3c0,0.7,0,1.4-0.1,2.1c0,0.3,0,1.7-0.6,1.1c-0.1-0.1-0.1-0.3-0.2-0.4c-0.5-1.7-1.1-3.4-1.6-5.1
		c-0.3-0.9-0.4-1.9-0.9-2.7c-0.4-0.7-1.6-0.1-1.8,0.5c-0.3,0.9,0.2,1.9,0.4,2.7c0.3,1.1,0.6,2.2,0.8,3.3c0.2,0.9,0.6,2.1,0.4,3.1
		c-0.6-1-1.3-2-2-3c-0.6-0.9-1.1-1.8-1.9-2.5c-0.1-0.1-0.2-0.2-0.4-0.3c-0.4-0.2-0.9-0.1-1.2,0.2c-0.3,0.3-0.4,0.8-0.3,1.3
		c0.1,0.4,0.3,0.8,0.6,1.2c0.3,0.5,0.4,1,0.7,1.5c0.4,0.6,0.7,1.2,1.1,1.8c0.4,0.8,0.8,1.7,1,2.6c0.2,0.8,0.1,1.7,0.2,2.5
		c0.1,1.1,0.4,2.2,0.8,3.2c0.2,0.5,0.5,1,0.7,1.5c0.3,0.5,0.5,0.7,0.9,1.1c0.5,0.6,0.2,1.7,0.2,2.4c0,1.4-0.1,2.2-0.1,3.6
		c1.3,0.3,2.7,0.5,4.1,0.5c1.4,0,2.7-0.2,4-0.5c0-1.9-0.1-3.2-0.3-5.1c0-0.3,0-0.5,0-0.8c0.2-0.4,0.6-0.7,1-0.9
		c3.4-1.9,3.6-6.6,7.1-8.3c0.2-0.1,0.4-0.2,0.6-0.3S43,45.7,43,45.5z"/>
	<path fill="#3C8DBC" d="M45.8,45.5c0-0.2,0-0.4,0.1-0.5c0.2-0.7,0.8-0.9,1.5-0.8c0.9,0.1,1.9,0.3,2.7,0.8c1.1,0.6,1.9,1.6,2.8,2.4
		c0,0,0,0,0,0c1.2-1.9,0.2-4.4-0.4-6.3c-0.3-0.8-0.5-1.7-0.7-2.5c-0.2-0.9-1-2.5-0.3-3.3c0.4-0.5,1.2-0.6,1.7-0.2
		c0.3,0.2,0.4,0.6,0.6,1c0.4,1.1,0.8,2.2,1.2,3.3c0.4,0.9,0.6,1.8,1,2.7c0.1,0.2,0.5,1.3,0.8,0.7c0.1-0.1,0.1-0.3,0.1-0.4
		c0-1.1,0-2.3-0.1-3.4c0-1.3,0-2.6,0-3.9c0-0.9,0.2-2.3,1.4-2.2c0.5,0.1,0.9,0.5,1.1,1c0.2,0.5,0.2,1,0.2,1.6c0,1.4-0.1,2.8-0.1,4.3
		c0,0.7,0,1.4,0.1,2.1c0,0.3,0,1.7,0.6,1.1c0.1-0.1,0.1-0.3,0.2-0.4c0.5-1.7,1.1-3.4,1.6-5.1c0.3-0.9,0.4-1.9,0.9-2.7
		c0.4-0.7,1.6-0.1,1.8,0.5c0.3,0.9-0.2,1.9-0.4,2.7c-0.3,1.1-0.6,2.2-0.8,3.3c-0.2,0.9-0.6,2.1-0.4,3.1c0.6-1,1.3-2,2-3
		c0.6-0.9,1.1-1.8,1.9-2.5c0.1-0.1,0.2-0.2,0.4-0.3c0.4-0.2,0.9-0.1,1.2,0.2c0.3,0.3,0.4,0.8,0.3,1.3c-0.1,0.4-0.3,0.8-0.6,1.2
		c-0.3,0.5-0.4,1-0.7,1.5c-0.4,0.6-0.7,1.2-1.1,1.8c-0.4,0.8-0.8,1.7-1,2.6c-0.2,0.8-0.1,1.7-0.2,2.5c-0.1,1.1-0.4,2.2-0.8,3.2
		c-0.2,0.5-0.5,1-0.7,1.5c-0.3,0.5-0.5,0.7-0.9,1.1c-0.5,0.6-0.2,1.7-0.2,2.4c0,1.4,0.1,2.2,0.1,3.6c-1.3,0.3-2.7,0.5-4.1,0.5
		c-1.4,0-2.7-0.2-4-0.5c0-1.9,0.1-3.2,0.3-5.1c0-0.3,0-0.5,0-0.8c-0.2-0.4-0.6-0.7-1-0.9c-3.4-1.9-3.6-6.6-7.1-8.3
		c-0.2-0.1-0.4-0.2-0.6-0.3C46,45.9,45.8,45.7,45.8,45.5z"/>
	<g>
		<polygon fill="#3C8DBC" points="79.6,12.2 73.1,6.8 66.7,12.2 		"/>
	</g>
	<polygon fill="#3C8DBC" points="70.5,10.4 70.5,60.1 17.6,60.1 17.6,12.2 59.1,12.2 59.1,7.3 12.6,7.3 12.6,9.7 12.6,12.2 
		12.6,65.1 17.5,65.1 17.6,65.1 70.5,65.1 73.7,65.1 75.5,65.1 75.5,10.4 	"/>
</g>
</svg>
