<?xml version="1.0" encoding="UTF-8" standalone="no"?>
<!-- Generator: Adobe Illustrator 21.1.0, SVG Export Plug-In . SVG Version: 6.00 Build 0)  -->

<svg
   xmlns:dc="http://purl.org/dc/elements/1.1/"
   xmlns:cc="http://creativecommons.org/ns#"
   xmlns:rdf="http://www.w3.org/1999/02/22-rdf-syntax-ns#"
   xmlns:svg="http://www.w3.org/2000/svg"
   xmlns="http://www.w3.org/2000/svg"
   xmlns:sodipodi="http://sodipodi.sourceforge.net/DTD/sodipodi-0.dtd"
   xmlns:inkscape="http://www.inkscape.org/namespaces/inkscape"
   version="1.1"
   x="0px"
   y="0px"
   viewBox="0 0 66.100001 66"
   enable-background="new 0 0 85.7 78"
   xml:space="preserve"
   id="svg18"
   sodipodi:docname="backoffice-dashboard_icon-refresh.svg"
   width="66.099998"
   height="66"
   inkscape:version="0.92.1 r15371"><metadata
     id="metadata24"><rdf:RDF><cc:Work
         rdf:about=""><dc:format>image/svg+xml</dc:format><dc:type
           rdf:resource="http://purl.org/dc/dcmitype/StillImage" /></cc:Work></rdf:RDF></metadata><defs
     id="defs22" /><sodipodi:namedview
     pagecolor="#ffffff"
     bordercolor="#666666"
     borderopacity="1"
     objecttolerance="10"
     gridtolerance="10"
     guidetolerance="10"
     inkscape:pageopacity="0"
     inkscape:pageshadow="2"
     inkscape:window-width="716"
     inkscape:window-height="480"
     id="namedview20"
     showgrid="false"
     inkscape:zoom="3.025641"
     inkscape:cx="33.049998"
     inkscape:cy="33"
     inkscape:window-x="0"
     inkscape:window-y="0"
     inkscape:window-maximized="0"
     inkscape:current-layer="svg18" /><g
     id="Camada_1"
     transform="translate(-9.8,-6)"><g
       id="g8"><path
         d="m 74.8,45.9 c 0,0.1 0,0.2 0,0.3 C 73,53.9 69.1,60.1 63.3,64.9 57.5,69.7 50.6,72 42.7,72 38.5,72 34.5,71.2 30.5,69.6 26.6,68 23.1,65.8 20,62.8 l -5.6,5.6 c -0.5,0.5 -1.2,0.8 -1.9,0.8 -0.7,0 -1.4,-0.3 -1.9,-0.8 C 10.1,67.9 9.8,67.2 9.8,66.5 V 47.3 c 0,-0.7 0.3,-1.4 0.8,-1.9 0.5,-0.5 1.2,-0.8 1.9,-0.8 h 19.3 c 0.7,0 1.4,0.3 1.9,0.8 0.5,0.5 0.8,1.2 0.8,1.9 0,0.7 -0.3,1.4 -0.8,1.9 l -5.9,5.9 c 2,1.9 4.3,3.4 6.9,4.4 2.6,1 5.3,1.5 8,1.5 3.8,0 7.4,-0.9 10.8,-2.8 3.3,-1.9 6,-4.4 8,-7.7 0.3,-0.5 1.1,-2.2 2.3,-5 0.2,-0.7 0.7,-1 1.3,-1 h 8.3 c 0.4,0 0.7,0.1 1,0.4 0.3,0.3 0.4,0.6 0.4,1 z"
         id="path2"
         inkscape:connector-curvature="0"
         style="fill:#2ea7de" /><path
         d="m 75.9,11.5 v 19.3 c 0,0.7 -0.3,1.4 -0.8,1.9 -0.5,0.5 -1.2,0.8 -1.9,0.8 H 53.9 c -0.7,0 -1.4,-0.3 -1.9,-0.8 -0.5,-0.5 -0.8,-1.2 -0.8,-1.9 0,-0.7 0.3,-1.4 0.8,-1.9 L 57.9,23 c -4.2,-3.9 -9.3,-5.9 -15,-5.9 -3.8,0 -7.4,0.9 -10.8,2.8 -3.3,1.9 -6,4.4 -8,7.7 -0.3,0.5 -1.1,2.2 -2.3,5 -0.2,0.7 -0.7,1 -1.3,1 H 12 c -0.4,0 -0.7,-0.1 -1,-0.4 -0.3,-0.3 -0.4,-0.6 -0.4,-1 V 31.9 C 12.5,24.2 16.3,18 22.2,13.2 28.1,8.3 35,6 42.9,6 c 4.2,0 8.3,0.8 12.2,2.4 3.9,1.6 7.5,3.8 10.5,6.7 l 5.6,-5.6 c 0.5,-0.5 1.2,-0.8 1.9,-0.8 0.7,0 1.4,0.3 1.9,0.8 0.6,0.6 0.9,1.2 0.9,2 z"
         id="path4"
         inkscape:connector-curvature="0"
         style="fill:#2ea7de" /><path
         d="m 44.6,25.9 v 15.7 c 0,0.3 -0.1,0.6 -0.3,0.8 -0.2,0.2 -0.5,0.3 -0.8,0.3 H 32.2 c -0.3,0 -0.6,-0.1 -0.8,-0.3 -0.2,-0.2 -0.3,-0.5 -0.3,-0.8 v -2.2 c 0,-0.3 0.1,-0.6 0.3,-0.8 0.2,-0.2 0.5,-0.3 0.8,-0.3 h 7.9 V 25.9 c 0,-0.3 0.1,-0.6 0.3,-0.8 0.2,-0.2 0.5,-0.3 0.8,-0.3 h 2.2 c 0.3,0 0.6,0.1 0.8,0.3 0.3,0.2 0.4,0.5 0.4,0.8 z"
         id="path6"
         inkscape:connector-curvature="0"
         style="fill:#dddddd" /></g></g><g
     id="Camada_2"
     transform="translate(-9.8,-6)" /><g
     id="Camada_3"
     transform="translate(-9.8,-6)" /><g
     id="Camada_4"
     transform="translate(-9.8,-6)" /><g
     id="Camada_5"
     transform="translate(-9.8,-6)" /><g
     id="Camada_7"
     transform="translate(-9.8,-6)" /><g
     id="Camada_9"
     transform="translate(-9.8,-6)" /><g
     id="Camada_8"
     transform="translate(-9.8,-6)" /></svg>