<?xml version="1.0" encoding="UTF-8" standalone="no"?>
<!-- Generator: Adobe Illustrator 21.1.0, SVG Export Plug-In . SVG Version: 6.00 Build 0)  -->

<svg
   xmlns:dc="http://purl.org/dc/elements/1.1/"
   xmlns:cc="http://creativecommons.org/ns#"
   xmlns:rdf="http://www.w3.org/1999/02/22-rdf-syntax-ns#"
   xmlns:svg="http://www.w3.org/2000/svg"
   xmlns="http://www.w3.org/2000/svg"
   xmlns:sodipodi="http://sodipodi.sourceforge.net/DTD/sodipodi-0.dtd"
   xmlns:inkscape="http://www.inkscape.org/namespaces/inkscape"
   version="1.1"
   x="0px"
   y="0px"
   viewBox="0 0 69.100001 47.200001"
   enable-background="new 0 0 85.7 78"
   xml:space="preserve"
   id="svg24"
   sodipodi:docname="backoffice-dashboard_icon-pageseconds.svg"
   width="69.099998"
   height="47.200001"
   inkscape:version="0.92.1 r15371"><metadata
     id="metadata30"><rdf:RDF><cc:Work
         rdf:about=""><dc:format>image/svg+xml</dc:format><dc:type
           rdf:resource="http://purl.org/dc/dcmitype/StillImage" /></cc:Work></rdf:RDF></metadata><defs
     id="defs28" /><sodipodi:namedview
     pagecolor="#ffffff"
     bordercolor="#666666"
     borderopacity="1"
     objecttolerance="10"
     gridtolerance="10"
     guidetolerance="10"
     inkscape:pageopacity="0"
     inkscape:pageshadow="2"
     inkscape:window-width="716"
     inkscape:window-height="480"
     id="namedview26"
     showgrid="false"
     inkscape:zoom="3.025641"
     inkscape:cx="34.549998"
     inkscape:cy="23.6"
     inkscape:window-x="0"
     inkscape:window-y="0"
     inkscape:window-maximized="0"
     inkscape:current-layer="svg24" /><g
     id="Camada_1"
     transform="translate(-8.3,-15.4)"><g
       id="g14"><g
         id="g4"><path
           d="m 55.9,30.7 c 0,0.6 -0.2,1.2 -0.5,1.8 -2.5,4.1 -5.8,7.3 -10,9.8 C 41.2,44.8 36.8,46 32.1,46 27.4,46 23,44.8 18.8,42.3 14.6,39.8 11.3,36.6 8.8,32.5 8.4,31.9 8.3,31.3 8.3,30.7 c 0,-0.6 0.2,-1.2 0.5,-1.8 2.5,-4.1 5.8,-7.3 10,-9.8 4.2,-2.5 8.6,-3.7 13.3,-3.7 4.7,0 9.1,1.2 13.3,3.7 4.2,2.5 7.5,5.7 10,9.8 0.4,0.6 0.5,1.2 0.5,1.8 z m -3.4,0 c -2.7,-4.2 -6.1,-7.3 -10.1,-9.4 1.1,1.8 1.6,3.8 1.6,6 0,3.3 -1.2,6.1 -3.5,8.4 -2.3,2.3 -5.1,3.5 -8.4,3.5 -3.3,0 -6.1,-1.2 -8.4,-3.5 -2.3,-2.3 -3.5,-5.1 -3.5,-8.4 0,-2.1 0.5,-4.1 1.6,-6 -4.1,2.1 -7.4,5.2 -10.1,9.4 2.4,3.6 5.3,6.5 8.9,8.7 3.5,2.2 7.4,3.2 11.5,3.2 4.1,0 8,-1.1 11.5,-3.2 3.6,-2.2 6.6,-5.1 8.9,-8.7 z M 33.1,21.4 c 0.2,-0.2 0.4,-0.5 0.4,-0.9 0,-0.4 -0.1,-0.7 -0.4,-0.9 -0.2,-0.2 -0.5,-0.4 -0.9,-0.4 -2.2,0 -4.1,0.8 -5.7,2.4 -1.6,1.6 -2.4,3.5 -2.4,5.7 0,0.4 0.1,0.7 0.4,0.9 0.2,0.2 0.5,0.4 0.9,0.4 0.4,0 0.7,-0.1 0.9,-0.4 0.2,-0.2 0.4,-0.5 0.4,-0.9 0,-1.5 0.5,-2.8 1.6,-3.9 1.1,-1.1 2.4,-1.6 3.9,-1.6 0.3,-0.1 0.6,-0.2 0.9,-0.4 z"
           id="path2"
           inkscape:connector-curvature="0"
           style="fill:#2ea7de" /></g><rect
         x="32.400002"
         y="41"
         transform="matrix(0.7071,-0.7071,0.7071,0.7071,-13.4025,52.5641)"
         width="48.799999"
         height="3"
         id="rect6"
         style="fill:#dddddd" /><g
         id="g12"><g
           id="g10"><path
             d="m 69.2,62.6 c -1.3,0 -2.7,-0.3 -4,-0.8 -1.4,-0.5 -2.6,-1.2 -3.6,-2 l 2.6,-3.7 c 0.9,0.7 1.8,1.2 2.6,1.6 0.8,0.3 1.7,0.5 2.5,0.5 0.9,0 1.5,-0.1 1.9,-0.4 0.4,-0.3 0.6,-0.7 0.6,-1.2 0,-0.3 -0.1,-0.6 -0.3,-0.9 C 71.3,55.4 71,55.2 70.6,55 70.2,54.8 69.8,54.6 69.3,54.4 68.8,54.2 68.3,54 67.8,53.8 67.2,53.6 66.6,53.3 66,53 c -0.6,-0.3 -1.2,-0.7 -1.7,-1.2 -0.5,-0.5 -0.9,-1 -1.2,-1.6 -0.3,-0.6 -0.5,-1.4 -0.5,-2.2 0,-0.9 0.2,-1.7 0.5,-2.5 0.4,-0.8 0.9,-1.4 1.5,-2 0.7,-0.5 1.5,-1 2.4,-1.3 0.9,-0.3 2,-0.5 3.1,-0.5 1.5,0 2.9,0.3 4,0.8 1.1,0.5 2.1,1.1 3,1.7 l -2.6,3.5 c -0.7,-0.5 -1.4,-0.9 -2.1,-1.2 -0.7,-0.3 -1.4,-0.4 -2.1,-0.4 -1.5,0 -2.2,0.5 -2.2,1.6 0,0.3 0.1,0.6 0.3,0.8 0.2,0.2 0.5,0.4 0.9,0.6 0.4,0.2 0.8,0.4 1.2,0.5 0.5,0.2 1,0.4 1.5,0.5 0.6,0.2 1.3,0.5 1.9,0.8 0.6,0.3 1.2,0.7 1.7,1.1 0.5,0.5 0.9,1 1.3,1.7 0.3,0.7 0.5,1.4 0.5,2.3 0,0.9 -0.2,1.8 -0.5,2.5 -0.3,0.8 -0.9,1.4 -1.6,2 -0.7,0.6 -1.5,1 -2.6,1.4 -1,0.6 -2.2,0.7 -3.5,0.7 z"
             id="path8"
             inkscape:connector-curvature="0"
             style="fill:#dddddd" /></g></g></g></g><g
     id="Camada_2"
     transform="translate(-8.3,-15.4)" /><g
     id="Camada_3"
     transform="translate(-8.3,-15.4)" /><g
     id="Camada_4"
     transform="translate(-8.3,-15.4)" /><g
     id="Camada_5"
     transform="translate(-8.3,-15.4)" /><g
     id="Camada_7"
     transform="translate(-8.3,-15.4)" /><g
     id="Camada_9"
     transform="translate(-8.3,-15.4)" /><g
     id="Camada_8"
     transform="translate(-8.3,-15.4)" /></svg>