<?xml version="1.0" encoding="UTF-8" standalone="no"?>
<!-- Generator: Adobe Illustrator 21.1.0, SVG Export Plug-In . SVG Version: 6.00 Build 0)  -->

<svg
   xmlns:dc="http://purl.org/dc/elements/1.1/"
   xmlns:cc="http://creativecommons.org/ns#"
   xmlns:rdf="http://www.w3.org/1999/02/22-rdf-syntax-ns#"
   xmlns:svg="http://www.w3.org/2000/svg"
   xmlns="http://www.w3.org/2000/svg"
   xmlns:sodipodi="http://sodipodi.sourceforge.net/DTD/sodipodi-0.dtd"
   xmlns:inkscape="http://www.inkscape.org/namespaces/inkscape"
   version="1.1"
   x="0px"
   y="0px"
   viewBox="0 0 69.100001 59.400002"
   enable-background="new 0 0 85.7 78"
   xml:space="preserve"
   id="svg20"
   sodipodi:docname="backoffice-dashboard_icon-pages.svg"
   width="69.099998"
   height="59.400002"
   inkscape:version="0.92.1 r15371"><metadata
     id="metadata26"><rdf:RDF><cc:Work
         rdf:about=""><dc:format>image/svg+xml</dc:format><dc:type
           rdf:resource="http://purl.org/dc/dcmitype/StillImage" /></cc:Work></rdf:RDF></metadata><defs
     id="defs24" /><sodipodi:namedview
     pagecolor="#ffffff"
     bordercolor="#666666"
     borderopacity="1"
     objecttolerance="10"
     gridtolerance="10"
     guidetolerance="10"
     inkscape:pageopacity="0"
     inkscape:pageshadow="2"
     inkscape:window-width="716"
     inkscape:window-height="480"
     id="namedview22"
     showgrid="false"
     inkscape:zoom="3.025641"
     inkscape:cx="34.549998"
     inkscape:cy="29.7"
     inkscape:window-x="0"
     inkscape:window-y="0"
     inkscape:window-maximized="0"
     inkscape:current-layer="svg20" /><g
     id="Camada_1"
     transform="translate(-8.3,-9.3)"><g
       id="g10"><g
         id="g4"><path
           d="m 34.9,27.3 c 0,0.9 0.3,1.6 0.9,2.3 0.6,0.6 1.4,0.9 2.3,0.9 h 18 v 35 c 0,0.9 -0.3,1.6 -0.9,2.3 -0.6,0.6 -1.4,0.9 -2.3,0.9 H 11.5 C 10.6,68.7 9.9,68.4 9.2,67.8 8.6,67.2 8.3,66.4 8.3,65.5 v -53 c 0,-0.9 0.3,-1.6 0.9,-2.3 0.6,-0.6 1.4,-0.9 2.3,-0.9 h 23.3 v 18 z m 4.2,-1 V 10.6 c 0.5,0.3 0.9,0.6 1.2,0.9 L 53.8,25 c 0.3,0.3 0.6,0.7 0.9,1.2 H 39.1 Z"
           id="path2"
           inkscape:connector-curvature="0"
           style="fill:#dddddd" /></g><g
         id="g8"><path
           d="m 77.4,54.3 c 0,0.6 -0.2,1.1 -0.5,1.7 -2.3,3.8 -5.5,6.9 -9.4,9.2 -4,2.3 -8.1,3.5 -12.5,3.5 -4.4,0 -8.6,-1.2 -12.5,-3.5 -4,-2.3 -7.1,-5.4 -9.4,-9.2 -0.3,-0.6 -0.5,-1.2 -0.5,-1.7 0,-0.6 0.2,-1.1 0.5,-1.7 2.3,-3.8 5.5,-6.9 9.4,-9.2 4,-2.3 8.1,-3.5 12.5,-3.5 4.4,0 8.6,1.2 12.5,3.5 4,2.3 7.1,5.4 9.4,9.2 0.3,0.5 0.5,1.1 0.5,1.7 z m -3.2,0 c -2.5,-3.9 -5.7,-6.9 -9.6,-8.8 1,1.7 1.5,3.6 1.5,5.6 0,3.1 -1.1,5.7 -3.3,7.9 -2.2,2.2 -4.8,3.3 -7.9,3.3 -3.1,0 -5.7,-1.1 -7.9,-3.3 -2.2,-2.2 -3.3,-4.8 -3.3,-7.9 0,-2 0.5,-3.9 1.5,-5.6 -3.8,2 -7,4.9 -9.6,8.8 2.2,3.4 5,6.2 8.4,8.2 3.4,2 7,3 10.9,3 3.9,0 7.5,-1 10.9,-3 3.4,-2.1 6.2,-4.8 8.4,-8.2 z M 55.8,45.5 c 0.2,-0.2 0.4,-0.5 0.4,-0.9 0,-0.3 -0.1,-0.6 -0.4,-0.9 -0.2,-0.2 -0.5,-0.4 -0.9,-0.4 -2.1,0 -3.9,0.7 -5.4,2.2 -1.5,1.5 -2.2,3.3 -2.2,5.4 0,0.3 0.1,0.6 0.4,0.9 0.2,0.2 0.5,0.4 0.9,0.4 0.3,0 0.6,-0.1 0.9,-0.4 0.2,-0.2 0.4,-0.5 0.4,-0.9 0,-1.4 0.5,-2.7 1.5,-3.7 1,-1 2.2,-1.5 3.7,-1.5 0.2,0.1 0.5,0 0.7,-0.2 z"
           id="path6"
           inkscape:connector-curvature="0"
           style="fill:#2ea7de" /></g></g></g><g
     id="Camada_2"
     transform="translate(-8.3,-9.3)" /><g
     id="Camada_3"
     transform="translate(-8.3,-9.3)" /><g
     id="Camada_4"
     transform="translate(-8.3,-9.3)" /><g
     id="Camada_5"
     transform="translate(-8.3,-9.3)" /><g
     id="Camada_7"
     transform="translate(-8.3,-9.3)" /><g
     id="Camada_9"
     transform="translate(-8.3,-9.3)" /><g
     id="Camada_8"
     transform="translate(-8.3,-9.3)" /></svg>