<?xml version="1.0" encoding="UTF-8" standalone="no"?>
<!-- Generator: Adobe Illustrator 21.1.0, SVG Export Plug-In . SVG Version: 6.00 Build 0)  -->

<svg
   xmlns:dc="http://purl.org/dc/elements/1.1/"
   xmlns:cc="http://creativecommons.org/ns#"
   xmlns:rdf="http://www.w3.org/1999/02/22-rdf-syntax-ns#"
   xmlns:svg="http://www.w3.org/2000/svg"
   xmlns="http://www.w3.org/2000/svg"
   xmlns:sodipodi="http://sodipodi.sourceforge.net/DTD/sodipodi-0.dtd"
   xmlns:inkscape="http://www.inkscape.org/namespaces/inkscape"
   version="1.1"
   x="0px"
   y="0px"
   viewBox="0 0 65.500002 61.200001"
   enable-background="new 0 0 85.7 78"
   xml:space="preserve"
   id="svg24"
   sodipodi:docname="backoffice-dashboard_icon-users.svg"
   width="65.5"
   height="61.200001"
   inkscape:version="0.92.1 r15371"><metadata
     id="metadata30"><rdf:RDF><cc:Work
         rdf:about=""><dc:format>image/svg+xml</dc:format><dc:type
           rdf:resource="http://purl.org/dc/dcmitype/StillImage" /></cc:Work></rdf:RDF></metadata><defs
     id="defs28" /><sodipodi:namedview
     pagecolor="#ffffff"
     bordercolor="#666666"
     borderopacity="1"
     objecttolerance="10"
     gridtolerance="10"
     guidetolerance="10"
     inkscape:pageopacity="0"
     inkscape:pageshadow="2"
     inkscape:window-width="1920"
     inkscape:window-height="1017"
     id="namedview26"
     showgrid="false"
     inkscape:zoom="3.025641"
     inkscape:cx="32.749998"
     inkscape:cy="30.6"
     inkscape:window-x="-8"
     inkscape:window-y="-8"
     inkscape:window-maximized="1"
     inkscape:current-layer="svg24" /><g
     id="Camada_1"
     transform="translate(-10.1,-8.4)"><g
       id="g14"><path
         d="m 30.3,39 c -3.7,0.1 -6.7,1.6 -9,4.4 h -4.6 c -1.9,0 -3.4,-0.5 -4.7,-1.4 -1.3,-0.9 -1.9,-2.3 -1.9,-4 0,-8 1.4,-12 4.2,-12 0.1,0 0.6,0.2 1.5,0.7 0.9,0.5 2,1 3.3,1.5 1.4,0.5 2.7,0.7 4.1,0.7 1.5,0 3,-0.3 4.5,-0.8 -0.1,0.8 -0.2,1.6 -0.2,2.3 0.1,3 1,5.9 2.8,8.6 z"
         id="path2"
         inkscape:connector-curvature="0"
         style="fill:#dddddd" /><path
         d="m 29.4,11 c 1.7,1.7 2.6,3.8 2.6,6.2 0,2.4 -0.9,4.5 -2.6,6.2 -1.7,1.7 -3.8,2.6 -6.2,2.6 -2.4,0 -4.5,-0.9 -6.2,-2.6 -1.7,-1.7 -2.6,-3.8 -2.6,-6.2 0,-2.4 0.9,-4.5 2.6,-6.2 1.7,-1.7 3.8,-2.6 6.2,-2.6 2.4,0 4.5,0.9 6.2,2.6 z"
         id="path4"
         inkscape:connector-curvature="0"
         style="fill:#dddddd" /><path
         d="m 66.9,60.7 c 0,2.7 -0.8,4.9 -2.5,6.5 -1.7,1.6 -3.9,2.4 -6.6,2.4 H 28 c -2.8,0 -5,-0.8 -6.6,-2.4 -1.7,-1.6 -2.5,-3.7 -2.5,-6.5 0,-1.2 0,-2.4 0.1,-3.5 0.1,-1.1 0.2,-2.4 0.5,-3.7 0.2,-1.3 0.5,-2.6 0.9,-3.7 0.4,-1.1 0.9,-2.2 1.5,-3.3 0.6,-1.1 1.3,-2 2.1,-2.8 0.8,-0.8 1.8,-1.4 2.9,-1.8 1.1,-0.5 2.4,-0.7 3.8,-0.7 0.2,0 0.7,0.2 1.5,0.7 0.8,0.5 1.6,1 2.5,1.6 0.9,0.6 2.1,1.1 3.7,1.6 1.5,0.5 3.1,0.7 4.6,0.7 1.5,0 3.1,-0.2 4.6,-0.7 1.5,-0.5 2.7,-1 3.7,-1.6 0.9,-0.6 1.7,-1.1 2.5,-1.6 0.8,-0.5 1.2,-0.7 1.5,-0.7 1.4,0 2.7,0.2 3.8,0.7 1.1,0.5 2.1,1.1 2.9,1.8 0.8,0.8 1.5,1.7 2.1,2.8 0.6,1.1 1.1,2.2 1.5,3.3 0.4,1.1 0.7,2.4 0.9,3.7 0.2,1.3 0.4,2.6 0.5,3.7 -0.1,1.2 -0.1,2.3 -0.1,3.5 z"
         id="path6"
         inkscape:connector-curvature="0"
         style="fill:#2ea7de" /><path
         d="m 52.1,21 c 2.6,2.6 3.8,5.6 3.8,9.3 0,3.7 -1.3,6.7 -3.8,9.3 -2.6,2.6 -5.6,3.8 -9.3,3.8 -3.6,0 -6.7,-1.3 -9.3,-3.8 -2.6,-2.6 -3.8,-5.6 -3.8,-9.3 0,-3.7 1.3,-6.7 3.8,-9.3 2.6,-2.6 5.6,-3.8 9.3,-3.8 3.7,0 6.8,1.2 9.3,3.8 z"
         id="path8"
         inkscape:connector-curvature="0"
         style="fill:#2ea7de" /><path
         d="m 68.7,11 c 1.7,1.7 2.6,3.8 2.6,6.2 0,2.4 -0.9,4.5 -2.6,6.2 -1.7,1.7 -3.8,2.6 -6.2,2.6 -2.4,0 -4.5,-0.9 -6.2,-2.6 -1.7,-1.7 -2.6,-3.8 -2.6,-6.2 0,-2.4 0.9,-4.5 2.6,-6.2 1.7,-1.7 3.8,-2.6 6.2,-2.6 2.4,0 4.5,0.9 6.2,2.6 z"
         id="path10"
         inkscape:connector-curvature="0"
         style="fill:#dddddd" /><path
         d="m 75.6,37.9 c 0,1.8 -0.6,3.1 -1.9,4 -1.3,0.9 -2.8,1.4 -4.7,1.4 h -4.6 c -2.3,-2.8 -5.4,-4.3 -9,-4.4 1.8,-2.7 2.8,-5.6 2.8,-8.7 0,-0.7 -0.1,-1.4 -0.2,-2.3 1.5,0.5 3,0.8 4.5,0.8 1.3,0 2.7,-0.2 4.1,-0.7 1.4,-0.5 2.5,-1 3.3,-1.5 0.9,-0.5 1.3,-0.7 1.5,-0.7 2.8,0.1 4.2,4.1 4.2,12.1 z"
         id="path12"
         inkscape:connector-curvature="0"
         style="fill:#dddddd" /></g></g><g
     id="Camada_2"
     transform="translate(-10.1,-8.4)" /><g
     id="Camada_3"
     transform="translate(-10.1,-8.4)" /><g
     id="Camada_4"
     transform="translate(-10.1,-8.4)" /><g
     id="Camada_5"
     transform="translate(-10.1,-8.4)" /><g
     id="Camada_7"
     transform="translate(-10.1,-8.4)" /><g
     id="Camada_9"
     transform="translate(-10.1,-8.4)" /><g
     id="Camada_8"
     transform="translate(-10.1,-8.4)" /></svg>