<?xml version="1.0" standalone="no"?>
<!DOCTYPE svg PUBLIC "-//W3C//DTD SVG 20010904//EN"
 "http://www.w3.org/TR/2001/REC-SVG-20010904/DTD/svg10.dtd">
<svg version="1.0" xmlns="http://www.w3.org/2000/svg"
 width="124.000000pt" height="170.000000pt" viewBox="0 0 124.000000 170.000000"
 preserveAspectRatio="xMidYMid meet">
<metadata>
Created by potrace 1.13, written by Peter Selinger 2001-2015
</metadata>
<g transform="translate(0.000000,170.000000) scale(0.100000,-0.100000)"
fill="#000000" stroke="none">
<path d="M463 1452 c-102 -37 -171 -115 -194 -221 -13 -59 -20 -982 -8 -1002
3 -6 51 -9 115 -7 l109 3 3 171 2 170 61 -30 c50 -24 74 -30 132 -30 40 -1 94
5 120 13 69 20 140 87 169 159 22 54 23 70 23 292 0 276 -9 319 -81 399 -67
75 -122 95 -274 98 -101 3 -135 0 -177 -15z m237 -200 c63 -31 74 -70 74 -272
0 -191 -8 -222 -62 -252 -36 -19 -133 -16 -166 5 -25 17 -29 17 -89 -2 -34
-10 -64 -17 -66 -15 -3 2 9 19 27 37 60 63 72 105 72 273 0 140 2 153 23 185
12 18 34 39 47 46 36 18 99 16 140 -5z"/>
</g>
</svg>
