<?xml version="1.0"?>
<svg width="124" height="170" xmlns="http://www.w3.org/2000/svg" preserveAspectRatio="xMidYMid meet">
 <metadata>Created by potrace 1.13, written by Peter Selinger 2001-2015</metadata>
 <g>
  <title>EMPATIA</title>
  <g transform="translate(0,170) scale(0.10000000149011612,-0.10000000149011612) " fill="#000000" id="svg_2">
   <path d="m463,1452c-102,-37 -171,-115 -194,-221c-13,-59 -20,-982 -8,-1002c3,-6 51,-9 115,-7l109,3l3,171l2,170l61,-30c50,-24 74,-30 132,-30c40,-1 94,5 120,13c69,20 140,87 169,159c22,54 23,70 23,292c0,276 -9,319 -81,399c-67,75 -122,95 -274,98c-101,3 -135,0 -177,-15zm237,-200c63,-31 74,-70 74,-272c0,-191 -8,-222 -62,-252c-36,-19 -133,-16 -166,5c-25,17 -29,17 -89,-2c-34,-10 -64,-17 -66,-15c-3,2 9,19 27,37c60,63 72,105 72,273c0,140 2,153 23,185c12,18 34,39 47,46c36,18 99,16 140,-5z" id="svg_3"/>
  </g>
 </g>
</svg>