<?xml version="1.0" encoding="UTF-8" standalone="no"?>
<!-- Generator: Adobe Illustrator 18.0.0, SVG Export Plug-In . SVG Version: 6.00 Build 0)  -->

<svg
   xmlns:dc="http://purl.org/dc/elements/1.1/"
   xmlns:cc="http://creativecommons.org/ns#"
   xmlns:rdf="http://www.w3.org/1999/02/22-rdf-syntax-ns#"
   xmlns:svg="http://www.w3.org/2000/svg"
   xmlns="http://www.w3.org/2000/svg"
   xmlns:sodipodi="http://sodipodi.sourceforge.net/DTD/sodipodi-0.dtd"
   xmlns:inkscape="http://www.inkscape.org/namespaces/inkscape"
   version="1.1"
   x="0px"
   y="0px"
   width="64.800003"
   height="88.800003"
   viewBox="0 0 64.800003 88.800006"
   enable-background="new 0 0 93 95.7"
   xml:space="preserve"
   id="svg23"
   sodipodi:docname="backoffice_icon-logged.svg"
   inkscape:version="0.92.1 r15371"><metadata
     id="metadata29"><rdf:RDF><cc:Work
         rdf:about=""><dc:format>image/svg+xml</dc:format><dc:type
           rdf:resource="http://purl.org/dc/dcmitype/StillImage" /></cc:Work></rdf:RDF></metadata><defs
     id="defs27" /><sodipodi:namedview
     pagecolor="#ffffff"
     bordercolor="#666666"
     borderopacity="1"
     objecttolerance="10"
     gridtolerance="10"
     guidetolerance="10"
     inkscape:pageopacity="0"
     inkscape:pageshadow="2"
     inkscape:window-width="716"
     inkscape:window-height="480"
     id="namedview25"
     showgrid="false"
     inkscape:zoom="2.4660398"
     inkscape:cx="32.4"
     inkscape:cy="44.350004"
     inkscape:window-x="0"
     inkscape:window-y="0"
     inkscape:window-maximized="0"
     inkscape:current-layer="svg23" /><g
     id="Camada_1"
     transform="translate(-14.1,-3.3999996)"><g
       id="g16"><g
         id="g6"><path
           d="M 53.8,34.4 H 51.3 C 48.2,36.6 44.4,38 40.2,38 36.1,38 32.3,36.7 29.1,34.4 h -2.5 c -2,0 -12.5,5.3 -12.5,7.6 v 40.4 c 0,2.2 1.8,4.1 4.1,4.1 h 4.1 c 0.2,0 0.3,0 0.5,0 0.4,1.8 2,3.1 3.9,3.1 h 27.2 c 1.9,0 3.5,-1.3 3.9,-3.1 0.2,0 0.3,0 0.5,0 h 4.1 c 2.2,0 4.1,-1.8 4.1,-4.1 V 42 C 66.4,39.7 55.9,34.4 53.8,34.4 Z"
           id="path2"
           inkscape:connector-curvature="0"
           style="fill:#dddddd" /><circle
           cx="40.200001"
           cy="19"
           r="15.6"
           id="circle4"
           style="fill:#dddddd" /></g><g
         id="g14"><circle
           cx="55"
           cy="68.300003"
           r="23.9"
           id="circle8"
           style="fill:#6bb45e" /><g
           id="g12"><path
             d="m 70.2,62.4 -14.7,14.7 -2.8,2.8 c -0.4,0.4 -0.9,0.6 -1.4,0.6 -0.5,0 -1,-0.2 -1.4,-0.6 l -2.8,-2.8 -7.4,-7.4 c -0.4,-0.4 -0.6,-0.9 -0.6,-1.4 0,-0.5 0.2,-1 0.6,-1.4 l 2.8,-2.8 c 0.4,-0.4 0.9,-0.6 1.4,-0.6 0.5,0 1,0.2 1.4,0.6 l 6,6 13.3,-13.3 c 0.4,-0.4 0.9,-0.6 1.4,-0.6 0.5,0 1,0.2 1.4,0.6 l 2.8,2.8 c 0.4,0.4 0.6,0.9 0.6,1.4 0,0.5 -0.2,1 -0.6,1.4 z"
             id="path10"
             inkscape:connector-curvature="0"
             style="fill:#ffffff" /></g></g></g></g><g
     id="Camada_2"
     transform="translate(-14.1,-3.3999996)" /><g
     id="Camada_3"
     transform="translate(-14.1,-3.3999996)" /><g
     id="Camada_4"
     transform="translate(-14.1,-3.3999996)" /><g
     id="Camada_5"
     transform="translate(-14.1,-3.3999996)" /></svg>