<?xml version="1.0" encoding="UTF-8" standalone="no"?>
<!-- Created with Inkscape (http://www.inkscape.org/) -->

<svg
   xmlns:dc="http://purl.org/dc/elements/1.1/"
   xmlns:cc="http://creativecommons.org/ns#"
   xmlns:rdf="http://www.w3.org/1999/02/22-rdf-syntax-ns#"
   xmlns:svg="http://www.w3.org/2000/svg"
   xmlns="http://www.w3.org/2000/svg"
   xmlns:sodipodi="http://sodipodi.sourceforge.net/DTD/sodipodi-0.dtd"
   xmlns:inkscape="http://www.inkscape.org/namespaces/inkscape"
   width="46.07172mm"
   height="12.136223mm"
   viewBox="0 0 163.24625 43.002364"
   id="svg5866"
   version="1.1"
   inkscape:version="0.91 r13725"
   sodipodi:docname="empatia_logo.svg">
  <defs
     id="defs5868">
    <clipPath
       clipPathUnits="userSpaceOnUse"
       id="clipPath3888">
      <path
         d="m 0,5865 1280,0 L 1280,0 0,0 0,5865 Z"
         id="path3890"
         inkscape:connector-curvature="0" />
    </clipPath>
  </defs>
  <sodipodi:namedview
     id="base"
     pagecolor="#ffffff"
     bordercolor="#666666"
     borderopacity="1.0"
     inkscape:pageopacity="0.0"
     inkscape:pageshadow="2"
     inkscape:zoom="0.35"
     inkscape:cx="-241.94831"
     inkscape:cy="-327.07028"
     inkscape:document-units="px"
     inkscape:current-layer="g3886"
     showgrid="false"
     fit-margin-top="0"
     fit-margin-left="0"
     fit-margin-right="0"
     fit-margin-bottom="0"
     inkscape:window-width="1600"
     inkscape:window-height="837"
     inkscape:window-x="-8"
     inkscape:window-y="-8"
     inkscape:window-maximized="1" />
  <metadata
     id="metadata5871">
    <rdf:RDF>
      <cc:Work
         rdf:about="">
        <dc:format>image/svg+xml</dc:format>
        <dc:type
           rdf:resource="http://purl.org/dc/dcmitype/StillImage" />
        <dc:title></dc:title>
      </cc:Work>
    </rdf:RDF>
  </metadata>
  <g
     inkscape:label="Layer 1"
     inkscape:groupmode="layer"
     id="layer1"
     transform="translate(-189.80545,-162.28956)">
    <g
       transform="matrix(1.25,0,0,-1.25,100.4302,7403.7383)"
       id="g3884">
      <g
         id="g3886"
         clip-path="url(#clipPath3888)">
        <g
           id="g3892"
           transform="translate(136.4062,5772.9941)">
          <path
             d="m 0,0 c 0,-2.569 -1.142,-3.497 -3.176,-3.532 -1.091,0 -1.94,0.309 -2.508,0.932 -1.071,-0.472 -2.313,-0.829 -3.68,-1.06 1.568,1.06 2.588,2.413 2.85,3.994 0.008,0.046 0.014,0.09 0.02,0.135 l 0,4.526 c 0,2.534 0.714,3.997 3.211,3.997 C -1.356,8.992 0,7.993 0,4.96 L 0,0 Z m -3.283,13.345 c -5.352,0 -8.099,-2.427 -8.099,-8.242 l 0,-19.34 4.888,0 0,8.1 c 1.07,-1.321 2.926,-1.856 4.602,-1.856 4.568,0 6.78,2.89 6.78,7.422 l 0,5.638 c 0,5.851 -2.854,8.278 -8.171,8.278 M 54.273,-1.784 c 0,-1.392 1.213,-1.856 2.89,-1.856 2.855,0 3.64,2.07 3.854,4.175 -4.996,0.499 -6.744,-0.642 -6.744,-2.319 m -3.997,7.743 c -0.321,5.245 2.498,7.351 7.53,7.351 5.495,0 7.885,-2.748 7.885,-8.207 l 0,-12.953 -3.996,0 -0.464,2.426 c -1.178,-1.641 -3.176,-2.712 -5.531,-2.712 -3.461,0 -6.065,1.999 -6.065,5.959 0,4.96 4.138,6.923 11.382,6.423 0,3.141 -0.607,4.71 -3.176,4.71 -2.141,0 -2.926,-0.749 -2.89,-2.997 l -4.675,0 z m -4.496,-13.845 -4.888,0 0,20.624 4.888,0 0,-20.624 z m 0.358,25.334 c 0,-3.568 -5.532,-3.603 -5.532,0 0,3.64 5.532,3.605 5.532,0 m -17.413,-0.606 4.888,0.535 0,-4.104 3.568,0 0,-4.46 -3.568,0 0,-8.884 c 0,-2.32 0.357,-3.89 3.639,-3.497 l 0,-4.282 c -6.208,-0.678 -8.527,1.463 -8.527,7.707 l 0,16.985 z M 12.988,-1.784 c 0,-1.392 1.214,-1.856 2.891,-1.856 2.854,0 3.639,2.07 3.853,4.175 -4.995,0.499 -6.744,-0.642 -6.744,-2.319 M 8.992,5.959 c -0.321,5.245 2.498,7.351 7.529,7.351 5.495,0 7.885,-2.748 7.885,-8.207 l 0,-12.953 -3.996,0 -0.464,2.426 c -1.177,-1.641 -3.175,-2.712 -5.53,-2.712 -3.461,0 -6.066,1.999 -6.066,5.959 0,4.96 4.139,6.923 11.382,6.423 0,3.141 -0.606,4.71 -3.175,4.71 -2.141,0 -2.926,-0.749 -2.891,-2.997 l -4.674,0 z m -53.023,7.243 4.245,0 0.322,-2.14 c 1.177,1.534 3.068,2.319 4.959,2.248 2.07,0 4.175,-0.679 5.174,-2.677 1.106,1.641 3.319,2.712 5.995,2.712 4.353,0 6.958,-2.533 6.958,-8.242 l 0,-12.953 -4.889,0 0,12.953 c 0,2.711 -1.106,3.817 -3.14,3.817 -1.855,0 -3.247,-0.784 -3.318,-3.781 l 0,-12.989 -4.889,0 0,12.953 c 0,2.711 -1.106,3.817 -3.139,3.817 -1.892,0 -3.39,-0.927 -3.39,-3.639 l 0,-13.131 -4.888,0 0,21.052 z m -15.951,-8.278 6.672,0 c 0,2.64 -0.499,4.103 -3.282,4.103 -2.89,0 -3.39,-1.57 -3.39,-4.103 m 11.418,-6.316 c 0,-4.424 -2.641,-6.529 -8.171,-6.529 -5.531,0 -8.171,2.533 -8.171,8.206 l 0,4.782 c 0,5.281 2.64,8.206 8.171,8.206 5.53,0 8.171,-2.533 8.171,-8.206 l 0,-4.175 -11.418,0 0,-0.536 c 0,-3.389 1.32,-4.032 3.318,-4.032 2.319,0 3.283,0.822 3.283,2.284 l 4.817,0 z"
             style="fill:#8cc63f;fill-opacity:1;fill-rule:nonzero;stroke:none"
             id="path3894"
             inkscape:connector-curvature="0" />
        </g>
      </g>
    </g>
  </g>
</svg>
