<?xml version="1.0" encoding="utf-8"?>
<!-- Generator: Adobe Illustrator 18.0.0, SVG Export Plug-In . SVG Version: 6.00 Build 0)  -->
<!DOCTYPE svg PUBLIC "-//W3C//DTD SVG 1.1//EN" "http://www.w3.org/Graphics/SVG/1.1/DTD/svg11.dtd">
<svg version="1.1" id="Camada_1" xmlns="http://www.w3.org/2000/svg" xmlns:xlink="http://www.w3.org/1999/xlink" x="0px" y="0px"
	 width="171px" height="39px" viewBox="0 0 171 39" enable-background="new 0 0 171 39" xml:space="preserve">
<g>
	<text transform="matrix(1 0 0 1 5.516 29.1073)" fill="#727272" font-family="'MyriadPro-SemiboldIt'" font-size="28.9208">by</text>
	<path fill="#727272" d="M56.6,23.2c0,4.2-2.5,6.2-7.8,6.2c-5.3,0-7.8-2.4-7.8-7.8V17c0-5,2.5-7.8,7.8-7.8c5.3,0,7.8,2.4,7.8,7.8v4
		H45.8v0.5c0,3.2,1.3,3.8,3.2,3.8c2.2,0,3.1-0.8,3.1-2.2H56.6z M45.8,17.2h6.4c0-2.5-0.5-3.9-3.1-3.9C46.2,13.3,45.8,14.8,45.8,17.2
		z M61,9.3h4l0.3,2c1.1-1.5,2.9-2.2,4.7-2.1c2,0,4,0.6,4.9,2.6c1.1-1.6,3.2-2.6,5.7-2.6c4.1,0,6.6,2.4,6.6,7.9v12.3h-4.7V17
		c0-2.6-1.1-3.6-3-3.6c-1.8,0-3.1,0.7-3.2,3.6v12.4h-4.7V17c0-2.6-1.1-3.6-3-3.6c-1.8,0-3.2,0.9-3.2,3.5v12.5H61V9.3z M111.5,16.2
		c-0.3-5,2.4-7,7.2-7c5.2,0,7.5,2.6,7.5,7.8v12.3h-3.8l-0.4-2.3c-1.1,1.6-3,2.6-5.3,2.6c-3.3,0-5.8-1.9-5.8-5.7
		c0-4.7,3.9-6.6,10.8-6.1c0-3-0.6-4.5-3-4.5c-2,0-2.8,0.7-2.8,2.9H111.5z M115.3,23.6c0,1.3,1.2,1.8,2.8,1.8c2.7,0,3.5-2,3.7-4
		C117,20.9,115.3,22,115.3,23.6z M130.3,5.8l4.7-0.5v3.9h3.4v4.3h-3.4v8.5c0,2.2,0.3,3.7,3.5,3.3v4.1c-5.9,0.6-8.1-1.4-8.1-7.3V5.8z
		 M146.9,5.3c0,3.4-5.3,3.4-5.3,0C141.6,1.8,146.9,1.8,146.9,5.3z M146.5,29.4h-4.7V9.7h4.7V29.4z M150.8,16.2c-0.3-5,2.4-7,7.2-7
		c5.2,0,7.5,2.6,7.5,7.8v12.3h-3.8l-0.4-2.3c-1.1,1.6-3,2.6-5.3,2.6c-3.3,0-5.8-1.9-5.8-5.7c0-4.7,3.9-6.6,10.8-6.1
		c0-3-0.6-4.5-3-4.5c-2,0-2.8,0.7-2.8,2.9H150.8z M154.6,23.6c0,1.3,1.2,1.8,2.8,1.8c2.7,0,3.5-2,3.7-4
		C156.3,20.9,154.6,22,154.6,23.6z M99.8,9.2c-5.1,0-7.7,2.3-7.7,7.9v18.4h4.7v-7.7c1,1.3,2.8,1.8,4.4,1.8c4.4,0,6.5-2.8,6.5-7.1V17
		C107.6,11.5,104.9,9.2,99.8,9.2z M102.9,21.9c0,2.4-1.1,3.3-3,3.4c-1,0-1.8-0.3-2.4-0.9c-1,0.5-2.2,0.8-3.5,1
		c1.5-1,2.5-2.3,2.7-3.8c0,0,0-0.1,0-0.1v-4.3c0-2.4,0.7-3.8,3.1-3.8c1.8,0,3.1,1,3.1,3.8V21.9z"/>
</g>
</svg>
