<?xml version="1.0" encoding="utf-8"?>
<!-- Generator: Adobe Illustrator 22.0.1, SVG Export Plug-In . SVG Version: 6.00 Build 0)  -->
<svg version="1.1" xmlns="http://www.w3.org/2000/svg" xmlns:xlink="http://www.w3.org/1999/xlink" x="0px" y="0px"
	 viewBox="0 0 192.4 173.4" style="enable-background:new 0 0 192.4 173.4;" xml:space="preserve">
<style type="text/css">
	.st0{fill:#80B941;}
	.st1{fill:#C3C3C3;}
	.st2{fill-rule:evenodd;clip-rule:evenodd;fill:#231F20;}
	.st3{fill:#231F20;}
	.st4{fill:#DC2C2C;}
	.st5{fill:#404041;}
	.st6{fill:#FFFFFF;stroke:#2EA8DF;stroke-width:4.3004;stroke-linecap:round;stroke-linejoin:round;stroke-miterlimit:10;}
	.st7{fill:#2EA8DF;stroke:#FFFFFF;stroke-width:10.4776;stroke-linecap:round;stroke-linejoin:round;stroke-miterlimit:10;}
	.st8{fill:#FFFFFF;stroke:#2EA8DF;stroke-width:4.5392;stroke-linecap:round;stroke-linejoin:round;stroke-miterlimit:10;}
	.st9{fill:#2EA8DF;}
	.st10{fill:#FFFFFF;stroke:#2EA8DF;stroke-width:1.9357;stroke-miterlimit:10;}
	.st11{fill:#FFFFFF;}
	.st12{fill:none;stroke:#2EA8DF;stroke-width:1.1802;stroke-miterlimit:10;}
	.st13{fill:#FFFFFF;stroke:#2EA8DF;stroke-width:1.1802;stroke-miterlimit:10;}
	.st14{fill:#30A7DE;}
	.st15{fill:#E1E1E1;}
	.st16{fill:none;stroke:#30A7DE;stroke-width:4;stroke-miterlimit:10;}
	.st17{fill:#B9B9B9;}
	.st18{fill:#2EA8DF;stroke:#FFFFFF;stroke-width:15.285;stroke-linecap:round;stroke-linejoin:round;stroke-miterlimit:10;}
	.st19{fill:#2EA8DF;stroke:#2EA8DF;stroke-width:6.2735;stroke-linecap:round;stroke-linejoin:round;stroke-miterlimit:10;}
	.st20{fill:#E1E1E1;stroke:#2EA8DF;stroke-width:6.6219;stroke-linecap:round;stroke-linejoin:round;stroke-miterlimit:10;}
	.st21{fill:#FFFFFF;stroke:#2EA8DF;stroke-width:2.8239;stroke-miterlimit:10;}
	.st22{fill:none;stroke:#2EA8DF;stroke-width:1.7217;stroke-miterlimit:10;}
	.st23{fill:#FFFFFF;stroke:#2EA8DF;stroke-width:1.7217;stroke-miterlimit:10;}
	.st24{fill:#F3F3F3;}
	.st25{fill:#487013;}
	.st26{fill:#F1F1F1;}
	.st27{fill:#333333;}
	.st28{fill-rule:evenodd;clip-rule:evenodd;fill:#FFFFFF;}
	.st29{fill:none;stroke:#80B941;stroke-width:3;stroke-miterlimit:10;}
	.st30{fill:#666666;}
	.st31{fill-rule:evenodd;clip-rule:evenodd;fill:#909090;}
	.st32{fill:#909090;}
	.st33{fill-rule:evenodd;clip-rule:evenodd;fill:#C3C3C3;}
	.st34{display:none;}
	.st35{display:inline;}
	.st36{fill:none;stroke:#C3C3C3;stroke-width:3.2359;stroke-miterlimit:10;}
	.st37{fill:none;stroke:#C3C3C3;stroke-width:4;stroke-miterlimit:10;}
	.st38{fill-rule:evenodd;clip-rule:evenodd;fill:#80B941;}
	.st39{fill-rule:evenodd;clip-rule:evenodd;fill:none;stroke:#E0E0E0;stroke-width:0.7966;stroke-miterlimit:10;}
	.st40{fill:#CECECE;}
	.st41{fill:#828282;}
	.st42{opacity:0.7;}
	.st43{fill:#24A8EA;}
	.st44{opacity:0.8;}
	.st45{display:inline;fill:#FFFFFF;}
	.st46{fill:#E6ED4F;}
	.st47{fill:#FFFFFF;stroke:#80B941;stroke-width:10;stroke-linejoin:bevel;stroke-miterlimit:10;}
	.st48{fill:none;stroke:#80B941;stroke-width:6;stroke-miterlimit:10;}
	.st49{fill:#FFFFFF;stroke:#80B941;stroke-width:6;stroke-miterlimit:10;}
	.st50{opacity:0.6;fill:#FFFFFF;}
</style>
<g id="Layer_1">
</g>
<g id="Layer_2">
</g>
<g id="Layer_3">
	<g>
		<rect x="77.5" y="90.7" class="st43" width="37" height="2.5"/>
		
			<rect x="86" y="99.2" transform="matrix(0.7071 -0.7071 0.7071 0.7071 -57.2234 95.9735)" class="st43" width="2.5" height="35.8"/>
		
			<rect x="69.4" y="65.5" transform="matrix(0.7071 -0.7071 0.7071 0.7071 -21.663 81.2455)" class="st43" width="35.8" height="2.5"/>
		<g>
			<circle class="st43" cx="49.9" cy="73.4" r="10.7"/>
			<path class="st43" d="M50.1,105.6c6.7,0,12.7-4.6,16.6-11.7c-1.1-4.9-3.5-9-6.9-11.8c-2.4,2.7-5.9,4.5-9.9,4.5s-7.5-1.7-9.9-4.5
				c-3.2,2.7-5.7,6.7-6.8,11.4C37.2,100.8,43.2,105.6,50.1,105.6z"/>
		</g>
		<g>
			<g>
				<circle class="st1" cx="118.2" cy="124.8" r="10.7"/>
			</g>
			<g>
				<path class="st1" d="M118.3,157c6.7,0,12.7-4.6,16.6-11.7c-1.1-4.9-3.5-9-6.9-11.8c-2.4,2.7-5.9,4.5-9.9,4.5
					c-3.9,0-7.5-1.7-9.9-4.5c-3.2,2.7-5.7,6.7-6.8,11.4C105.4,152.2,111.5,157,118.3,157z"/>
			</g>
		</g>
		<g>
			<g>
				<circle class="st1" cx="142.3" cy="73.4" r="10.7"/>
			</g>
			<g>
				<path class="st1" d="M142.5,105.6c6.7,0,12.7-4.6,16.6-11.7c-1.1-4.9-3.5-9-6.9-11.8c-2.4,2.7-5.9,4.5-9.9,4.5s-7.5-1.7-9.9-4.5
					c-3.2,2.7-5.7,6.7-6.8,11.4C129.6,100.9,135.7,105.6,142.5,105.6z"/>
			</g>
		</g>
		<g>
			<g>
				<circle class="st1" cx="118.2" cy="25.9" r="9.5"/>
			</g>
			<g>
				<path class="st1" d="M118.3,54.3c5.9,0,11.2-4,14.6-10.3c-0.9-4.3-3.1-8-6-10.5c-2.1,2.4-5.2,4-8.7,4s-6.6-1.5-8.7-4
					c-2.8,2.4-5,6-6,10.1C106.9,50.1,112.3,54.3,118.3,54.3z"/>
			</g>
		</g>
	</g>
</g>
<g id="Layer_4">
</g>
</svg>
