<?xml version="1.0" encoding="utf-8"?>
<!-- Generator: Adobe Illustrator 22.0.1, SVG Export Plug-In . SVG Version: 6.00 Build 0)  -->
<svg version="1.1" xmlns="http://www.w3.org/2000/svg" xmlns:xlink="http://www.w3.org/1999/xlink" x="0px" y="0px"
	 viewBox="0 0 192.4 173.4" style="enable-background:new 0 0 192.4 173.4;" xml:space="preserve">
<style type="text/css">
	.st0{fill:#80B941;}
	.st1{fill:#C3C3C3;}
	.st2{fill-rule:evenodd;clip-rule:evenodd;fill:#231F20;}
	.st3{fill:#231F20;}
	.st4{fill:#DC2C2C;}
	.st5{fill:#404041;}
	.st6{fill:#FFFFFF;stroke:#2EA8DF;stroke-width:4.3004;stroke-linecap:round;stroke-linejoin:round;stroke-miterlimit:10;}
	.st7{fill:#2EA8DF;stroke:#FFFFFF;stroke-width:10.4776;stroke-linecap:round;stroke-linejoin:round;stroke-miterlimit:10;}
	.st8{fill:#FFFFFF;stroke:#2EA8DF;stroke-width:4.5392;stroke-linecap:round;stroke-linejoin:round;stroke-miterlimit:10;}
	.st9{fill:#2EA8DF;}
	.st10{fill:#FFFFFF;stroke:#2EA8DF;stroke-width:1.9357;stroke-miterlimit:10;}
	.st11{fill:#FFFFFF;}
	.st12{fill:none;stroke:#2EA8DF;stroke-width:1.1802;stroke-miterlimit:10;}
	.st13{fill:#FFFFFF;stroke:#2EA8DF;stroke-width:1.1802;stroke-miterlimit:10;}
	.st14{fill:#30A7DE;}
	.st15{fill:#E1E1E1;}
	.st16{fill:none;stroke:#30A7DE;stroke-width:4;stroke-miterlimit:10;}
	.st17{fill:#B9B9B9;}
	.st18{fill:#2EA8DF;stroke:#FFFFFF;stroke-width:15.285;stroke-linecap:round;stroke-linejoin:round;stroke-miterlimit:10;}
	.st19{fill:#2EA8DF;stroke:#2EA8DF;stroke-width:6.2735;stroke-linecap:round;stroke-linejoin:round;stroke-miterlimit:10;}
	.st20{fill:#E1E1E1;stroke:#2EA8DF;stroke-width:6.6219;stroke-linecap:round;stroke-linejoin:round;stroke-miterlimit:10;}
	.st21{fill:#FFFFFF;stroke:#2EA8DF;stroke-width:2.8239;stroke-miterlimit:10;}
	.st22{fill:none;stroke:#2EA8DF;stroke-width:1.7217;stroke-miterlimit:10;}
	.st23{fill:#FFFFFF;stroke:#2EA8DF;stroke-width:1.7217;stroke-miterlimit:10;}
	.st24{fill:#F3F3F3;}
	.st25{fill:#487013;}
	.st26{fill:#F1F1F1;}
	.st27{fill:#333333;}
	.st28{fill-rule:evenodd;clip-rule:evenodd;fill:#FFFFFF;}
	.st29{fill:none;stroke:#80B941;stroke-width:3;stroke-miterlimit:10;}
	.st30{fill:#666666;}
	.st31{fill-rule:evenodd;clip-rule:evenodd;fill:#909090;}
	.st32{fill:#909090;}
	.st33{fill-rule:evenodd;clip-rule:evenodd;fill:#C3C3C3;}
	.st34{display:none;}
	.st35{display:inline;}
	.st36{fill:none;stroke:#C3C3C3;stroke-width:3.2359;stroke-miterlimit:10;}
	.st37{fill:none;stroke:#C3C3C3;stroke-width:4;stroke-miterlimit:10;}
	.st38{fill-rule:evenodd;clip-rule:evenodd;fill:#80B941;}
	.st39{fill-rule:evenodd;clip-rule:evenodd;fill:none;stroke:#E0E0E0;stroke-width:0.7966;stroke-miterlimit:10;}
	.st40{fill:#CECECE;}
	.st41{fill:#828282;}
	.st42{opacity:0.7;}
	.st43{fill:#24A8EA;}
	.st44{opacity:0.8;}
	.st45{display:inline;fill:#FFFFFF;}
	.st46{fill:#E6ED4F;}
	.st47{fill:#FFFFFF;stroke:#80B941;stroke-width:10;stroke-linejoin:bevel;stroke-miterlimit:10;}
	.st48{fill:none;stroke:#80B941;stroke-width:6;stroke-miterlimit:10;}
	.st49{fill:#FFFFFF;stroke:#80B941;stroke-width:6;stroke-miterlimit:10;}
	.st50{opacity:0.6;fill:#FFFFFF;}
</style>
<g id="Layer_1">
</g>
<g id="Layer_2">
</g>
<g id="Layer_3">
	<g>
		<rect x="80.2" y="60.7" class="st11" width="25.6" height="77.1"/>
		<path class="st1" d="M118,134.4h-6.2V55.8c0-0.8-0.6-1.4-1.4-1.4H82c-0.4,0-0.7,0.2-1,0.4l-3.2,3.5c-0.1,0.1-0.1,0.2-0.2,0.3
			c0,0.1-0.1,0.1-0.1,0.2c-0.1,0.2-0.1,0.3-0.1,0.5v0v75h-5.2c-1.4,0-2.8,0.6-3.8,1.7l-1.1,1.1c-0.2,0.3-0.4,0.5-0.6,0.8
			c-0.4,0.2-0.8,0.7-0.8,1.2v1.2v0.3v7.8v2.6v1.2c0,0.8,0.6,1.4,1.4,1.4h1.2h2.6h45.7h0.4h1.2c0.6,0,1.1-0.4,1.3-0.9
			c0.3-0.2,0.6-0.5,0.9-0.7l1.1-1.1c0.9-1,1.4-2.2,1.4-3.5v-7.8C123.1,136.7,120.8,134.4,118,134.4z"/>
		<rect x="80.2" y="60.7" class="st11" width="25.6" height="77.1"/>
		<path class="st43" d="M128.2,89.2l-0.2-1c-0.4-2.4-2.4-4.1-4.8-4.1h-2H97.8c-2.1,0-3.9,1.3-4.6,3.3l-3.3,9.4
			c-0.3,0.8-0.3,1.6-0.2,2.4l0.2,1c0.4,2.4,2.4,4.1,4.8,4.1h25.4c2.1,0,3.9-1.3,4.6-3.3l3.3-9.4C128.3,90.8,128.3,90,128.2,89.2z"/>
		<path class="st1" d="M148.9,22.3l-2.4-1.8c-0.8-0.6-1.7-0.9-2.7-0.9H61.3c-2,0-3.8,1.4-4.4,3.3l-14,52.2c-0.1,0.5,0.1,1.1,0.5,1.5
			l2.4,1.8c0.8,0.6,1.7,0.9,2.7,0.9h82.5c2,0,3.8-1.4,4.4-3.3l14-52.2C149.6,23.2,149.4,22.6,148.9,22.3z"/>
		<path class="st11" d="M46.9,73.5c0.3,0.4,0.9,0.7,1.4,0.7h79.5c0.8,0,1.5-0.5,1.7-1.3l12.9-48.3c0.1-0.5,0-1.1-0.3-1.5
			c-0.3-0.4-0.9-0.7-1.4-0.7H61.3c-0.8,0-1.5,0.5-1.7,1.3L46.6,72C46.5,72.5,46.6,73.1,46.9,73.5z"/>
		<path class="st11" d="M135.6,28.1c-0.3-0.4-0.9-0.7-1.4-0.7H65.1c-0.8,0-1.5,0.5-1.7,1.3L53.2,66.9v0c-0.1,0.5,0,1.1,0.3,1.5
			c0.3,0.4,0.8,0.7,1.4,0.7H124c0.8,0,1.5-0.5,1.7-1.3l10.2-38.1C136.1,29.1,136,28.6,135.6,28.1z"/>
		<path class="st1" d="M124,71.9H54.9c-1.4,0-2.7-0.6-3.6-1.8c-0.9-1.1-1.1-2.6-0.8-3.9L60.8,28c0.5-2,2.3-3.3,4.4-3.3h69.1
			c1.4,0,2.7,0.6,3.6,1.8c0.9,1.1,1.1,2.5,0.8,3.9l-10.2,38.1C127.8,70.5,126,71.9,124,71.9z M65.1,27.4c-0.8,0-1.5,0.5-1.7,1.3
			L53.2,66.9v0c-0.1,0.5,0,1.1,0.3,1.5c0.3,0.4,0.8,0.7,1.4,0.7H124c0.8,0,1.5-0.5,1.7-1.3l10.2-38.1c0.1-0.5,0-1.1-0.3-1.5
			c-0.3-0.4-0.9-0.7-1.4-0.7H65.1z M51.9,66.5L51.9,66.5L51.9,66.5z"/>
		<path class="st11" d="M123,87.7c-0.4-0.6-1-0.9-1.7-0.9H97.8c-0.9,0-1.7,0.6-2,1.4l-1.9,5.6c-0.2,0.7-0.1,1.4,0.3,1.9
			c0.4,0.6,1,0.9,1.7,0.9h23.4c0.9,0,1.7-0.6,2-1.4l1.9-5.6C123.5,89,123.4,88.2,123,87.7z"/>
		<ellipse transform="matrix(0.95 -0.3122 0.3122 0.95 -22.7319 36.9622)" class="st43" cx="104.1" cy="89.5" rx="2.3" ry="1.5"/>
		<ellipse transform="matrix(0.95 -0.3122 0.3122 0.95 -24.2406 36.4902)" class="st43" cx="101.8" cy="93.9" rx="2.3" ry="1.5"/>
		<ellipse transform="matrix(0.95 -0.3122 0.3122 0.95 -22.1354 40.6876)" class="st43" cx="116" cy="89.5" rx="2.3" ry="1.5"/>
		<ellipse transform="matrix(0.95 -0.3122 0.3122 0.95 -23.6441 40.2156)" class="st43" cx="113.8" cy="93.9" rx="2.3" ry="1.5"/>
		<rect x="68.7" y="140.6" class="st11" width="48.5" height="10.4"/>
	</g>
</g>
<g id="Layer_4">
</g>
</svg>
