<?xml version="1.0" encoding="utf-8"?>
<!-- Generator: Adobe Illustrator 22.0.1, SVG Export Plug-In . SVG Version: 6.00 Build 0)  -->
<svg version="1.1" xmlns="http://www.w3.org/2000/svg" xmlns:xlink="http://www.w3.org/1999/xlink" x="0px" y="0px"
	 viewBox="0 0 192.4 173.4" style="enable-background:new 0 0 192.4 173.4;" xml:space="preserve">
<style type="text/css">
	.st0{fill:#80B941;}
	.st1{fill:#C3C3C3;}
	.st2{fill-rule:evenodd;clip-rule:evenodd;fill:#231F20;}
	.st3{fill:#231F20;}
	.st4{fill:#DC2C2C;}
	.st5{fill:#404041;}
	.st6{fill:#FFFFFF;stroke:#2EA8DF;stroke-width:4.3004;stroke-linecap:round;stroke-linejoin:round;stroke-miterlimit:10;}
	.st7{fill:#2EA8DF;stroke:#FFFFFF;stroke-width:10.4776;stroke-linecap:round;stroke-linejoin:round;stroke-miterlimit:10;}
	.st8{fill:#FFFFFF;stroke:#2EA8DF;stroke-width:4.5392;stroke-linecap:round;stroke-linejoin:round;stroke-miterlimit:10;}
	.st9{fill:#2EA8DF;}
	.st10{fill:#FFFFFF;stroke:#2EA8DF;stroke-width:1.9357;stroke-miterlimit:10;}
	.st11{fill:#FFFFFF;}
	.st12{fill:none;stroke:#2EA8DF;stroke-width:1.1802;stroke-miterlimit:10;}
	.st13{fill:#FFFFFF;stroke:#2EA8DF;stroke-width:1.1802;stroke-miterlimit:10;}
	.st14{fill:#30A7DE;}
	.st15{fill:#E1E1E1;}
	.st16{fill:none;stroke:#30A7DE;stroke-width:4;stroke-miterlimit:10;}
	.st17{fill:#B9B9B9;}
	.st18{fill:#2EA8DF;stroke:#FFFFFF;stroke-width:15.285;stroke-linecap:round;stroke-linejoin:round;stroke-miterlimit:10;}
	.st19{fill:#2EA8DF;stroke:#2EA8DF;stroke-width:6.2735;stroke-linecap:round;stroke-linejoin:round;stroke-miterlimit:10;}
	.st20{fill:#E1E1E1;stroke:#2EA8DF;stroke-width:6.6219;stroke-linecap:round;stroke-linejoin:round;stroke-miterlimit:10;}
	.st21{fill:#FFFFFF;stroke:#2EA8DF;stroke-width:2.8239;stroke-miterlimit:10;}
	.st22{fill:none;stroke:#2EA8DF;stroke-width:1.7217;stroke-miterlimit:10;}
	.st23{fill:#FFFFFF;stroke:#2EA8DF;stroke-width:1.7217;stroke-miterlimit:10;}
	.st24{fill:#F3F3F3;}
	.st25{fill:#487013;}
	.st26{fill:#F1F1F1;}
	.st27{fill:#333333;}
	.st28{fill-rule:evenodd;clip-rule:evenodd;fill:#FFFFFF;}
	.st29{fill:none;stroke:#80B941;stroke-width:3;stroke-miterlimit:10;}
	.st30{fill:#666666;}
	.st31{fill-rule:evenodd;clip-rule:evenodd;fill:#909090;}
	.st32{fill:#909090;}
	.st33{fill-rule:evenodd;clip-rule:evenodd;fill:#C3C3C3;}
	.st34{display:none;}
	.st35{display:inline;}
	.st36{fill:none;stroke:#C3C3C3;stroke-width:3.2359;stroke-miterlimit:10;}
	.st37{fill:none;stroke:#C3C3C3;stroke-width:4;stroke-miterlimit:10;}
	.st38{fill-rule:evenodd;clip-rule:evenodd;fill:#80B941;}
	.st39{fill-rule:evenodd;clip-rule:evenodd;fill:none;stroke:#E0E0E0;stroke-width:0.7966;stroke-miterlimit:10;}
	.st40{fill:#CECECE;}
	.st41{fill:#828282;}
	.st42{opacity:0.7;}
	.st43{fill:#24A8EA;}
	.st44{opacity:0.8;}
	.st45{display:inline;fill:#FFFFFF;}
	.st46{fill:#E6ED4F;}
	.st47{fill:#FFFFFF;stroke:#80B941;stroke-width:10;stroke-linejoin:bevel;stroke-miterlimit:10;}
	.st48{fill:none;stroke:#80B941;stroke-width:6;stroke-miterlimit:10;}
	.st49{fill:#FFFFFF;stroke:#80B941;stroke-width:6;stroke-miterlimit:10;}
	.st50{opacity:0.6;fill:#FFFFFF;}
</style>
<g id="Layer_1">
</g>
<g id="Layer_2">
</g>
<g id="Layer_3">
	<g>
		<g>
			<circle class="st43" cx="54.9" cy="149.1" r="8.5"/>
			<circle class="st43" cx="96.2" cy="149.1" r="8.5"/>
			<rect x="107.5" y="146.6" class="st43" width="18.6" height="5"/>
			<rect x="66.2" y="146.6" class="st43" width="18.6" height="5"/>
			<circle class="st43" cx="137.5" cy="149.1" r="8.5"/>
		</g>
		<g>
			<path class="st11" d="M144.6,131.5H47.8c-2.3,0-4.1-1.8-4.1-4.1V68.9c0-2.3,1.8-4.1,4.1-4.1h96.8c2.3,0,4.1,1.8,4.1,4.1v58.5
				C148.7,129.7,146.8,131.5,144.6,131.5z"/>
			<path class="st11" d="M147.7,67.8H44.7c-1.7,0-3.1-1-3.8-2.5c-0.6-1.5-0.3-3.3,0.9-4.5l16.1-16.4c0.8-0.8,1.8-1.2,2.9-1.2h70.8
				c1.1,0,2.2,0.4,2.9,1.2l16.1,16.4c1.2,1.2,1.5,2.9,0.9,4.5C150.9,66.8,149.4,67.8,147.7,67.8z"/>
			<g>
				<path class="st1" d="M144.6,128.8H47.8c-0.8,0-1.4-0.6-1.4-1.4V68.9c0-0.8,0.6-1.4,1.4-1.4h96.8c0.8,0,1.4,0.6,1.4,1.4v58.5
					C146,128.2,145.4,128.8,144.6,128.8z M49.2,126h94V70.3h-94V126z"/>
			</g>
			<g>
				<polygon class="st11" points="147.7,63.7 44.7,63.7 60.8,47.3 131.6,47.3 				"/>
				<path class="st1" d="M147.7,65.2H44.7c-0.6,0-1.1-0.4-1.4-0.9c-0.2-0.6-0.1-1.2,0.3-1.6l16.1-16.4c0.3-0.3,0.7-0.4,1.1-0.4h70.8
					c0.4,0,0.8,0.2,1.1,0.4l16.1,16.4c0.4,0.4,0.5,1.1,0.3,1.6C148.9,64.9,148.3,65.2,147.7,65.2z M48.2,62.3h96L131,48.8H61.4
					L48.2,62.3z"/>
			</g>
			<g>
				<polygon class="st43" points="124.9,55.6 67.4,55.6 69.1,53 123.3,53 				"/>
				<polygon class="st43" points="123.3,53 69.1,53 67.4,55.6 124.9,55.6 123.3,53 				"/>
			</g>
			<g>
				<rect x="79.3" y="17.7" class="st43" width="31.9" height="36.7"/>
				<path class="st11" d="M88.1,28h-5.2v-5.2h5.2V28z M83.6,27.2h3.7v-3.7h-3.7V27.2z"/>
				<path class="st11" d="M88.1,35.3h-5.2v-5.2h5.2V35.3z M83.6,34.5h3.7v-3.7h-3.7V34.5z"/>
				<path class="st11" d="M88.1,42.7h-5.2v-5.2h5.2V42.7z M83.6,41.9h3.7v-3.7h-3.7V41.9z"/>
				<path class="st11" d="M88.1,50h-5.2v-5.2h5.2V50z M83.6,49.2h3.7v-3.7h-3.7V49.2z"/>
				<rect x="90.5" y="24.7" class="st11" width="17.4" height="1.3"/>
				<rect x="90.5" y="32.1" class="st11" width="17.4" height="1.3"/>
				<rect x="90.5" y="39.4" class="st11" width="17.4" height="1.3"/>
				<rect x="90.5" y="46.8" class="st11" width="17.4" height="1.3"/>
				<g>
					<g>
						<line class="st43" x1="83.9" y1="23.8" x2="87" y2="26.9"/>
						
							<rect x="85.1" y="23.1" transform="matrix(0.7071 -0.7071 0.7071 0.7071 7.1022 67.8507)" class="st11" width="0.8" height="4.4"/>
					</g>
					<g>
						<line class="st43" x1="87" y1="23.8" x2="83.9" y2="26.9"/>
						
							<rect x="83.2" y="25" transform="matrix(0.7076 -0.7066 0.7066 0.7076 7.0715 67.794)" class="st11" width="4.4" height="0.8"/>
					</g>
				</g>
			</g>
		</g>
	</g>
</g>
<g id="Layer_4">
</g>
</svg>
