<?xml version="1.0" encoding="utf-8"?>
<!-- Generator: Adobe Illustrator 22.0.1, SVG Export Plug-In . SVG Version: 6.00 Build 0)  -->
<svg version="1.1" xmlns="http://www.w3.org/2000/svg" xmlns:xlink="http://www.w3.org/1999/xlink" x="0px" y="0px"
	 viewBox="0 0 192.4 173.4" style="enable-background:new 0 0 192.4 173.4;" xml:space="preserve">
<style type="text/css">
	.st0{fill:#80B941;}
	.st1{fill:#C3C3C3;}
	.st2{fill-rule:evenodd;clip-rule:evenodd;fill:#231F20;}
	.st3{fill:#231F20;}
	.st4{fill:#DC2C2C;}
	.st5{fill:#404041;}
	.st6{fill:#FFFFFF;stroke:#2EA8DF;stroke-width:4.3004;stroke-linecap:round;stroke-linejoin:round;stroke-miterlimit:10;}
	.st7{fill:#2EA8DF;stroke:#FFFFFF;stroke-width:10.4776;stroke-linecap:round;stroke-linejoin:round;stroke-miterlimit:10;}
	.st8{fill:#FFFFFF;stroke:#2EA8DF;stroke-width:4.5392;stroke-linecap:round;stroke-linejoin:round;stroke-miterlimit:10;}
	.st9{fill:#2EA8DF;}
	.st10{fill:#FFFFFF;stroke:#2EA8DF;stroke-width:1.9357;stroke-miterlimit:10;}
	.st11{fill:#FFFFFF;}
	.st12{fill:none;stroke:#2EA8DF;stroke-width:1.1802;stroke-miterlimit:10;}
	.st13{fill:#FFFFFF;stroke:#2EA8DF;stroke-width:1.1802;stroke-miterlimit:10;}
	.st14{fill:#30A7DE;}
	.st15{fill:#E1E1E1;}
	.st16{fill:none;stroke:#30A7DE;stroke-width:4;stroke-miterlimit:10;}
	.st17{fill:#B9B9B9;}
	.st18{fill:#2EA8DF;stroke:#FFFFFF;stroke-width:15.285;stroke-linecap:round;stroke-linejoin:round;stroke-miterlimit:10;}
	.st19{fill:#2EA8DF;stroke:#2EA8DF;stroke-width:6.2735;stroke-linecap:round;stroke-linejoin:round;stroke-miterlimit:10;}
	.st20{fill:#E1E1E1;stroke:#2EA8DF;stroke-width:6.6219;stroke-linecap:round;stroke-linejoin:round;stroke-miterlimit:10;}
	.st21{fill:#FFFFFF;stroke:#2EA8DF;stroke-width:2.8239;stroke-miterlimit:10;}
	.st22{fill:none;stroke:#2EA8DF;stroke-width:1.7217;stroke-miterlimit:10;}
	.st23{fill:#FFFFFF;stroke:#2EA8DF;stroke-width:1.7217;stroke-miterlimit:10;}
	.st24{fill:#F3F3F3;}
	.st25{fill:#487013;}
	.st26{fill:#F1F1F1;}
	.st27{fill:#333333;}
	.st28{fill-rule:evenodd;clip-rule:evenodd;fill:#FFFFFF;}
	.st29{fill:none;stroke:#80B941;stroke-width:3;stroke-miterlimit:10;}
	.st30{fill:#666666;}
	.st31{fill-rule:evenodd;clip-rule:evenodd;fill:#909090;}
	.st32{fill:#909090;}
	.st33{fill-rule:evenodd;clip-rule:evenodd;fill:#C3C3C3;}
	.st34{display:none;}
	.st35{display:inline;}
	.st36{fill:none;stroke:#C3C3C3;stroke-width:3.2359;stroke-miterlimit:10;}
	.st37{fill:none;stroke:#C3C3C3;stroke-width:4;stroke-miterlimit:10;}
	.st38{fill-rule:evenodd;clip-rule:evenodd;fill:#80B941;}
	.st39{fill-rule:evenodd;clip-rule:evenodd;fill:none;stroke:#E0E0E0;stroke-width:0.7966;stroke-miterlimit:10;}
	.st40{fill:#CECECE;}
	.st41{fill:#828282;}
	.st42{opacity:0.7;}
	.st43{fill:#24A8EA;}
	.st44{opacity:0.8;}
	.st45{display:inline;fill:#FFFFFF;}
	.st46{fill:#E6ED4F;}
	.st47{fill:#FFFFFF;stroke:#80B941;stroke-width:10;stroke-linejoin:bevel;stroke-miterlimit:10;}
	.st48{fill:none;stroke:#80B941;stroke-width:6;stroke-miterlimit:10;}
	.st49{fill:#FFFFFF;stroke:#80B941;stroke-width:6;stroke-miterlimit:10;}
	.st50{opacity:0.6;fill:#FFFFFF;}
</style>
<g id="Layer_1">
</g>
<g id="Layer_2">
</g>
<g id="Layer_3">
	<g>
		<path class="st1" d="M97.2,25v108.3H13.7V25H97.2 M99.9,22.4H11.1v113.6h88.8V22.4L99.9,22.4z"/>
		<g>
			<polygon class="st11" points="23.8,31.1 23.8,144.7 112.6,144.7 112.6,57 86.7,31.1 			"/>
			<path class="st1" d="M85.6,33.8L110,58.1V142H26.5V33.8H85.6 M86.7,31.1H23.8v113.6h88.8V57L86.7,31.1L86.7,31.1z"/>
		</g>
		<g>
			<polygon class="st33" points="86.7,31.1 112.6,57 86.7,57 			"/>
		</g>
		<g>
			<g>
				<path class="st1" d="M103.6,71.8H32.8V40.3h54.5v16.1h16.2V71.8z M34.2,70.4h68.1V57.7H86.1V41.6H34.2V70.4z"/>
			</g>
			
				<rect x="67.6" y="18.2" transform="matrix(0.3984 -0.9172 0.9172 0.3984 -10.3378 96.2693)" class="st1" width="1.3" height="75.7"/>
			
				<rect x="31.1" y="58.9" transform="matrix(0.9172 -0.3985 0.3985 0.9172 -18.7464 28.8874)" class="st1" width="58" height="1.3"/>
		</g>
		<rect x="32.8" y="75.6" class="st33" width="70.8" height="3.4"/>
		<rect x="32.8" y="83.8" class="st33" width="70.8" height="3.4"/>
		<rect x="32.8" y="92.1" class="st33" width="70.8" height="3.4"/>
		<path class="st1" d="M104.3,136.7H69.5v-34.9h34.9V136.7z M70.8,135.4H103v-32.2H70.8V135.4z"/>
		
			<rect x="63.2" y="118.6" transform="matrix(0.7071 -0.7071 0.7071 0.7071 -58.9096 96.3861)" class="st1" width="47.5" height="1.3"/>
		
			<rect x="86.1" y="95.6" transform="matrix(0.7071 -0.7071 0.7071 0.7071 -58.8725 96.2978)" class="st1" width="1.3" height="47.2"/>
		<rect x="32.8" y="100.3" class="st33" width="26.8" height="3.4"/>
		<rect x="32.8" y="108.6" class="st33" width="26.8" height="3.4"/>
		<rect x="32.8" y="116.9" class="st33" width="26.8" height="3.4"/>
		<rect x="32.8" y="125.1" class="st33" width="26.8" height="3.4"/>
		<rect x="32.8" y="133.4" class="st33" width="26.8" height="3.4"/>
		<g class="st34">
			<g class="st35">
				<polygon class="st43" points="140.3,52 158.9,70.7 121.6,107.9 103,107.9 103,89.3 				"/>
				<path class="st11" d="M140.3,52l18.6,18.6l-37.3,37.3H103V89.3L140.3,52 M140.3,44.7l-3.6,3.6L99.4,85.7l-1.5,1.5v2.1v18.6v5.1
					h5.1h18.6h2.1l1.5-1.5l37.3-37.3l3.6-3.6l-3.6-3.6l-18.6-18.6L140.3,44.7L140.3,44.7z"/>
			</g>
			<g class="st35">
				<polygon class="st11" points="119.3,102.2 123.3,98.1 112.8,87.6 108.7,91.7 108.7,96.5 114.5,96.5 114.5,102.2 				"/>
			</g>
			<g class="st35">
				<path class="st11" d="M142.7,60.6c0-0.7-0.3-1-1-1c-0.3,0-0.6,0.1-0.8,0.3l-24.3,24.3c-0.2,0.2-0.3,0.5-0.3,0.8c0,0.7,0.3,1,1,1
					c0.3,0,0.6-0.1,0.8-0.3l24.3-24.3C142.6,61.2,142.7,60.9,142.7,60.6z"/>
			</g>
			<g class="st35">
				<path class="st43" d="M170.9,56.3c0,1.6-0.6,2.9-1.7,4l-7.4,7.4l-18.6-18.6l7.4-7.4c1.1-1.1,2.4-1.7,4-1.7
					c1.6,0,2.9,0.6,4.1,1.7l10.5,10.5C170.3,53.4,170.9,54.8,170.9,56.3z"/>
				<path class="st11" d="M154.6,40c1.6,0,2.9,0.6,4.1,1.7l10.5,10.5c1.1,1.2,1.7,2.5,1.7,4.1c0,1.6-0.6,2.9-1.7,4l-7.4,7.4
					l-18.6-18.6l7.4-7.4C151.7,40.6,153,40,154.6,40 M154.6,34.9c-3,0-5.7,1.1-7.7,3.2l-7.4,7.3l-3.7,3.6l3.6,3.6l18.6,18.6l3.6,3.6
					l3.6-3.6l7.4-7.4c2.1-2.1,3.2-4.7,3.2-7.7c0-2.9-1.1-5.5-3.1-7.6l-0.1-0.1l-0.1-0.1l-10.5-10.5C160.2,36,157.6,34.9,154.6,34.9
					L154.6,34.9z"/>
			</g>
		</g>
		<g>
			<g>
				<path class="st43" d="M173.8,98.8v11.3c0,0.4-0.1,0.8-0.4,1.2c-0.3,0.4-0.6,0.6-1,0.7l-9.4,1.4c-0.6,1.8-1.3,3.4-2,4.6
					c1.2,1.7,3,4,5.5,7c0.3,0.4,0.5,0.8,0.5,1.3s-0.2,0.8-0.5,1.2c-0.9,1.3-2.6,3.1-5.1,5.5c-2.4,2.4-4,3.6-4.8,3.6
					c-0.4,0-0.9-0.2-1.3-0.5l-7-5.5c-1.5,0.8-3,1.4-4.6,1.9c-0.5,4.6-1,7.8-1.5,9.5c-0.2,0.9-0.8,1.4-1.8,1.4H129
					c-0.5,0-0.9-0.1-1.3-0.4c-0.4-0.3-0.6-0.7-0.6-1.1l-1.4-9.4c-1.7-0.5-3.2-1.2-4.6-1.9l-7.2,5.5c-0.3,0.3-0.8,0.5-1.3,0.5
					c-0.5,0-0.9-0.2-1.3-0.6c-4.3-3.9-7.1-6.7-8.4-8.6c-0.2-0.3-0.4-0.7-0.4-1.2c0-0.4,0.1-0.8,0.4-1.2c0.5-0.7,1.4-1.8,2.6-3.4
					s2.1-2.7,2.8-3.6c-0.9-1.7-1.6-3.4-2.1-5.1l-9.3-1.4c-0.4-0.1-0.8-0.3-1.1-0.6c-0.3-0.4-0.4-0.8-0.4-1.2V98.6
					c0-0.4,0.1-0.8,0.4-1.2c0.3-0.4,0.6-0.6,1-0.7l9.5-1.4c0.5-1.6,1.1-3.1,2-4.7c-1.4-1.9-3.2-4.3-5.5-7c-0.3-0.4-0.5-0.8-0.5-1.2
					c0-0.3,0.1-0.7,0.5-1.2c0.9-1.2,2.6-3.1,5-5.5c2.5-2.4,4.1-3.7,4.8-3.7c0.4,0,0.9,0.2,1.3,0.5l7,5.5c1.5-0.8,3-1.4,4.6-1.9
					c0.5-4.6,1-7.8,1.5-9.5c0.2-1,0.9-1.4,1.8-1.4h11.3c0.5,0,0.9,0.1,1.3,0.4c0.4,0.3,0.6,0.7,0.6,1.1l1.4,9.4
					c1.7,0.5,3.2,1.2,4.6,1.9l7.2-5.5c0.3-0.3,0.7-0.5,1.2-0.5c0.4,0,0.9,0.2,1.3,0.5c4.4,4,7.2,6.9,8.4,8.7
					c0.2,0.3,0.4,0.6,0.4,1.1c0,0.4-0.1,0.8-0.4,1.2c-0.5,0.7-1.4,1.8-2.6,3.4c-1.2,1.5-2.1,2.7-2.8,3.6c0.9,1.7,1.6,3.4,2.1,5
					l9.3,1.4c0.4,0.1,0.8,0.3,1.1,0.6C173.7,98,173.8,98.4,173.8,98.8z"/>
				<path class="st11" d="M140.3,65.2c0.5,0,0.9,0.1,1.3,0.4c0.4,0.3,0.6,0.7,0.6,1.1l1.4,9.4c1.7,0.5,3.2,1.2,4.6,1.9l7.2-5.5
					c0.3-0.3,0.7-0.5,1.2-0.5c0.4,0,0.9,0.2,1.3,0.5c4.4,4,7.2,6.9,8.4,8.7c0.2,0.3,0.4,0.6,0.4,1.1c0,0.4-0.1,0.8-0.4,1.2
					c-0.5,0.7-1.4,1.8-2.6,3.4c-1.2,1.5-2.1,2.7-2.8,3.6c0.9,1.7,1.6,3.4,2.1,5l9.3,1.4c0.4,0.1,0.8,0.3,1.1,0.6
					c0.3,0.4,0.4,0.8,0.4,1.2v11.3c0,0.4-0.1,0.8-0.4,1.2c-0.3,0.4-0.6,0.6-1,0.7l-9.4,1.4c-0.6,1.8-1.3,3.4-2,4.6
					c1.2,1.7,3,4,5.5,7c0.3,0.4,0.5,0.8,0.5,1.3c0,0.4-0.2,0.8-0.5,1.2c-0.9,1.3-2.6,3.1-5.1,5.5c-2.4,2.4-4,3.6-4.8,3.6
					c-0.4,0-0.9-0.2-1.3-0.5l-7-5.5c-1.5,0.8-3,1.4-4.6,1.9c-0.5,4.6-1,7.8-1.5,9.5c-0.2,0.9-0.8,1.4-1.8,1.4H129
					c-0.5,0-0.9-0.1-1.3-0.4c-0.4-0.3-0.6-0.7-0.6-1.1l-1.4-9.4c-1.7-0.5-3.2-1.2-4.6-1.9l-7.2,5.5c-0.3,0.3-0.8,0.5-1.3,0.5
					c-0.5,0-0.9-0.2-1.3-0.6c-4.3-3.9-7.1-6.7-8.4-8.6c-0.2-0.3-0.4-0.7-0.4-1.2c0-0.4,0.1-0.8,0.4-1.2c0.5-0.7,1.4-1.8,2.6-3.4
					s2.1-2.7,2.8-3.6c-0.9-1.7-1.6-3.4-2.1-5.1l-9.3-1.4c-0.4-0.1-0.8-0.3-1.1-0.6c-0.3-0.4-0.4-0.8-0.4-1.2V98.6
					c0-0.4,0.1-0.8,0.4-1.2c0.3-0.4,0.6-0.6,1-0.7l9.5-1.4c0.5-1.6,1.1-3.1,2-4.7c-1.4-1.9-3.2-4.3-5.5-7c-0.3-0.4-0.5-0.8-0.5-1.2
					c0-0.3,0.1-0.7,0.5-1.2c0.9-1.2,2.6-3.1,5-5.5c2.5-2.4,4.1-3.7,4.8-3.7c0.4,0,0.9,0.2,1.3,0.5l7,5.5c1.5-0.8,3-1.4,4.6-1.9
					c0.5-4.6,1-7.8,1.5-9.5c0.2-1,0.9-1.4,1.8-1.4H140.3 M140.3,57.7H129c-4.4,0-8,2.8-9.1,7.1c-0.2,0.7-0.4,1.5-0.5,2.5l-0.8-0.6
					l0,0l0,0c-1.8-1.3-3.8-2-5.9-2c-3.5,0-6.2,2-10.1,5.8c-2.8,2.8-4.7,4.8-5.8,6.4l-0.1,0.1l0,0.1c-1.2,1.7-1.8,3.5-1.8,5.4
					c0,2.2,0.8,4.2,2.2,6c0.2,0.2,0.4,0.5,0.6,0.7l-2,0.3l-0.1,0l-0.1,0c-2.3,0.4-4.3,1.7-5.7,3.6l0,0l0,0c-1.2,1.6-1.8,3.6-1.8,5.6
					v11.3c0,2.1,0.7,4.1,1.9,5.7c1.4,1.9,3.5,3.1,5.8,3.5l0,0l0,0l2.1,0.3c-0.4,0.5-0.7,1-1,1.4c-1.2,1.6-1.8,3.6-1.8,5.5
					c0,2,0.6,3.8,1.7,5.4l0,0.1l0,0.1c1.7,2.3,4.6,5.4,9.4,9.7c1.8,1.7,4,2.6,6.4,2.6c2.2,0,4.3-0.7,5.9-2.1l0.9-0.7l0.2,1.6
					c0.3,2.3,1.4,4.4,3.3,6c1.7,1.4,3.7,2.1,5.9,2.1h11.3c4.4,0,8-2.8,9.1-7c0.2-0.7,0.4-1.5,0.5-2.5l0.8,0.6l0.3,0.2l0.3,0.2
					c1.7,1.1,3.5,1.7,5.4,1.7c3.5,0,6.3-2.1,10-5.8c2.7-2.7,4.5-4.6,5.7-6.2c1.3-1.6,2-3.7,2-5.8c0-2.2-0.8-4.3-2.2-6
					c-0.2-0.2-0.4-0.5-0.6-0.7l1.9-0.3l0.1,0l0.1,0c2.3-0.4,4.4-1.7,5.8-3.6c1.2-1.7,1.8-3.6,1.8-5.6V98.8c0-2.1-0.7-4-1.9-5.7l0,0
					l0,0c-1.4-1.9-3.5-3.1-5.8-3.5l-2.2-0.3c0.4-0.5,0.7-1,1-1.4c1.2-1.7,1.8-3.6,1.8-5.5c0-2.1-0.6-4.1-1.9-5.6
					c-1-1.4-3.2-4-9.3-9.6l-0.2-0.1l-0.2-0.1c-1.8-1.4-3.8-2.2-6-2.2c-2.2,0-4.3,0.8-6,2.2l-0.9,0.7l-0.2-1.6
					c-0.3-2.4-1.4-4.5-3.3-6C144.6,58.4,142.5,57.7,140.3,57.7L140.3,57.7z"/>
			</g>
			<path class="st11" d="M143.9,113.6c2.5-2.5,3.8-5.6,3.8-9.2c0-3.6-1.3-6.7-3.8-9.2c-2.5-2.5-5.6-3.8-9.2-3.8
				c-3.6,0-6.7,1.3-9.2,3.8c-2.6,2.6-3.8,5.6-3.8,9.2c0,3.6,1.3,6.7,3.8,9.2c2.5,2.5,5.6,3.8,9.2,3.8
				C138.3,117.4,141.3,116.1,143.9,113.6z"/>
		</g>
	</g>
</g>
<g id="Layer_4">
</g>
</svg>
