<?xml version="1.0" encoding="utf-8"?>
<!-- Generator: Adobe Illustrator 22.0.1, SVG Export Plug-In . SVG Version: 6.00 Build 0)  -->
<svg version="1.1" id="Layer_1" xmlns="http://www.w3.org/2000/svg" xmlns:xlink="http://www.w3.org/1999/xlink" x="0px" y="0px"
	 viewBox="0 0 192.4 173.4" style="enable-background:new 0 0 192.4 173.4;" xml:space="preserve">
<style type="text/css">
	.st0{fill:#C3C3C3;}
	.st1{fill:#24A8EA;}
	.st2{fill:#FFFFFF;}
</style>
<g id="Layer_1_1_">
</g>
<g id="Layer_2_1_">
</g>
<g id="Layer_3">
	<g>
		<g>
			<path class="st0" d="M131.5,66.5c0,3-0.9,5.9-2.8,8.7c-1.9,2.7-4.2,5.1-7,7c-14.4,10-23.3,16.2-26.8,18.6
				c-0.4,0.3-1.2,0.9-2.4,1.8c-1.2,0.9-2.3,1.6-3.1,2.2c-0.8,0.6-1.8,1.2-3,1.9c-1.2,0.7-2.3,1.2-3.3,1.5s-2,0.5-2.9,0.5h-0.1H80
				c-0.9,0-1.8-0.2-2.9-0.5c-1-0.3-2.1-0.9-3.3-1.5c-1.2-0.7-2.2-1.3-3-1.9s-1.9-1.3-3.1-2.2c-1.2-0.9-2.1-1.5-2.4-1.8
				c-3.5-2.4-8.5-5.9-15-10.5S39.8,83,38.5,82.1c-2.4-1.6-4.6-3.8-6.7-6.6c-2.1-2.8-3.2-5.4-3.2-7.8c0-3,0.8-5.5,2.4-7.5
				s3.8-3,6.8-3h84.4c2.5,0,4.6,0.9,6.5,2.7C130.6,61.8,131.5,64,131.5,66.5z M131.5,83.3v45.5c0,2.5-0.9,4.7-2.7,6.5
				s-4,2.7-6.5,2.7H37.9c-2.5,0-4.7-0.9-6.5-2.7s-2.7-4-2.7-6.5V83.3c1.7,1.9,3.6,3.5,5.8,5c13.8,9.4,23.3,16,28.5,19.8
				c2.2,1.6,3.9,2.9,5.3,3.8s3.2,1.8,5.4,2.8c2.3,0.9,4.4,1.4,6.3,1.4h0.1h0.1c1.9,0,4.1-0.5,6.3-1.4c2.3-0.9,4.1-1.9,5.4-2.8
				c1.4-0.9,3.1-2.1,5.3-3.8c6.5-4.7,16-11.3,28.6-19.8C127.9,86.8,129.8,85.2,131.5,83.3z"/>
		</g>
		<g>
			<path class="st1" d="M126.1,35.3c-20.7,0-37.5,16.8-37.5,37.5s16.8,37.5,37.5,37.5s37.5-16.8,37.5-37.5S146.8,35.3,126.1,35.3
				L126.1,35.3z"/>
			<path class="st2" d="M126.1,101.8c-16,0-29-13-29-29s13-29,29-29s29,13,29,29S142.1,101.8,126.1,101.8z"/>
			<g>
				<path class="st1" d="M129.9,92.2h-4.3V64.6c0-2.3,0.1-4.5,0.2-6.5c-0.4,0.4-0.8,0.8-1.2,1.2c-0.5,0.4-2.6,2.1-6.3,5.2l-2.3-3
					l10.2-7.9h3.7L129.9,92.2L129.9,92.2z"/>
			</g>
		</g>
	</g>
</g>
<g id="Layer_4">
</g>
</svg>
