<?xml version="1.0" encoding="utf-8"?>
<!-- Generator: Adobe Illustrator 22.0.1, SVG Export Plug-In . SVG Version: 6.00 Build 0)  -->
<svg version="1.1" xmlns="http://www.w3.org/2000/svg" xmlns:xlink="http://www.w3.org/1999/xlink" x="0px" y="0px"
	 viewBox="0 0 192.4 173.4" style="enable-background:new 0 0 192.4 173.4;" xml:space="preserve">
<style type="text/css">
	.st0{fill:#80B941;}
	.st1{fill:#C3C3C3;}
	.st2{fill-rule:evenodd;clip-rule:evenodd;fill:#231F20;}
	.st3{fill:#231F20;}
	.st4{fill:#DC2C2C;}
	.st5{fill:#404041;}
	.st6{fill:#FFFFFF;stroke:#2EA8DF;stroke-width:4.3004;stroke-linecap:round;stroke-linejoin:round;stroke-miterlimit:10;}
	.st7{fill:#2EA8DF;stroke:#FFFFFF;stroke-width:10.4776;stroke-linecap:round;stroke-linejoin:round;stroke-miterlimit:10;}
	.st8{fill:#FFFFFF;stroke:#2EA8DF;stroke-width:4.5392;stroke-linecap:round;stroke-linejoin:round;stroke-miterlimit:10;}
	.st9{fill:#2EA8DF;}
	.st10{fill:#FFFFFF;stroke:#2EA8DF;stroke-width:1.9357;stroke-miterlimit:10;}
	.st11{fill:#FFFFFF;}
	.st12{fill:none;stroke:#2EA8DF;stroke-width:1.1802;stroke-miterlimit:10;}
	.st13{fill:#FFFFFF;stroke:#2EA8DF;stroke-width:1.1802;stroke-miterlimit:10;}
	.st14{fill:#30A7DE;}
	.st15{fill:#E1E1E1;}
	.st16{fill:none;stroke:#30A7DE;stroke-width:4;stroke-miterlimit:10;}
	.st17{fill:#B9B9B9;}
	.st18{fill:#2EA8DF;stroke:#FFFFFF;stroke-width:15.285;stroke-linecap:round;stroke-linejoin:round;stroke-miterlimit:10;}
	.st19{fill:#2EA8DF;stroke:#2EA8DF;stroke-width:6.2735;stroke-linecap:round;stroke-linejoin:round;stroke-miterlimit:10;}
	.st20{fill:#E1E1E1;stroke:#2EA8DF;stroke-width:6.6219;stroke-linecap:round;stroke-linejoin:round;stroke-miterlimit:10;}
	.st21{fill:#FFFFFF;stroke:#2EA8DF;stroke-width:2.8239;stroke-miterlimit:10;}
	.st22{fill:none;stroke:#2EA8DF;stroke-width:1.7217;stroke-miterlimit:10;}
	.st23{fill:#FFFFFF;stroke:#2EA8DF;stroke-width:1.7217;stroke-miterlimit:10;}
	.st24{fill:#F3F3F3;}
	.st25{fill:#487013;}
	.st26{fill:#F1F1F1;}
	.st27{fill:#333333;}
	.st28{fill-rule:evenodd;clip-rule:evenodd;fill:#FFFFFF;}
	.st29{fill:none;stroke:#80B941;stroke-width:3;stroke-miterlimit:10;}
	.st30{fill:#666666;}
	.st31{fill-rule:evenodd;clip-rule:evenodd;fill:#909090;}
	.st32{fill:#909090;}
	.st33{fill-rule:evenodd;clip-rule:evenodd;fill:#C3C3C3;}
	.st34{display:none;}
	.st35{display:inline;}
	.st36{fill:none;stroke:#C3C3C3;stroke-width:3.2359;stroke-miterlimit:10;}
	.st37{fill:none;stroke:#C3C3C3;stroke-width:4;stroke-miterlimit:10;}
	.st38{fill-rule:evenodd;clip-rule:evenodd;fill:#80B941;}
	.st39{fill-rule:evenodd;clip-rule:evenodd;fill:none;stroke:#E0E0E0;stroke-width:0.7966;stroke-miterlimit:10;}
	.st40{fill:#CECECE;}
	.st41{fill:#828282;}
	.st42{opacity:0.7;}
	.st43{fill:#24A8EA;}
	.st44{opacity:0.8;}
	.st45{display:inline;fill:#FFFFFF;}
	.st46{fill:#E6ED4F;}
	.st47{fill:#FFFFFF;stroke:#80B941;stroke-width:10;stroke-linejoin:bevel;stroke-miterlimit:10;}
	.st48{fill:none;stroke:#80B941;stroke-width:6;stroke-miterlimit:10;}
	.st49{fill:#FFFFFF;stroke:#80B941;stroke-width:6;stroke-miterlimit:10;}
	.st50{opacity:0.6;fill:#FFFFFF;}
</style>
<g id="Layer_1">
</g>
<g id="Layer_2">
</g>
<g id="Layer_3">
	<g>
		<g>
			<circle class="st1" cx="86.2" cy="50" r="31"/>
		</g>
		<g>
			<path class="st1" d="M111.9,111.1c0.4-6.4,3.3-12.4,8.3-16.6c2.3-1.9,4.9-3.4,7.7-4.4c-3.5-6.3-7.9-11.8-13.1-16.2
				c-2.9,3.3-15.7,14.5-15.7,14.5l-7-2.5l-5.9,13.5L80.3,86l-7,2.5c0,0-12.8-11.2-15.7-14.5c-9.6,8.1-16.7,20.2-19.8,34.3
				c9.6,17.7,23.7,30,39.8,33.1L111.9,111.1z"/>
		</g>
		<g>
			<path class="st43" d="M99,154.4L99,154.4c-0.4,0-0.8-0.1-1.1-0.2c-0.6-0.2-12.8-4.9-16.2-7l-1.8-1.1l37.1-32.6
				c-0.2-5.8,2.1-11.3,6.5-15.1c3.4-2.9,7.8-4.5,12.2-4.5c5.5,0,10.7,2.4,14.3,6.6c3.3,3.8,4.9,8.7,4.5,13.7
				c-0.4,5-2.7,9.6-6.5,12.9c-3.4,2.9-7.7,4.5-12.2,4.5c-4,0-7.9-1.3-11.1-3.6l-1.3,1.1l0,3.5c0.1,0.9-0.1,1.9-0.7,2.6
				c-0.9,1.1-2.4,1.5-3.7,1l-3.2-1.1l0.6,3.4c0.2,1-0.1,2-0.7,2.8c-0.9,1.1-2.4,1.5-3.7,1l-3.2-1.1l0.6,3.3c0.2,1-0.1,2-0.7,2.8
				c-0.9,1.1-2.4,1.5-3.7,1l-3.2-1.1l0.6,3.4c0.2,1-0.1,2-0.7,2.8C101,153.9,100.1,154.4,99,154.4z M85.2,145.5
				c4.6,2.2,13.7,5.7,13.8,5.7l0,0l0,0c0.1,0,0.1,0,0.2-0.1l-1.6-8.8l2.5,0.8l5.8,2c0.2,0,0.2,0,0.3-0.1l-1.6-8.8l8.3,2.9
				c0.2,0,0.2,0,0.3-0.1l-1.6-8.9l8.3,2.9c0.2,0,0.2,0,0.3-0.1l0-0.1l0-0.3l0-5.1l4.3-3.7l1,0.9c2.8,2.4,6.4,3.7,10.1,3.7
				c3.7,0,7.3-1.3,10.2-3.8c3.2-2.7,5.1-6.5,5.5-10.7c0.3-4.2-1-8.2-3.7-11.4c-3-3.5-7.3-5.5-12-5.5c-3.7,0-7.4,1.3-10.2,3.8
				c-3.7,3.2-5.7,7.8-5.5,12.7l0.1,1.4L85.2,145.5z M145.6,109.9c-1.7,1.5-4.3,1.3-5.7-0.4c-1.5-1.7-1.3-4.3,0.4-5.7
				c1.7-1.5,4.3-1.3,5.7,0.4C147.5,105.9,147.3,108.5,145.6,109.9z"/>
		</g>
	</g>
</g>
<g id="Layer_4">
</g>
</svg>
