<?xml version="1.0" encoding="utf-8"?>
<!-- Generator: Adobe Illustrator 22.0.1, SVG Export Plug-In . SVG Version: 6.00 Build 0)  -->
<svg version="1.1" xmlns="http://www.w3.org/2000/svg" xmlns:xlink="http://www.w3.org/1999/xlink" x="0px" y="0px"
	 viewBox="0 0 192.4 173.4" style="enable-background:new 0 0 192.4 173.4;" xml:space="preserve">
<style type="text/css">
	.st0{fill:#80B941;}
	.st1{fill:#C3C3C3;}
	.st2{fill-rule:evenodd;clip-rule:evenodd;fill:#231F20;}
	.st3{fill:#231F20;}
	.st4{fill:#DC2C2C;}
	.st5{fill:#404041;}
	.st6{fill:#FFFFFF;stroke:#2EA8DF;stroke-width:4.3004;stroke-linecap:round;stroke-linejoin:round;stroke-miterlimit:10;}
	.st7{fill:#2EA8DF;stroke:#FFFFFF;stroke-width:10.4776;stroke-linecap:round;stroke-linejoin:round;stroke-miterlimit:10;}
	.st8{fill:#FFFFFF;stroke:#2EA8DF;stroke-width:4.5392;stroke-linecap:round;stroke-linejoin:round;stroke-miterlimit:10;}
	.st9{fill:#2EA8DF;}
	.st10{fill:#FFFFFF;stroke:#2EA8DF;stroke-width:1.9357;stroke-miterlimit:10;}
	.st11{fill:#FFFFFF;}
	.st12{fill:none;stroke:#2EA8DF;stroke-width:1.1802;stroke-miterlimit:10;}
	.st13{fill:#FFFFFF;stroke:#2EA8DF;stroke-width:1.1802;stroke-miterlimit:10;}
	.st14{fill:#30A7DE;}
	.st15{fill:#E1E1E1;}
	.st16{fill:none;stroke:#30A7DE;stroke-width:4;stroke-miterlimit:10;}
	.st17{fill:#B9B9B9;}
	.st18{fill:#2EA8DF;stroke:#FFFFFF;stroke-width:15.285;stroke-linecap:round;stroke-linejoin:round;stroke-miterlimit:10;}
	.st19{fill:#2EA8DF;stroke:#2EA8DF;stroke-width:6.2735;stroke-linecap:round;stroke-linejoin:round;stroke-miterlimit:10;}
	.st20{fill:#E1E1E1;stroke:#2EA8DF;stroke-width:6.6219;stroke-linecap:round;stroke-linejoin:round;stroke-miterlimit:10;}
	.st21{fill:#FFFFFF;stroke:#2EA8DF;stroke-width:2.8239;stroke-miterlimit:10;}
	.st22{fill:none;stroke:#2EA8DF;stroke-width:1.7217;stroke-miterlimit:10;}
	.st23{fill:#FFFFFF;stroke:#2EA8DF;stroke-width:1.7217;stroke-miterlimit:10;}
	.st24{fill:#F3F3F3;}
	.st25{fill:#487013;}
	.st26{fill:#F1F1F1;}
	.st27{fill:#333333;}
	.st28{fill-rule:evenodd;clip-rule:evenodd;fill:#FFFFFF;}
	.st29{fill:none;stroke:#80B941;stroke-width:3;stroke-miterlimit:10;}
	.st30{fill:#666666;}
	.st31{fill-rule:evenodd;clip-rule:evenodd;fill:#909090;}
	.st32{fill:#909090;}
	.st33{fill-rule:evenodd;clip-rule:evenodd;fill:#C3C3C3;}
	.st34{display:none;}
	.st35{display:inline;}
	.st36{fill:none;stroke:#C3C3C3;stroke-width:3.2359;stroke-miterlimit:10;}
	.st37{fill:none;stroke:#C3C3C3;stroke-width:4;stroke-miterlimit:10;}
	.st38{fill-rule:evenodd;clip-rule:evenodd;fill:#80B941;}
	.st39{fill-rule:evenodd;clip-rule:evenodd;fill:none;stroke:#E0E0E0;stroke-width:0.7966;stroke-miterlimit:10;}
	.st40{fill:#CECECE;}
	.st41{fill:#828282;}
	.st42{fill:#24A8EA;}
	.st43{opacity:0.7;}
	.st44{opacity:0.8;}
	.st45{display:inline;fill:#FFFFFF;}
	.st46{fill:#E6ED4F;}
	.st47{fill:#FFFFFF;stroke:#80B941;stroke-width:10;stroke-linejoin:bevel;stroke-miterlimit:10;}
	.st48{fill:none;stroke:#80B941;stroke-width:6;stroke-miterlimit:10;}
	.st49{fill:#FFFFFF;stroke:#80B941;stroke-width:6;stroke-miterlimit:10;}
	.st50{opacity:0.6;fill:#FFFFFF;}
	.st51{fill:#C2C2C2;}
	.st52{fill:#36A5DD;}
</style>
<g id="Layer_1">
</g>
<g id="Layer_2">
</g>
<g id="Layer_3">
	<g>
		<g>
			<g>
				<path class="st51" d="M58.4,13.1v45.4H18.9V13.1H58.4 M62.2,9.3h-3.8H18.9H15v3.8v45.4v3.8h3.8h39.5h3.8v-3.8V13.1V9.3L62.2,9.3
					z"/>
			</g>
			<rect x="23.2" y="21.8" class="st52" width="30.9" height="1.6"/>
			<rect x="23.2" y="30.9" class="st52" width="30.9" height="1.6"/>
			<rect x="23.2" y="40" class="st52" width="30.9" height="1.6"/>
			<rect x="23.2" y="49.1" class="st52" width="30.9" height="1.6"/>
		</g>
		<g>
			<g>
				<path class="st51" d="M171.5,11.9v45.4H132V11.9H171.5 M175.3,8.1h-3.8H132h-3.8v3.8v45.4v3.8h3.8h39.5h3.8v-3.8V11.9V8.1
					L175.3,8.1z"/>
			</g>
			<g>
				<path class="st52" d="M158.6,35.8v3.8c0,1-0.3,1.8-1,2.4c-0.7,0.7-1.5,1-2.4,1h-10c-1,0-1.8-0.3-2.4-1c-0.7-0.7-1-1.5-1-2.4v-10
					c0-1,0.3-1.8,1-2.4c0.7-0.7,1.5-1,2.4-1h10c0.5,0,1,0.1,1.4,0.3c0.1,0.1,0.2,0.1,0.2,0.3c0,0.1,0,0.3-0.1,0.3l-0.6,0.6
					c-0.1,0.1-0.2,0.1-0.3,0.1c0,0-0.1,0-0.1,0c-0.2,0-0.4-0.1-0.5-0.1h-10c-0.5,0-1,0.2-1.4,0.6c-0.4,0.4-0.6,0.8-0.6,1.4v10
					c0,0.5,0.2,1,0.6,1.4c0.4,0.4,0.8,0.6,1.4,0.6h10c0.5,0,1-0.2,1.4-0.6c0.4-0.4,0.6-0.8,0.6-1.4v-3.1c0-0.1,0-0.2,0.1-0.3
					l0.8-0.8c0.1-0.1,0.2-0.1,0.3-0.1c0,0,0.1,0,0.1,0C158.6,35.5,158.6,35.6,158.6,35.8z M161.4,29.9l-9.8,9.8
					c-0.2,0.2-0.4,0.3-0.7,0.3s-0.5-0.1-0.7-0.3l-5.2-5.2c-0.2-0.2-0.3-0.4-0.3-0.7c0-0.3,0.1-0.5,0.3-0.7l1.3-1.3
					c0.2-0.2,0.4-0.3,0.7-0.3s0.5,0.1,0.7,0.3L151,35l7.8-7.8c0.2-0.2,0.4-0.3,0.7-0.3s0.5,0.1,0.7,0.3l1.3,1.3
					c0.2,0.2,0.3,0.4,0.3,0.7C161.7,29.5,161.6,29.7,161.4,29.9z"/>
			</g>
		</g>
		<g>
			<g>
				<path class="st51" d="M58.4,117.1v45.4H18.9v-45.4H58.4 M62.2,113.3h-3.8H18.9H15v3.8v45.4v3.8h3.8h39.5h3.8v-3.8v-45.4V113.3
					L62.2,113.3z"/>
			</g>
			<g>
				<path class="st52" d="M49.3,148.8c0,0.4-0.2,0.8-0.5,1.2c-0.3,0.3-0.7,0.5-1.2,0.5c-0.5,0-0.8-0.2-1.2-0.5l-4.4-4.4
					c-1.5,1.1-3.2,1.6-5.1,1.6c-1.2,0-2.4-0.2-3.5-0.7c-1.1-0.5-2.1-1.1-2.9-1.9s-1.4-1.8-1.9-2.9c-0.5-1.1-0.7-2.3-0.7-3.5
					c0-1.2,0.2-2.4,0.7-3.5c0.5-1.1,1.1-2.1,1.9-2.9c0.8-0.8,1.8-1.4,2.9-1.9c1.1-0.5,2.3-0.7,3.5-0.7c1.2,0,2.4,0.2,3.5,0.7
					c1.1,0.5,2.1,1.1,2.9,1.9c0.8,0.8,1.4,1.8,1.9,2.9c0.5,1.1,0.7,2.3,0.7,3.5c0,1.9-0.5,3.6-1.6,5.1l4.4,4.4
					C49.1,148,49.3,148.4,49.3,148.8z M41,142.2c1.1-1.1,1.7-2.5,1.7-4.1c0-1.6-0.6-2.9-1.7-4.1c-1.1-1.1-2.5-1.7-4.1-1.7
					c-1.6,0-2.9,0.6-4.1,1.7c-1.1,1.1-1.7,2.5-1.7,4.1c0,1.6,0.6,2.9,1.7,4.1c1.1,1.1,2.5,1.7,4.1,1.7
					C38.6,143.9,39.9,143.4,41,142.2z"/>
			</g>
		</g>
		<g>
			<g>
				<path class="st51" d="M173.5,117.2v45.4H134v-45.4H173.5 M177.3,113.4h-3.8H134h-3.8v3.8v45.4v3.8h3.8h39.5h3.8v-3.8v-45.4
					V113.4L177.3,113.4z"/>
			</g>
			<g>
				<path class="st52" d="M168.3,149v1.8h-29.1V129h1.8v20H168.3z M148.3,139.9v7.3h-3.6v-7.3H148.3z M153.7,132.6v14.5h-3.6v-14.5
					H153.7z M159.2,136.3v10.9h-3.6v-10.9H159.2z M164.6,130.8v16.4H161v-16.4H164.6z"/>
			</g>
		</g>
		<g>
			<rect x="66.1" y="32.1" class="st51" width="51.1" height="5.1"/>
			<polygon class="st51" points="124.2,34.6 117.3,41.5 117.3,27.7 			"/>
		</g>
		<g>
			<rect x="67.2" y="137.4" class="st51" width="51.1" height="5.1"/>
			<polygon class="st51" points="125.2,139.9 118.3,146.8 118.3,133 			"/>
		</g>
		<g>
			<polygon class="st51" points="40.1,100.6 35,100.6 35,84.9 150,84.9 150,66.2 155.1,66.2 155.1,90 40.1,90 			"/>
			<polygon class="st51" points="37.6,107.5 30.7,100.6 44.5,100.6 			"/>
		</g>
	</g>
</g>
<g id="Layer_4">
</g>
</svg>
