<?xml version="1.0" encoding="utf-8"?>
<!-- Generator: Adobe Illustrator 22.0.1, SVG Export Plug-In . SVG Version: 6.00 Build 0)  -->
<svg version="1.1" xmlns="http://www.w3.org/2000/svg" xmlns:xlink="http://www.w3.org/1999/xlink" x="0px" y="0px"
	 viewBox="0 0 192.4 173.4" style="enable-background:new 0 0 192.4 173.4;" xml:space="preserve">
<style type="text/css">
	.st0{fill:#80B941;}
	.st1{fill:#C3C3C3;}
	.st2{fill-rule:evenodd;clip-rule:evenodd;fill:#231F20;}
	.st3{fill:#231F20;}
	.st4{fill:#DC2C2C;}
	.st5{fill:#404041;}
	.st6{fill:#FFFFFF;stroke:#2EA8DF;stroke-width:4.3004;stroke-linecap:round;stroke-linejoin:round;stroke-miterlimit:10;}
	.st7{fill:#2EA8DF;stroke:#FFFFFF;stroke-width:10.4776;stroke-linecap:round;stroke-linejoin:round;stroke-miterlimit:10;}
	.st8{fill:#FFFFFF;stroke:#2EA8DF;stroke-width:4.5392;stroke-linecap:round;stroke-linejoin:round;stroke-miterlimit:10;}
	.st9{fill:#2EA8DF;}
	.st10{fill:#FFFFFF;stroke:#2EA8DF;stroke-width:1.9357;stroke-miterlimit:10;}
	.st11{fill:#FFFFFF;}
	.st12{fill:none;stroke:#2EA8DF;stroke-width:1.1802;stroke-miterlimit:10;}
	.st13{fill:#FFFFFF;stroke:#2EA8DF;stroke-width:1.1802;stroke-miterlimit:10;}
	.st14{fill:#30A7DE;}
	.st15{fill:#E1E1E1;}
	.st16{fill:none;stroke:#30A7DE;stroke-width:4;stroke-miterlimit:10;}
	.st17{fill:#B9B9B9;}
	.st18{fill:#2EA8DF;stroke:#FFFFFF;stroke-width:15.285;stroke-linecap:round;stroke-linejoin:round;stroke-miterlimit:10;}
	.st19{fill:#2EA8DF;stroke:#2EA8DF;stroke-width:6.2735;stroke-linecap:round;stroke-linejoin:round;stroke-miterlimit:10;}
	.st20{fill:#E1E1E1;stroke:#2EA8DF;stroke-width:6.6219;stroke-linecap:round;stroke-linejoin:round;stroke-miterlimit:10;}
	.st21{fill:#FFFFFF;stroke:#2EA8DF;stroke-width:2.8239;stroke-miterlimit:10;}
	.st22{fill:none;stroke:#2EA8DF;stroke-width:1.7217;stroke-miterlimit:10;}
	.st23{fill:#FFFFFF;stroke:#2EA8DF;stroke-width:1.7217;stroke-miterlimit:10;}
	.st24{fill:#F3F3F3;}
	.st25{fill:#487013;}
	.st26{fill:#F1F1F1;}
	.st27{fill:#333333;}
	.st28{fill-rule:evenodd;clip-rule:evenodd;fill:#FFFFFF;}
	.st29{fill:none;stroke:#80B941;stroke-width:3;stroke-miterlimit:10;}
	.st30{fill:#666666;}
	.st31{fill-rule:evenodd;clip-rule:evenodd;fill:#909090;}
	.st32{fill:#909090;}
	.st33{fill-rule:evenodd;clip-rule:evenodd;fill:#C3C3C3;}
	.st34{display:none;}
	.st35{display:inline;}
	.st36{fill:none;stroke:#C3C3C3;stroke-width:3.2359;stroke-miterlimit:10;}
	.st37{fill:none;stroke:#C3C3C3;stroke-width:4;stroke-miterlimit:10;}
	.st38{fill-rule:evenodd;clip-rule:evenodd;fill:#80B941;}
	.st39{fill-rule:evenodd;clip-rule:evenodd;fill:none;stroke:#E0E0E0;stroke-width:0.7966;stroke-miterlimit:10;}
	.st40{fill:#CECECE;}
	.st41{fill:#828282;}
	.st42{opacity:0.7;}
	.st43{fill:#24A8EA;}
	.st44{opacity:0.8;}
	.st45{display:inline;fill:#FFFFFF;}
	.st46{fill:#E6ED4F;}
	.st47{fill:#FFFFFF;stroke:#80B941;stroke-width:10;stroke-linejoin:bevel;stroke-miterlimit:10;}
	.st48{fill:none;stroke:#80B941;stroke-width:6;stroke-miterlimit:10;}
	.st49{fill:#FFFFFF;stroke:#80B941;stroke-width:6;stroke-miterlimit:10;}
	.st50{opacity:0.6;fill:#FFFFFF;}
</style>
<g id="Layer_1">
</g>
<g id="Layer_2">
</g>
<g id="Layer_3">
	<g>
		<g>
			<path class="st11" d="M122.6,137.9H25.8c-2.3,0-4.1-1.8-4.1-4.1V75.3c0-2.3,1.8-4.1,4.1-4.1h96.8c2.3,0,4.1,1.8,4.1,4.1v58.5
				C126.7,136,124.8,137.9,122.6,137.9z"/>
			<path class="st11" d="M125.7,74.2H22.6c-1.7,0-3.1-1-3.8-2.5c-0.6-1.5-0.3-3.3,0.9-4.5l16.1-16.4c0.8-0.8,1.8-1.2,2.9-1.2h70.8
				c1.1,0,2.2,0.4,2.9,1.2l16.1,16.4c1.2,1.2,1.5,2.9,0.9,4.5C128.8,73.2,127.3,74.2,125.7,74.2z"/>
			<g>
				<path class="st1" d="M122.6,135.2H25.8c-0.8,0-1.4-0.6-1.4-1.4V75.3c0-0.8,0.6-1.4,1.4-1.4h96.8c0.8,0,1.4,0.6,1.4,1.4v58.5
					C124,134.6,123.3,135.2,122.6,135.2z M27.2,132.4h94V76.7h-94V132.4z"/>
			</g>
			<g>
				<polygon class="st11" points="125.7,70.1 22.6,70.1 38.7,53.7 109.6,53.7 				"/>
				<path class="st1" d="M125.7,71.6H22.6c-0.6,0-1.1-0.4-1.4-0.9c-0.2-0.6-0.1-1.2,0.3-1.6l16.1-16.4c0.3-0.3,0.7-0.4,1.1-0.4h70.8
					c0.4,0,0.8,0.2,1.1,0.4l16.1,16.4c0.4,0.4,0.5,1.1,0.3,1.6C126.8,71.2,126.3,71.6,125.7,71.6z M26.2,68.6h96L109,55.2H39.4
					L26.2,68.6z"/>
			</g>
			<g>
				<polygon class="st43" points="102.9,62 45.4,62 47,59.4 101.3,59.4 				"/>
				<polygon class="st43" points="101.3,59.4 47,59.4 45.4,62 102.9,62 101.3,59.4 				"/>
			</g>
			<g>
				<rect x="57.3" y="24" class="st43" width="31.9" height="36.7"/>
				<path class="st11" d="M66,34.3h-5.2v-5.2H66V34.3z M61.6,33.6h3.7v-3.7h-3.7V33.6z"/>
				<path class="st11" d="M66,41.7h-5.2v-5.2H66V41.7z M61.6,40.9h3.7v-3.7h-3.7V40.9z"/>
				<path class="st11" d="M66,49h-5.2v-5.2H66V49z M61.6,48.3h3.7v-3.7h-3.7V48.3z"/>
				<path class="st11" d="M66,56.4h-5.2v-5.2H66V56.4z M61.6,55.6h3.7v-3.7h-3.7V55.6z"/>
				<rect x="68.5" y="31.1" class="st11" width="17.4" height="1.3"/>
				<rect x="68.5" y="38.4" class="st11" width="17.4" height="1.3"/>
				<rect x="68.5" y="45.8" class="st11" width="17.4" height="1.3"/>
				<rect x="68.5" y="53.1" class="st11" width="17.4" height="1.3"/>
				<g>
					<g>
						<line class="st43" x1="61.9" y1="30.2" x2="65" y2="33.3"/>
						
							<rect x="63" y="29.5" transform="matrix(0.7071 -0.7071 0.7071 0.7071 -3.8481 54.1441)" class="st11" width="0.8" height="4.4"/>
					</g>
					<g>
						<line class="st43" x1="65" y1="30.2" x2="61.9" y2="33.3"/>
						
							<rect x="61.2" y="31.3" transform="matrix(0.7076 -0.7066 0.7066 0.7076 -3.8643 54.0954)" class="st11" width="4.4" height="0.8"/>
					</g>
				</g>
			</g>
		</g>
		<g>
			<g>
				<path class="st43" d="M166.4,99v11.3c0,0.4-0.1,0.8-0.4,1.2c-0.3,0.4-0.6,0.6-1,0.7l-9.4,1.4c-0.6,1.8-1.3,3.4-2,4.6
					c1.2,1.7,3,4,5.5,7c0.3,0.4,0.5,0.8,0.5,1.3c0,0.4-0.2,0.8-0.5,1.2c-0.9,1.3-2.6,3.1-5.1,5.5c-2.4,2.4-4,3.6-4.8,3.6
					c-0.4,0-0.9-0.2-1.3-0.5l-7-5.5c-1.5,0.8-3,1.4-4.6,1.9c-0.5,4.6-1,7.8-1.5,9.5c-0.2,0.9-0.8,1.4-1.8,1.4h-11.3
					c-0.5,0-0.9-0.1-1.3-0.4c-0.4-0.3-0.6-0.7-0.6-1.1l-1.4-9.4c-1.7-0.5-3.2-1.2-4.6-1.9l-7.2,5.5c-0.3,0.3-0.8,0.5-1.3,0.5
					c-0.5,0-0.9-0.2-1.3-0.6c-4.3-3.9-7.1-6.7-8.4-8.6c-0.2-0.3-0.4-0.7-0.4-1.2c0-0.4,0.1-0.8,0.4-1.2c0.5-0.7,1.4-1.8,2.6-3.4
					s2.1-2.7,2.8-3.6c-0.9-1.7-1.6-3.4-2.1-5.1l-9.3-1.4c-0.4-0.1-0.8-0.3-1.1-0.6c-0.3-0.4-0.4-0.8-0.4-1.2V98.8
					c0-0.4,0.1-0.8,0.4-1.2c0.3-0.4,0.6-0.6,1-0.7l9.5-1.4c0.5-1.6,1.1-3.1,2-4.7c-1.4-1.9-3.2-4.3-5.5-7c-0.3-0.4-0.5-0.8-0.5-1.2
					c0-0.3,0.1-0.7,0.5-1.2c0.9-1.2,2.6-3.1,5-5.5c2.5-2.4,4.1-3.7,4.8-3.7c0.4,0,0.9,0.2,1.3,0.5l7,5.5c1.5-0.8,3-1.4,4.6-1.9
					c0.5-4.6,1-7.8,1.5-9.5c0.2-1,0.9-1.4,1.8-1.4h11.3c0.5,0,0.9,0.1,1.3,0.4c0.4,0.3,0.6,0.7,0.6,1.1l1.4,9.4
					c1.7,0.5,3.2,1.2,4.6,1.9l7.2-5.5c0.3-0.3,0.7-0.5,1.2-0.5c0.4,0,0.9,0.2,1.3,0.5c4.4,4,7.2,6.9,8.4,8.7
					c0.2,0.3,0.4,0.6,0.4,1.1c0,0.4-0.1,0.8-0.4,1.2c-0.5,0.7-1.4,1.8-2.6,3.4c-1.2,1.5-2.1,2.7-2.8,3.6c0.9,1.7,1.6,3.4,2.1,5
					l9.3,1.4c0.4,0.1,0.8,0.3,1.1,0.6C166.2,98.2,166.4,98.6,166.4,99z"/>
				<path class="st11" d="M132.8,65.4c0.5,0,0.9,0.1,1.3,0.4c0.4,0.3,0.6,0.7,0.6,1.1l1.4,9.4c1.7,0.5,3.2,1.2,4.6,1.9l7.2-5.5
					c0.3-0.3,0.7-0.5,1.2-0.5c0.4,0,0.9,0.2,1.3,0.5c4.4,4,7.2,6.9,8.4,8.7c0.2,0.3,0.4,0.6,0.4,1.1c0,0.4-0.1,0.8-0.4,1.2
					c-0.5,0.7-1.4,1.8-2.6,3.4c-1.2,1.5-2.1,2.7-2.8,3.6c0.9,1.7,1.6,3.4,2.1,5l9.3,1.4c0.4,0.1,0.8,0.3,1.1,0.6
					c0.3,0.4,0.4,0.8,0.4,1.2v11.3c0,0.4-0.1,0.8-0.4,1.2c-0.3,0.4-0.6,0.6-1,0.7l-9.4,1.4c-0.6,1.8-1.3,3.4-2,4.6
					c1.2,1.7,3,4,5.5,7c0.3,0.4,0.5,0.8,0.5,1.3c0,0.4-0.2,0.8-0.5,1.2c-0.9,1.3-2.6,3.1-5.1,5.5c-2.4,2.4-4,3.6-4.8,3.6
					c-0.4,0-0.9-0.2-1.3-0.5l-7-5.5c-1.5,0.8-3,1.4-4.6,1.9c-0.5,4.6-1,7.8-1.5,9.5c-0.2,0.9-0.8,1.4-1.8,1.4h-11.3
					c-0.5,0-0.9-0.1-1.3-0.4c-0.4-0.3-0.6-0.7-0.6-1.1l-1.4-9.4c-1.7-0.5-3.2-1.2-4.6-1.9l-7.2,5.5c-0.3,0.3-0.8,0.5-1.3,0.5
					c-0.5,0-0.9-0.2-1.3-0.6c-4.3-3.9-7.1-6.7-8.4-8.6c-0.2-0.3-0.4-0.7-0.4-1.2c0-0.4,0.1-0.8,0.4-1.2c0.5-0.7,1.4-1.8,2.6-3.4
					c1.2-1.5,2.1-2.7,2.8-3.6c-0.9-1.7-1.6-3.4-2.1-5.1l-9.3-1.4c-0.4-0.1-0.8-0.3-1.1-0.6c-0.3-0.4-0.4-0.8-0.4-1.2V98.8
					c0-0.4,0.1-0.8,0.4-1.2c0.3-0.4,0.6-0.6,1-0.7l9.5-1.4c0.5-1.6,1.1-3.1,2-4.7c-1.4-1.9-3.2-4.3-5.5-7c-0.3-0.4-0.5-0.8-0.5-1.2
					c0-0.3,0.1-0.7,0.5-1.2c0.9-1.2,2.6-3.1,5-5.5c2.5-2.4,4.1-3.7,4.8-3.7c0.4,0,0.9,0.2,1.3,0.5l7,5.5c1.5-0.8,3-1.4,4.6-1.9
					c0.5-4.6,1-7.8,1.5-9.5c0.2-1,0.9-1.4,1.8-1.4H132.8 M132.8,57.9h-11.3c-4.4,0-8,2.8-9.1,7.1c-0.2,0.7-0.4,1.5-0.5,2.5l-0.8-0.6
					l0,0l0,0c-1.8-1.3-3.8-2-5.9-2c-3.5,0-6.2,2-10.1,5.8c-2.8,2.8-4.7,4.8-5.8,6.4l-0.1,0.1l0,0.1c-1.2,1.7-1.8,3.5-1.8,5.4
					c0,2.2,0.8,4.2,2.2,6c0.2,0.2,0.4,0.5,0.6,0.7l-2,0.3l-0.1,0l-0.1,0c-2.3,0.4-4.3,1.7-5.7,3.6l0,0l0,0c-1.2,1.6-1.8,3.6-1.8,5.6
					v11.3c0,2.1,0.7,4.1,1.9,5.7c1.4,1.9,3.5,3.1,5.8,3.5l0,0l0,0l2.1,0.3c-0.4,0.5-0.7,1-1,1.4c-1.2,1.6-1.8,3.6-1.8,5.5
					c0,2,0.6,3.8,1.7,5.4l0,0.1l0,0.1c1.7,2.3,4.6,5.4,9.4,9.7c1.8,1.7,4,2.6,6.4,2.6c2.2,0,4.3-0.7,5.9-2.1l0.9-0.7l0.2,1.6
					c0.3,2.3,1.4,4.4,3.3,6c1.7,1.4,3.7,2.1,5.9,2.1h11.3c4.4,0,8-2.8,9.1-7c0.2-0.7,0.4-1.5,0.5-2.5l0.8,0.6l0.3,0.2l0.3,0.2
					c1.7,1.1,3.5,1.7,5.4,1.7c3.5,0,6.3-2.1,10-5.8c2.7-2.7,4.5-4.6,5.7-6.2c1.3-1.6,2-3.7,2-5.8c0-2.2-0.8-4.3-2.2-6
					c-0.2-0.2-0.4-0.5-0.6-0.7l1.9-0.3l0.1,0l0.1,0c2.3-0.4,4.4-1.7,5.8-3.6c1.2-1.7,1.8-3.6,1.8-5.6V99c0-2.1-0.7-4-1.9-5.7l0,0
					l0,0c-1.4-1.9-3.5-3.1-5.8-3.5l-2.2-0.3c0.4-0.5,0.7-1,1-1.4c1.2-1.7,1.8-3.6,1.8-5.5c0-2.1-0.6-4.1-1.9-5.6
					c-1-1.4-3.2-4-9.3-9.6l-0.2-0.1l-0.2-0.1c-1.8-1.4-3.8-2.2-6-2.2c-2.2,0-4.3,0.8-6,2.2l-0.9,0.7l-0.2-1.6
					c-0.3-2.4-1.4-4.5-3.3-6C137.1,58.6,135,57.9,132.8,57.9L132.8,57.9z"/>
			</g>
			<path class="st11" d="M136.4,113.8c2.5-2.5,3.8-5.6,3.8-9.2c0-3.6-1.3-6.7-3.8-9.2c-2.5-2.5-5.6-3.8-9.2-3.8
				c-3.6,0-6.7,1.3-9.2,3.8c-2.6,2.6-3.8,5.6-3.8,9.2c0,3.6,1.3,6.7,3.8,9.2c2.5,2.5,5.6,3.8,9.2,3.8
				C130.8,117.6,133.9,116.4,136.4,113.8z"/>
		</g>
	</g>
</g>
<g id="Layer_4">
</g>
</svg>
