<?xml version="1.0" encoding="utf-8"?>
<!-- Generator: Adobe Illustrator 22.0.1, SVG Export Plug-In . SVG Version: 6.00 Build 0)  -->
<svg version="1.1" xmlns="http://www.w3.org/2000/svg" xmlns:xlink="http://www.w3.org/1999/xlink" x="0px" y="0px"
	 viewBox="0 0 192.4 173.4" style="enable-background:new 0 0 192.4 173.4;" xml:space="preserve">
<style type="text/css">
	.st0{fill:#80B941;}
	.st1{fill:#C3C3C3;}
	.st2{fill-rule:evenodd;clip-rule:evenodd;fill:#231F20;}
	.st3{fill:#231F20;}
	.st4{fill:#DC2C2C;}
	.st5{fill:#404041;}
	.st6{fill:#FFFFFF;stroke:#2EA8DF;stroke-width:4.3004;stroke-linecap:round;stroke-linejoin:round;stroke-miterlimit:10;}
	.st7{fill:#2EA8DF;stroke:#FFFFFF;stroke-width:10.4776;stroke-linecap:round;stroke-linejoin:round;stroke-miterlimit:10;}
	.st8{fill:#FFFFFF;stroke:#2EA8DF;stroke-width:4.5392;stroke-linecap:round;stroke-linejoin:round;stroke-miterlimit:10;}
	.st9{fill:#2EA8DF;}
	.st10{fill:#FFFFFF;stroke:#2EA8DF;stroke-width:1.9357;stroke-miterlimit:10;}
	.st11{fill:#FFFFFF;}
	.st12{fill:none;stroke:#2EA8DF;stroke-width:1.1802;stroke-miterlimit:10;}
	.st13{fill:#FFFFFF;stroke:#2EA8DF;stroke-width:1.1802;stroke-miterlimit:10;}
	.st14{fill:#30A7DE;}
	.st15{fill:#E1E1E1;}
	.st16{fill:none;stroke:#30A7DE;stroke-width:4;stroke-miterlimit:10;}
	.st17{fill:#B9B9B9;}
	.st18{fill:#2EA8DF;stroke:#FFFFFF;stroke-width:15.285;stroke-linecap:round;stroke-linejoin:round;stroke-miterlimit:10;}
	.st19{fill:#2EA8DF;stroke:#2EA8DF;stroke-width:6.2735;stroke-linecap:round;stroke-linejoin:round;stroke-miterlimit:10;}
	.st20{fill:#E1E1E1;stroke:#2EA8DF;stroke-width:6.6219;stroke-linecap:round;stroke-linejoin:round;stroke-miterlimit:10;}
	.st21{fill:#FFFFFF;stroke:#2EA8DF;stroke-width:2.8239;stroke-miterlimit:10;}
	.st22{fill:none;stroke:#2EA8DF;stroke-width:1.7217;stroke-miterlimit:10;}
	.st23{fill:#FFFFFF;stroke:#2EA8DF;stroke-width:1.7217;stroke-miterlimit:10;}
	.st24{fill:#F3F3F3;}
	.st25{fill:#487013;}
	.st26{fill:#F1F1F1;}
	.st27{fill:#333333;}
	.st28{fill-rule:evenodd;clip-rule:evenodd;fill:#FFFFFF;}
	.st29{fill:none;stroke:#80B941;stroke-width:3;stroke-miterlimit:10;}
	.st30{fill:#666666;}
	.st31{fill-rule:evenodd;clip-rule:evenodd;fill:#909090;}
	.st32{fill:#909090;}
	.st33{fill-rule:evenodd;clip-rule:evenodd;fill:#C3C3C3;}
	.st34{display:none;}
	.st35{display:inline;}
	.st36{fill:none;stroke:#C3C3C3;stroke-width:3.2359;stroke-miterlimit:10;}
	.st37{fill:none;stroke:#C3C3C3;stroke-width:4;stroke-miterlimit:10;}
	.st38{fill-rule:evenodd;clip-rule:evenodd;fill:#80B941;}
	.st39{fill-rule:evenodd;clip-rule:evenodd;fill:none;stroke:#E0E0E0;stroke-width:0.7966;stroke-miterlimit:10;}
	.st40{fill:#CECECE;}
	.st41{fill:#828282;}
	.st42{opacity:0.7;}
	.st43{fill:#24A8EA;}
	.st44{opacity:0.8;}
	.st45{display:inline;fill:#FFFFFF;}
	.st46{fill:#E6ED4F;}
	.st47{fill:#FFFFFF;stroke:#80B941;stroke-width:10;stroke-linejoin:bevel;stroke-miterlimit:10;}
	.st48{fill:none;stroke:#80B941;stroke-width:6;stroke-miterlimit:10;}
	.st49{fill:#FFFFFF;stroke:#80B941;stroke-width:6;stroke-miterlimit:10;}
	.st50{opacity:0.6;fill:#FFFFFF;}
</style>
<g id="Layer_1">
</g>
<g id="Layer_2">
</g>
<g id="Layer_3">
	<g>
		<rect x="29.5" y="32.9" class="st37" width="85.9" height="107.6"/>
		<g>
			<rect x="46.3" y="63.6" class="st1" width="4.4" height="4.4"/>
			<path class="st1" d="M48.9,45.4c-1.8-0.1-3.4,0.5-4.7,1.7c-1.3,1.2-2,2.9-2,4.6v1h4.4v-1c0-0.5,0.2-1.1,0.6-1.4
				c0.4-0.4,0.9-0.6,1.5-0.5c1,0.1,1.8,0.9,1.9,1.9c0,0.7-0.3,1.4-0.9,1.8c-2,1.3-3.2,3.4-3.2,5.8v2.3h4.4v-2.3
				c0-0.8,0.5-1.6,1.2-2.1c1.9-1.2,3.1-3.4,3-5.7C54.7,48.2,52.1,45.6,48.9,45.4z"/>
		</g>
		<rect x="60.4" y="52.4" class="st1" width="43.9" height="5.9"/>
		<g>
			<rect x="46.3" y="95.8" class="st1" width="4.4" height="4.4"/>
			<path class="st1" d="M48.9,77.6c-1.8-0.1-3.4,0.5-4.7,1.7c-1.3,1.2-2,2.9-2,4.6v1h4.4v-1c0-0.5,0.2-1.1,0.6-1.4
				c0.4-0.4,0.9-0.6,1.5-0.5c1,0.1,1.8,0.9,1.9,1.9c0,0.7-0.3,1.4-0.9,1.8c-2,1.3-3.2,3.4-3.2,5.8v2.3h4.4v-2.3
				c0-0.8,0.5-1.6,1.2-2.1c1.9-1.2,3.1-3.4,3-5.7C54.7,80.4,52.1,77.8,48.9,77.6z"/>
		</g>
		<g>
			<rect x="60.4" y="78.7" class="st1" width="43.9" height="5.9"/>
			<rect x="69.2" y="90.5" class="st1" width="35.1" height="5.9"/>
		</g>
		<g>
			<rect x="46.3" y="128" class="st1" width="4.4" height="4.4"/>
			<path class="st1" d="M48.9,109.8c-1.8-0.1-3.4,0.5-4.7,1.7c-1.3,1.2-2,2.9-2,4.6v1h4.4v-1c0-0.5,0.2-1.1,0.6-1.4
				c0.4-0.4,0.9-0.6,1.5-0.5c1,0.1,1.8,0.9,1.9,1.9c0,0.7-0.3,1.4-0.9,1.8c-2,1.3-3.2,3.4-3.2,5.8v2.3h4.4v-2.3
				c0-0.8,0.5-1.6,1.2-2.1c1.9-1.2,3.1-3.4,3-5.7C54.7,112.6,52.1,110,48.9,109.8z"/>
		</g>
		<rect x="60.4" y="116.8" class="st1" width="43.9" height="5.9"/>
		<g>
			<g>
				<polygon class="st11" points="92.5,100.8 148.3,54.4 166.7,76.6 110.9,123 82.6,127.9 				"/>
				<path class="st11" d="M148,58.3l14.9,18l-53.1,44.2l-11.5,2l-11.5,2l4-11l4-11L148,58.3 M148.7,50.6l-4.2,3.5L91.3,98.3
					l-1.1,0.9l-0.5,1.4l-4,11l-4,11l-3.3,8.9l9.3-1.6l11.5-2l11.5-2l1.4-0.2l1.1-0.9l53.1-44.2l4.2-3.5l-3.5-4.2l-14.9-18
					L148.7,50.6L148.7,50.6z"/>
			</g>
			
				<rect x="97.8" y="80" transform="matrix(0.7689 -0.6393 0.6393 0.7689 -29.4623 101.7574)" class="st43" width="56.4" height="23.3"/>
			
				<rect x="149" y="57.9" transform="matrix(0.7689 -0.6393 0.6393 0.7689 -9.2145 113.6639)" class="st43" width="7.3" height="23.3"/>
			<polygon class="st43" points="102.3,111.4 109.8,120.4 98.3,122.4 86.7,124.4 90.8,113.4 94.8,102.5 			"/>
			
				<rect x="103" y="85.2" transform="matrix(0.7689 -0.6394 0.6394 0.7689 -27.247 97.9836)" class="st11" width="37.8" height="3"/>
			<path class="st11" d="M96.2,110.3c0,0,6.1,7.3,6.1,7.3c-0.7,0.1-1.3,0.2-2,0.3c-0.7,0.1-1.3,0.2-2,0.3c-0.7,0.1-1,0-1.7-0.3
				c-0.1,0-0.2-0.1-0.3-0.2c-0.1-0.1,0-0.3,0-0.5c0.1-0.2,0.9-1.4,0.9-1.5c0-0.2-1.9-0.1-2.5-0.2c-0.1,0-0.2-0.1-0.2-0.1
				c0-0.1,0-0.1,0-0.2c0.1-1.1,0.6-2.2,1-3.2C95.6,111.9,96.3,110.5,96.2,110.3z"/>
		</g>
	</g>
</g>
<g id="Layer_4">
</g>
</svg>
