<?xml version="1.0" encoding="utf-8"?>
<!-- Generator: Adobe Illustrator 22.0.1, SVG Export Plug-In . SVG Version: 6.00 Build 0)  -->
<svg version="1.1" id="Layer_1" xmlns="http://www.w3.org/2000/svg" xmlns:xlink="http://www.w3.org/1999/xlink" x="0px" y="0px"
	 viewBox="0 0 656 588.1" style="enable-background:new 0 0 656 588.1;" xml:space="preserve">
<style type="text/css">
	.st0{fill:#FFFFFF;}
	.st1{fill:#24A8EA;}
</style>
<g id="Layer_1_1_">
</g>
<g id="Layer_2_1_">
</g>
<g id="Layer_3">
	<g>
		<path class="st0" d="M101.9,453c0,20.4-12.2,30.2-37.7,30.2s-37.7-11.7-37.7-37.9v-22.1c0-24.4,12.2-37.9,37.7-37.9
			s37.7,11.7,37.7,37.9v19.3H49.1v2.5c0,15.7,6.1,18.6,15.3,18.6c10.7,0,15.2-3.8,15.2-10.5h22.3V453z M49.1,423.8h30.8
			c0-12.2-2.3-19-15.2-19C51.4,404.8,49.1,412.1,49.1,423.8z M122.8,385.6h19.6l1.5,9.9c5.4-7.1,14.2-10.7,22.9-10.4
			c9.6,0,19.3,3.1,23.9,12.4c5.1-7.6,15.3-12.5,27.7-12.5c20.1,0,32.1,11.7,32.1,38.1v59.8h-22.6V423c0-12.5-5.1-17.6-14.5-17.6
			c-8.6,0-15,3.6-15.3,17.5v60h-22.6V423c0-12.5-5.1-17.6-14.5-17.6c-8.7,0-15.7,4.3-15.7,16.8v60.7h-22.6v-97.3H122.8z M367.7,419
			c-1.5-24.2,11.5-34,34.8-34c25.4,0,36.4,12.7,36.4,37.9v59.8h-18.5l-2.1-11.2c-5.4,7.6-14.7,12.5-25.6,12.5c-16,0-28-9.2-28-27.5
			c0-22.9,19.1-32,52.6-29.7c0-14.5-2.8-21.8-14.7-21.8c-9.9,0-13.5,3.5-13.4,13.8h-21.5V419z M386.2,454.8c0,6.4,5.6,8.6,13.3,8.6
			c13.2,0,16.8-9.6,17.8-19.3C394.3,441.8,386.2,447,386.2,454.8z M458.9,368.7l22.6-2.5v19H498v20.6h-16.5v41
			c0,10.7,1.6,18,16.8,16.2v19.8c-28.7,3.1-39.4-6.8-39.4-35.6V368.7z M539.3,365.9c0,16.5-25.5,16.6-25.5,0
			C513.8,349.1,539.3,349.3,539.3,365.9z M537.7,483h-22.6v-95.3h22.6V483z M558.4,419c-1.5-24.2,11.5-34,34.8-34
			c25.4,0,36.4,12.7,36.4,37.9v59.8h-18.5l-2.1-11.2c-5.4,7.6-14.7,12.5-25.5,12.5c-16,0-28-9.2-28-27.5c0-22.9,19.1-32,52.6-29.7
			c0-14.5-2.8-21.8-14.7-21.8c-9.9,0-13.5,3.5-13.4,13.8h-21.6V419z M576.9,454.8c0,6.4,5.6,8.6,13.3,8.6c13.2,0,16.8-9.6,17.8-19.3
			C585,441.8,576.9,447,576.9,454.8z M311,384.9c-24.7,0-37.4,11.2-37.4,38.1v89.3h22.6v-37.4c4.9,6.1,13.5,8.6,21.3,8.6
			c21.1,0,31.3-13.3,31.3-34.3v-26C348.8,396.1,335.6,384.9,311,384.9z M326.2,446.5c0,11.9-5.3,16.2-14.7,16.3c-5,0-9-1.4-11.6-4.3
			c-4.9,2.2-10.7,3.8-17,4.9c7.2-4.9,12-11.2,13.2-18.5c0-0.2,0.1-0.4,0.1-0.6v-20.9c0-11.7,3.3-18.5,14.8-18.5
			c8.9,0,15.2,4.6,15.2,18.6V446.5z"/>
		<g>
			<g>
				<path class="st0" d="M328,316.6c-52.6,0-102.4-7.5-140.3-21c-44.3-15.8-68.7-39-68.7-65.1c0-26.2,24.4-49.3,68.7-65.1
					c37.9-13.5,87.7-21,140.3-21s102.4,7.5,140.3,21c44.3,15.8,68.7,39,68.7,65.1c0,26.2-24.4,49.3-68.7,65.1
					C430.4,309.1,380.6,316.6,328,316.6z"/>
			</g>
			<g>
				<g>
					<ellipse class="st0" cx="246.2" cy="75.2" rx="28.6" ry="28.6"/>
					<path class="st1" d="M246.3,48.5c14.7,0,26.7,11.9,26.7,26.7s-11.9,26.7-26.7,26.7c-14.8,0-26.7-11.9-26.7-26.7
						S231.6,48.5,246.3,48.5 M246.3,44.8c-16.8,0-30.4,13.7-30.4,30.4s13.7,30.4,30.4,30.4s30.4-13.7,30.4-30.4S263,44.8,246.3,44.8
						L246.3,44.8z"/>
				</g>
				<g>
					<path class="st0" d="M246.3,178.1c-17.2,0-31.2-20.5-31.2-45.7c0-13.3,3.9-25.8,10.7-34.5l2.7-0.3c5.1,4.1,11.3,6.3,17.9,6.3
						s12.7-2.2,17.9-6.3l2.7,0.3c6.8,8.7,10.7,21.3,10.7,34.5C277.4,157.5,263.4,178.1,246.3,178.1z"/>
					<path class="st1" d="M265.3,99c6.3,8,10.3,20,10.3,33.4c0,24.2-13.1,43.9-29.3,43.9s-29.3-19.6-29.3-43.9
						c0-13.4,4-25.3,10.3-33.4c5.2,4.2,11.8,6.7,19,6.7S260,103.2,265.3,99 M262.9,96c-4.8,3.8-10.6,5.9-16.7,5.9s-11.9-2-16.7-5.9
						l-5.3,0.6c-7.1,9-11.1,22-11.1,35.7c0,12.5,3.3,24.2,9.2,33.1c6.3,9.4,14.7,14.5,23.9,14.5s17.6-5.2,23.9-14.5
						c6-8.9,9.2-20.7,9.2-33.1c0-13.7-4-26.7-11.1-35.7L262.9,96L262.9,96z"/>
				</g>
			</g>
			<g>
				<g>
					<path class="st1" d="M217.3,92.3c-0.5,0-1.1,0-1.7-0.1c-2.1-0.2-3.9-0.8-5.5-2c-0.7-0.5-1.4-0.9-2.2-1c-0.2,0-0.5-0.1-0.8-0.1
						c-0.4,0-0.8,0-1.2,0.1l-1.7,0.4c-4.8,1-9.3,1.9-14.4,1.9c-24,0-43.6-14.6-43.6-32.6s19.5-32.6,43.6-32.6
						c24,0,43.6,14.6,43.6,32.6c0,4.8-1.4,9.6-4.2,13.9c-0.9,1.4-2.6,3-4.4,4.6c-2,1.8-4.8,4.4-4.9,5.8c-0.1,1.1,0.3,2.1,1,2.7
						c0.3,0.3,0.7,0.4,1.2,0.4c0.4,0,0.9-0.1,1.6-0.3l1.4,2.7c-0.1,0.1-0.2,0.2-0.3,0.2c-0.1,0.1-0.3,0.2-0.4,0.3
						c-1.3,1.1-2.9,2.2-4.8,2.7C218.9,92.2,218.1,92.3,217.3,92.3z"/>
					<path class="st0" d="M189.8,27.8c23.2,0,42,13.9,42,31.1c0,4.7-1.4,9.2-3.9,13.1c-2,3.2-9.3,7.7-9.5,11.1
						c-0.1,1.5,0.4,3.1,1.6,4c0.7,0.5,1.4,0.8,2.2,0.8c0.6,0,1.3-0.1,2-0.3c-0.2,0.2-0.4,0.4-0.7,0.6c-1.3,1-2.6,2-4.2,2.4
						c-0.7,0.2-1.4,0.2-2.1,0.2c-0.5,0-1.1,0-1.6-0.1c-1.8-0.1-3.3-0.7-4.8-1.7c-0.9-0.6-1.7-1.1-2.8-1.3c-0.3-0.1-0.7-0.1-1-0.1
						c-0.5,0-1,0.1-1.5,0.2c-5.3,1.1-10.3,2.3-15.8,2.3c-23.2,0-42-13.9-42-31.1C147.8,41.8,166.6,27.8,189.8,27.8 M189.8,24.8
						c-24.9,0-45.1,15.3-45.1,34.2c0,18.8,20.2,34.2,45.1,34.2c5.2,0,9.8-1,14.7-2c0.6-0.1,1.1-0.2,1.7-0.4c0.3-0.1,0.6-0.1,0.9-0.1
						c0.2,0,0.3,0,0.5,0c0.5,0.1,0.9,0.3,1.5,0.8c1.9,1.3,3.9,2.1,6.3,2.3c0.7,0.1,1.3,0.1,1.9,0.1c1,0,1.9-0.1,2.8-0.3
						c2.3-0.5,4-1.8,5.5-3c0.1-0.1,0.3-0.2,0.4-0.3c0.1-0.1,0.2-0.1,0.3-0.2l-2.8-5.3c-0.5,0.1-0.9,0.2-1.2,0.2c-0.1,0-0.2,0-0.2,0
						c-0.4-0.3-0.6-0.9-0.5-1.5c0.2-1,3-3.5,4.4-4.8c1.9-1.7,3.6-3.3,4.6-4.9c2.9-4.6,4.4-9.7,4.4-14.8
						C234.9,40.1,214.8,24.8,189.8,24.8L189.8,24.8z"/>
				</g>
				<g>
					<path class="st0" d="M201.8,61.3v6.1c0,1.5-0.5,2.8-1.6,3.9s-2.4,1.6-3.9,1.6h-16c-1.5,0-2.8-0.5-3.9-1.6
						c-1.1-1.1-1.6-2.4-1.6-3.9v-16c0-1.5,0.5-2.8,1.6-3.9c1.1-1.1,2.4-1.6,3.9-1.6h16c0.8,0,1.6,0.2,2.3,0.5
						c0.2,0.1,0.3,0.2,0.3,0.4s0,0.4-0.2,0.6l-0.9,0.9c-0.1,0.1-0.3,0.2-0.4,0.2c0,0-0.1,0-0.2,0c-0.3-0.1-0.6-0.1-0.9-0.1h-16
						c-0.8,0-1.6,0.3-2.2,0.9c-0.6,0.6-0.9,1.3-0.9,2.2v16c0,0.8,0.3,1.6,0.9,2.2c0.6,0.6,1.3,0.9,2.2,0.9h16c0.8,0,1.6-0.3,2.2-0.9
						c0.6-0.6,0.9-1.3,0.9-2.2v-4.9c0-0.2,0.1-0.3,0.2-0.4l1.2-1.2c0.1-0.1,0.3-0.2,0.4-0.2c0.1,0,0.2,0,0.2,0.1
						C201.8,60.8,201.8,61,201.8,61.3z M206.3,51.9l-15.7,15.7c-0.3,0.3-0.7,0.5-1.1,0.5c-0.4,0-0.8-0.2-1.1-0.5l-8.3-8.3
						c-0.3-0.3-0.5-0.7-0.5-1.1c0-0.4,0.2-0.8,0.5-1.1l2.1-2.1c0.3-0.3,0.7-0.5,1.1-0.5c0.4,0,0.8,0.2,1.1,0.5l5.1,5.1L202,47.6
						c0.3-0.3,0.7-0.5,1.1-0.5c0.4,0,0.8,0.2,1.1,0.5l2.1,2.1c0.3,0.3,0.5,0.7,0.5,1.1C206.8,51.2,206.6,51.6,206.3,51.9z"/>
				</g>
			</g>
			<g>
				<ellipse class="st0" cx="357.4" cy="65.1" rx="28.6" ry="28.6"/>
				<path class="st1" d="M357.3,38.4c14.7,0,26.7,11.9,26.7,26.7s-11.9,26.7-26.7,26.7s-26.7-11.9-26.7-26.7S342.6,38.4,357.3,38.4
					 M357.3,34.6c-16.8,0-30.4,13.7-30.4,30.4s13.7,30.4,30.4,30.4s30.4-13.7,30.4-30.4S374.1,34.6,357.3,34.6L357.3,34.6z"/>
			</g>
			<g>
				<path class="st0" d="M357.3,167.9c-17.2,0-31.2-20.5-31.2-45.7c0-13.3,3.9-25.8,10.7-34.5l2.7-0.3c5.1,4.1,11.3,6.3,17.9,6.3
					s12.7-2.2,17.9-6.3l2.7,0.3c6.8,8.7,10.7,21.3,10.7,34.5C388.6,147.4,374.5,167.9,357.3,167.9z"/>
				<path class="st1" d="M376.4,88.9c6.3,8,10.3,20,10.3,33.4c0,24.2-13.1,43.9-29.3,43.9s-29.3-19.6-29.3-43.9
					c0-13.4,4-25.3,10.3-33.4c5.2,4.2,11.8,6.7,19,6.7S371.2,93,376.4,88.9 M340.6,85.9l-5.3,0.6c-7.1,9-11.1,22-11.1,35.7
					c0,12.5,3.3,24.2,9.2,33.1c6.3,9.4,14.7,14.5,23.9,14.5s17.6-5.2,23.9-14.5c6-8.9,9.2-20.7,9.2-33.1c0-13.7-4-26.7-11.1-35.7
					l-5.3-0.6c-4.8,3.8-10.6,5.9-16.7,5.9S345.4,89.8,340.6,85.9L340.6,85.9z"/>
			</g>
			<g>
				<path class="st1" d="M385.5,83c-0.9,0-1.7-0.1-2.5-0.3c-2-0.5-3.6-1.6-5-2.7c-0.1-0.1-0.2-0.2-0.4-0.3c-0.1-0.1-0.2-0.2-0.3-0.2
					l1.7-3.3c0.6,0.2,1.1,0.3,1.5,0.3s0.7-0.1,1-0.3c0.6-0.5,1-1.5,0.9-2.4c-0.1-1.3-2.9-3.9-4.8-5.6c-1.8-1.6-3.5-3.2-4.4-4.6
					c-2.8-4.4-4.2-9.3-4.2-14.1c0-18.2,19.7-33,43.9-33c24.2,0,43.9,14.8,43.9,33s-19.7,33-43.9,33c-5.1,0-9.6-0.9-14.4-2l-1.7-0.4
					c-0.4-0.1-0.8-0.1-1.1-0.1c-0.2,0-0.5,0-0.7,0.1c-0.7,0.1-1.2,0.4-2,1c-1.7,1.2-3.5,1.9-5.7,2C386.6,83,386,83,385.5,83z
					 M413.5,64.3v-1.2h-1.2v1.2H413.5z M413.2,55.2l1.7-23.5h-4l1.7,23.5H413.2z"/>
				<path class="st0" d="M412.9,18.2c23.2,0,42,13.9,42,31.1s-18.8,31.1-42,31.1c-5.5,0-10.4-1.2-15.8-2.3c-0.5-0.1-1-0.2-1.5-0.2
					c-0.3,0-0.7,0-1,0.1c-1.1,0.2-1.9,0.7-2.8,1.3c-1.5,1-3,1.6-4.8,1.7c-0.5,0-1.1,0.1-1.6,0.1c-0.7,0-1.4-0.1-2.1-0.2
					c-1.6-0.4-2.9-1.3-4.2-2.4c-0.2-0.2-0.4-0.4-0.7-0.6c0.7,0.2,1.4,0.3,2,0.3c0.8,0,1.5-0.2,2.2-0.8c1.1-1,1.7-2.5,1.6-4
					c-0.3-3.4-7.5-7.9-9.5-11.1c-2.5-3.9-3.9-8.5-3.9-13.1C370.9,32.1,389.7,18.2,412.9,18.2 M410.8,57.1h4.2l1.9-27.3h-8.1
					L410.8,57.1 M410.4,66.2h5v-5h-5V66.2 M412.9,14.4c-12,0-23.4,3.5-32,9.8c-8.9,6.6-13.8,15.5-13.8,25c0,5.2,1.6,10.4,4.5,15.1
					c1.1,1.7,2.9,3.3,4.7,5c1.3,1.2,3.8,3.5,4.2,4.5c0,0.3-0.1,0.5-0.2,0.6c-0.2,0-0.5-0.1-0.9-0.2l-3.4,6.5
					c0.1,0.1,0.2,0.1,0.2,0.2c0.1,0.1,0.3,0.3,0.4,0.4c1.6,1.3,3.4,2.6,5.7,3.1c0.9,0.2,1.9,0.3,2.9,0.3c0.6,0,1.2,0,1.9-0.1
					c2.5-0.2,4.6-1,6.6-2.4c0.7-0.5,1-0.6,1.3-0.6c0.1,0,0.2,0,0.4,0c0.2,0,0.5,0,0.7,0.1c0.6,0.1,1.1,0.2,1.7,0.3
					c4.7,1,9.5,2,14.8,2c12,0,23.4-3.5,32-9.8c8.9-6.6,13.8-15.5,13.8-25s-4.9-18.4-13.8-25C436.3,17.9,424.9,14.4,412.9,14.4
					L412.9,14.4z"/>
			</g>
			<g>
				
					<ellipse transform="matrix(0.2298 -0.9732 0.9732 0.2298 195.322 547.1682)" class="st0" cx="443.4" cy="150.2" rx="34.9" ry="34.9"/>
				<path class="st1" d="M443.3,117.2c18.2,0,33,14.8,33,33s-14.8,33-33,33s-33-14.8-33-33S425.1,117.2,443.3,117.2 M443.3,113.4
					c-20.3,0-36.7,16.5-36.7,36.7s16.5,36.7,36.7,36.7s36.7-16.5,36.7-36.7S463.5,113.4,443.3,113.4L443.3,113.4z"/>
			</g>
			<g>
				<path class="st0" d="M443.3,276.8c-21,0-38.1-25.2-38.1-56.1c0-16.4,4.9-32,13.3-42.6l2.7-0.3c6.4,5.1,14,7.8,22.2,7.8
					c8.1,0,15.8-2.7,22.2-7.8l2.7,0.3c8.5,10.7,13.3,26.2,13.3,42.6C481.4,251.7,464.3,276.8,443.3,276.8z"/>
				<path class="st1" d="M466.6,179.3c7.9,9.9,12.9,24.8,12.9,41.5c0,29.9-16.2,54.2-36.3,54.2c-20,0-36.3-24.3-36.3-54.2
					c0-16.6,5-31.5,12.9-41.5c6.4,5.1,14.5,8.2,23.4,8.2S460.2,184.4,466.6,179.3 M464.3,176.4c-6,4.8-13.3,7.4-21,7.4
					s-15-2.6-21-7.4L417,177c-8.7,11-13.7,27-13.7,43.8c0,15.2,4,29.6,11.3,40.4c7.6,11.3,17.8,17.6,28.8,17.6s21.2-6.2,28.8-17.6
					c7.3-10.9,11.3-25.2,11.3-40.4c0-16.8-5-32.8-13.7-43.8L464.3,176.4L464.3,176.4z"/>
			</g>
			<g>
				<g>
					<path class="st1" d="M478.7,172.3c-1.1,0-2.1-0.1-3-0.3c-2.4-0.5-4.3-2-5.9-3.3c-0.1-0.1-0.3-0.2-0.5-0.4
						c-0.1-0.1-0.2-0.2-0.4-0.3l1.7-3.3c0.8,0.2,1.4,0.3,2,0.3s1.1-0.1,1.5-0.5c0.9-0.7,1.4-2,1.3-3.3c-0.1-1.8-3.5-4.9-6-7.2
						c-2.2-2-4.2-3.8-5.3-5.6c-3.3-5.3-5.1-11.2-5.1-17.1c0-22,23.9-40,53.4-40c29.4,0,53.4,17.9,53.4,40s-23.9,40-53.4,40
						c-6.2,0-11.7-1.2-17.6-2.4l-2.1-0.4c-0.5-0.1-1-0.2-1.4-0.2c-0.3,0-0.6,0-0.9,0.1c-1,0.2-1.8,0.6-2.7,1.2
						c-2,1.4-4.2,2.2-6.8,2.4C480,172.3,479.3,172.3,478.7,172.3z"/>
					<path class="st0" d="M512.3,93.4c28.4,0,51.5,17.1,51.5,38.1s-23.1,38.1-51.5,38.1c-6.7,0-12.8-1.4-19.3-2.8
						c-0.6-0.1-1.2-0.2-1.8-0.2c-0.4,0-0.8,0-1.3,0.1c-1.3,0.2-2.3,0.8-3.4,1.6c-1.8,1.3-3.6,1.9-5.8,2.1c-0.7,0.1-1.3,0.1-2,0.1
						c-0.9,0-1.7-0.1-2.6-0.3c-2-0.4-3.6-1.6-5.2-2.9c-0.2-0.2-0.5-0.4-0.8-0.7c0.9,0.2,1.7,0.4,2.4,0.4c1,0,1.9-0.3,2.7-0.9
						c1.4-1.2,2.1-3.1,1.9-4.9c-0.3-4.2-9.2-9.7-11.7-13.6c-3-4.8-4.8-10.4-4.8-16.1C460.8,110.4,483.9,93.4,512.3,93.4 M512.3,89.6
						c-14.6,0-28.3,4.2-38.7,11.9c-10.7,7.9-16.6,18.6-16.6,30c0,6.2,1.9,12.5,5.4,18.1c1.2,2,3.4,3.9,5.7,6
						c1.8,1.6,5.2,4.7,5.4,5.9c0,0.7-0.2,1.4-0.6,1.7c-0.1,0-0.1,0.1-0.3,0.1c-0.3,0-0.8-0.1-1.5-0.3l-3.4,6.5
						c0.1,0.1,0.2,0.2,0.3,0.3c0.2,0.2,0.3,0.3,0.5,0.4c1.8,1.4,3.9,3,6.7,3.6c1,0.2,2.2,0.4,3.4,0.4c0.7,0,1.4,0,2.3-0.1
						c2.9-0.2,5.4-1.1,7.7-2.8c0.8-0.6,1.3-0.8,1.9-0.9c0.2,0,0.4-0.1,0.6-0.1c0.3,0,0.7,0,1.1,0.1c0.7,0.1,1.4,0.3,2.1,0.4
						c6,1.2,11.6,2.4,18,2.4c14.6,0,28.3-4.2,38.7-11.9c10.7-7.9,16.6-18.6,16.6-30s-5.9-22-16.6-30C540.7,93.8,527,89.6,512.3,89.6
						L512.3,89.6z"/>
				</g>
				<path class="st0" d="M500.7,122.6c0.5,0.3,0.7,1,0.4,1.5c-0.2,0.4-0.6,0.5-1,0.5c-0.2,0-0.4,0-0.5-0.1l-6-3.5
					c-0.5-0.3-0.7-1-0.4-1.5c0.3-0.5,1-0.7,1.5-0.4L500.7,122.6z"/>
				<path class="st0" d="M505.8,119.3c-0.2,0.1-0.4,0.1-0.5,0.1c-0.4,0-0.7-0.2-1-0.5l-3.5-6c-0.3-0.5-0.1-1.2,0.4-1.5
					s1.2-0.1,1.5,0.4l3.5,6C506.5,118.3,506.3,119,505.8,119.3z"/>
				<path class="st0" d="M513.5,116.5c0,0.6-0.5,1.1-1.1,1.1c-0.6,0-1.1-0.5-1.1-1.1v-7c0-0.6,0.5-1.1,1.1-1.1
					c0.6,0,1.1,0.5,1.1,1.1V116.5z"/>
				<path class="st0" d="M523.8,112.9l-3.5,6c-0.2,0.4-0.6,0.5-1,0.5c-0.2,0-0.4,0-0.5-0.1c-0.5-0.3-0.7-1-0.4-1.5l3.5-6
					c0.3-0.5,1-0.7,1.5-0.4S524.2,112.4,523.8,112.9z"/>
				<path class="st0" d="M526.5,131.7c-0.6,0-1.1-0.5-1.1-1.1s0.5-1.1,1.1-1.1h7c0.6,0,1.1,0.5,1.1,1.1s-0.5,1.1-1.1,1.1H526.5z"/>
				<path class="st0" d="M523.7,137.1c0.3-0.5,1-0.7,1.5-0.4l6,3.5c0.5,0.3,0.7,1,0.4,1.5c-0.2,0.4-0.6,0.5-1,0.5
					c-0.2,0-0.4,0-0.5-0.1l-6-3.5C523.5,138.3,523.3,137.6,523.7,137.1z"/>
				<path class="st0" d="M524,122.6l6-3.5c0.5-0.3,1.2-0.1,1.5,0.4s0.1,1.2-0.4,1.5l-6,3.5c-0.2,0.1-0.4,0.1-0.5,0.1
					c-0.4,0-0.7-0.2-1-0.5C523.3,123.5,523.5,122.9,524,122.6z"/>
				<path class="st0" d="M507.4,149.5c-0.4-0.2-0.7-0.5-0.7-1c0-0.6,0.4-1.1,1.1-1.1h9.1c0.6,0,1.1,0.5,1.1,1.1c0,0.4-0.3,0.8-0.7,1
					c0.4,0.2,0.6,0.5,0.6,1c0,0.4-0.3,0.8-0.7,0.9c0.4,0.2,0.6,0.5,0.6,0.9c0,0.6-0.6,1-1.2,1h-8.4c-0.6,0-1.1-0.5-1.2-1
					c0-0.4,0.2-0.7,0.6-0.9c-0.4-0.2-0.6-0.5-0.7-0.9C506.8,150.1,507,149.7,507.4,149.5z"/>
				<path class="st0" d="M511.9,119c6.5-0.3,11.5,5.8,11,12.6c-0.2,2.9-1.5,5.5-3.2,7.3c-1.3,1.3-2.2,4.1-2.6,5.8
					c-0.1,0.4-0.5,0.7-1,0.7h-7.4c-0.5,0-0.9-0.3-1-0.8c-0.4-1.6-1.3-4.4-2.6-5.7c-1.8-1.8-3-4.3-3.3-7.2
					C501.2,125.2,505.6,119.3,511.9,119z"/>
				<path class="st0" d="M493.5,140.1l6-3.5c0.5-0.3,1.2-0.1,1.5,0.4s0.1,1.2-0.4,1.5l-6,3.5c-0.2,0.1-0.4,0.1-0.5,0.1
					c-0.4,0-0.7-0.2-1-0.5C492.8,141.1,493,140.5,493.5,140.1z"/>
				<path class="st0" d="M490.2,130.6c0-0.6,0.5-1.1,1.1-1.1h7c0.6,0,1.1,0.5,1.1,1.1s-0.5,1.1-1.1,1.1h-7
					C490.7,131.7,490.2,131.2,490.2,130.6z"/>
			</g>
			<g>
				<g>
					<ellipse class="st1" cx="273.5" cy="238.9" rx="38.5" ry="56.4"/>
					<path class="st0" d="M273.5,184.7c20,0,36.3,24.3,36.3,54.2s-16.2,54.2-36.3,54.2c-20,0-36.3-24.3-36.3-54.2
						C237.3,208.9,253.6,184.7,273.5,184.7 M273.5,180.3c-11.2,0-21.6,6.3-29.3,17.8c-7.3,11-11.4,25.4-11.4,40.8
						c0,15.3,4,29.8,11.4,40.8c7.7,11.5,18.1,17.8,29.3,17.8s21.6-6.3,29.3-17.8c7.3-11,11.4-25.4,11.4-40.8
						c0-15.3-4-29.8-11.4-40.8C295.1,186.6,284.7,180.3,273.5,180.3L273.5,180.3z"/>
				</g>
				<g>
					
						<ellipse transform="matrix(0.1602 -0.9871 0.9871 0.1602 63.6053 411.3591)" class="st1" cx="273.6" cy="168.3" rx="35.2" ry="35.2"/>
					<path class="st0" d="M273.5,135.3c18.2,0,33,14.8,33,33s-14.8,33-33,33c-18.2,0-33-14.8-33-33S255.3,135.3,273.5,135.3
						 M273.5,130.9c-20.6,0-37.4,16.8-37.4,37.4s16.8,37.4,37.4,37.4c20.6,0,37.4-16.8,37.4-37.4S294.1,130.9,273.5,130.9
						L273.5,130.9z"/>
				</g>
			</g>
			<g>
				<path class="st1" d="M235.6,193.6c-0.6,0-1.3,0-2.1-0.1c-2.6-0.2-4.7-1-6.8-2.4c-0.9-0.6-1.7-1.1-2.7-1.2
					c-0.3-0.1-0.6-0.1-0.9-0.1c-0.5,0-0.9,0.1-1.4,0.2l-2.1,0.4c-5.9,1.2-11.4,2.4-17.6,2.4c-29.4,0-53.4-17.9-53.4-40
					s23.9-40,53.4-40c29.4,0,53.4,17.9,53.4,40c0,5.9-1.8,11.8-5.1,17.1c-1.1,1.8-3.2,3.6-5.3,5.6c-2.5,2.3-5.9,5.4-6,7.2
					c-0.1,1.3,0.4,2.6,1.3,3.3c0.4,0.3,0.9,0.5,1.5,0.5c0.5,0,1.2-0.1,2-0.3l1.7,3.3c-0.1,0.1-0.2,0.2-0.4,0.3s-0.3,0.3-0.5,0.4
					c-1.6,1.3-3.5,2.7-5.9,3.3C237.6,193.5,236.6,193.6,235.6,193.6z M204.6,171.9v-2.3h-2.3v2.3H204.6z M204.6,162.3v-1.5
					c0-3.6,1.9-6.9,5.1-8.9c3.6-2.3,5.6-6.3,5.4-10.5c-0.3-5.9-5.2-10.7-11-11c-0.2,0-0.4,0-0.6,0c-3,0-5.8,1.1-8,3.2
					c-1.9,1.8-3.1,4.1-3.5,6.6h2.3c0.4-1.9,1.3-3.6,2.7-4.9c1.7-1.7,4-2.6,6.4-2.6c0.2,0,0.4,0,0.5,0c4.7,0.2,8.6,4.1,8.9,8.9
					c0.2,3.4-1.5,6.6-4.4,8.4c-3.9,2.4-6.2,6.5-6.2,10.9v1.5L204.6,162.3L204.6,162.3z"/>
				<path class="st0" d="M202.1,114.6c28.4,0,51.5,17.1,51.5,38.1c0,5.7-1.8,11.3-4.8,16.1c-2.4,3.9-11.3,9.4-11.7,13.6
					c-0.1,1.8,0.5,3.8,1.9,4.9c0.8,0.7,1.7,0.9,2.7,0.9c0.8,0,1.6-0.2,2.4-0.4c-0.3,0.2-0.6,0.5-0.8,0.7c-1.6,1.3-3.2,2.4-5.2,2.9
					c-0.8,0.2-1.7,0.3-2.6,0.3c-0.7,0-1.3,0-2-0.1c-2.2-0.2-4-0.8-5.8-2.1c-1.1-0.8-2.1-1.3-3.4-1.6c-0.4-0.1-0.8-0.1-1.3-0.1
					c-0.6,0-1.2,0.1-1.8,0.2c-6.5,1.3-12.6,2.8-19.3,2.8c-28.4,0-51.5-17.1-51.5-38.1C150.6,131.7,173.6,114.6,202.1,114.6
					 M189.8,142h6.1c0-2.1,0.8-4,2.3-5.4c1.4-1.3,3.2-2.1,5.1-2.1c0.1,0,0.3,0,0.4,0c3.8,0.2,6.9,3.3,7.1,7.1
					c0.1,2.7-1.2,5.3-3.5,6.7c-4.4,2.8-7,7.4-7,12.5v3.4h6.1v-3.4c0-2.9,1.6-5.7,4.2-7.3c4.1-2.6,6.5-7.3,6.3-12.2
					c-0.4-6.8-6-12.4-12.8-12.8c-0.2,0-0.5,0-0.7,0c-3.5,0-6.8,1.3-9.3,3.7C191.4,134.7,189.8,138.3,189.8,142 M200.3,173.8h6.1
					v-6.1h-6.1V173.8 M202.1,110.9c-14.6,0-28.3,4.2-38.7,11.9c-10.7,7.9-16.6,18.6-16.6,30s5.9,22,16.6,30
					c10.4,7.7,24.1,11.9,38.7,11.9c6.4,0,12-1.2,18-2.4c0.7-0.1,1.4-0.3,2.1-0.4c0.4-0.1,0.7-0.1,1.1-0.1c0.2,0,0.4,0,0.6,0.1
					c0.6,0.1,1.1,0.4,1.9,0.9c2.3,1.6,4.8,2.5,7.7,2.8c0.9,0.1,1.6,0.1,2.3,0.1c1.2,0,2.4-0.1,3.4-0.4c2.8-0.6,4.9-2.2,6.7-3.6
					c0.2-0.1,0.3-0.3,0.5-0.4c0.1-0.1,0.2-0.2,0.3-0.3l-3.4-6.5c-0.6,0.2-1.1,0.3-1.5,0.3c-0.1,0-0.2,0-0.2,0
					c-0.4-0.4-0.7-1.1-0.6-1.8c0.3-1.2,3.6-4.3,5.4-5.9c2.3-2.1,4.4-4,5.7-6c3.5-5.6,5.4-11.9,5.4-18.1c0-11.4-5.9-22-16.6-30
					C230.3,115.1,216.6,110.9,202.1,110.9L202.1,110.9z"/>
			</g>
		</g>
		<g>
			<path class="st0" d="M28.1,555.8v7.3h-1.4v-20.8h5c3.4,0,5,1.1,5,5.8v1.8c0,4.5-1.6,5.9-5,5.9H28.1z M31.7,554.5
				c2.9,0,3.6-1.2,3.6-4.5v-1.7c0-3.3-0.5-4.7-3.6-4.7h-3.6v10.9H31.7z"/>
			<path class="st0" d="M43.5,563.1c-3.3,0.2-3.9-0.9-3.9-4.4v-16.4H41v16.4c0,2.8,0.3,3.1,2.5,3.1V563.1z"/>
			<path class="st0" d="M54.5,563.1V561c-1.1,1.7-2.5,2.2-4.6,2.2c-2.6,0-4.4-1.2-4.4-4.2c0-3.9,3.4-4.7,8.9-4.3v-2.3
				c0-2.8-0.9-4-3.4-4c-2.2,0-3.4,0.7-3.4,3.7h-1.3c0-3.3,1.3-4.9,4.7-4.9c3.2,0,4.7,1.5,4.7,5.2V563L54.5,563.1L54.5,563.1z
				 M54.4,556.1c-5.1-0.5-7.5,0.3-7.5,3c0,2,1.2,2.9,3.5,2.9c3,0,4-2.3,4-3.9V556.1z"/>
			<path class="st0" d="M59.1,543.7l1.3-0.2v3.7h3.3v1.3h-3.3v10.2c0,2.9,0.9,3.5,3.4,3.3v1.2c-3.6,0.3-4.8-1-4.8-4.5L59.1,543.7
				L59.1,543.7z"/>
			<path class="st0" d="M74.9,563.1V561c-1.1,1.7-2.5,2.2-4.6,2.2c-2.6,0-4.4-1.2-4.4-4.2c0-3.9,3.4-4.7,8.9-4.3v-2.3
				c0-2.8-0.9-4-3.4-4c-2.2,0-3.4,0.7-3.4,3.7h-1.3c0-3.3,1.3-4.9,4.7-4.9c3.2,0,4.7,1.5,4.7,5.2V563L74.9,563.1L74.9,563.1z
				 M74.8,556.1c-5.1-0.5-7.5,0.3-7.5,3c0,2,1.2,2.9,3.5,2.9c3,0,4-2.3,4-3.9V556.1z"/>
			<path class="st0" d="M83.8,550h-3.1v13.1h-1.3v-15.3c0-4.1,1.5-5.8,5-5.6v1.2c-2.9-0.2-3.6,1.1-3.6,4.4v1h3.1L83.8,550L83.8,550z
				"/>
			<path class="st0" d="M86,557.4v-4.3c0-4.4,1.6-5.9,5-5.9s5,1.3,5,5.9v4.2c0,4.4-1.6,5.9-5,5.9C87.6,563.3,86,561.9,86,557.4z
				 M94.6,557.3v-4.2c0-3.4-0.5-4.7-3.6-4.7c-2.9,0-3.6,1.3-3.6,4.6v4.2c0,3.4,0.5,4.8,3.6,4.8C93.9,562,94.6,560.6,94.6,557.3z"/>
			<path class="st0" d="M100.1,547.2l0.1,1.9c0.6-1.3,2.3-2.2,4.2-1.9v1.3c-2.4-0.4-4.1,1.2-4.1,3.4v11.2H99v-15.9H100.1z"/>
			<path class="st0" d="M107.2,547.4h1.2l0.1,1.3c0.8-1.1,2.2-1.6,3.9-1.6c2.3,0,3.7,1,4.2,2.3c1.3-2,2.8-2.3,4.5-2.3
				c3.8,0,4.8,2,4.8,5.8v10.2h-1.3v-10.2c0-3.3-0.6-4.5-3.6-4.5c-2.9,0-3.8,1.8-3.8,4.1v10.6h-1.3v-10.2c0-2.9-0.6-4.5-3.6-4.5
				c-2.9,0-3.8,1.4-3.8,3.6v11.1h-1.3L107.2,547.4L107.2,547.4z"/>
			<path class="st0" d="M138.2,563.1V561c-1.1,1.7-2.5,2.2-4.6,2.2c-2.6,0-4.4-1.2-4.4-4.2c0-3.9,3.4-4.7,8.9-4.3v-2.3
				c0-2.8-0.9-4-3.4-4c-2.2,0-3.4,0.7-3.4,3.7H130c0-3.3,1.3-4.9,4.7-4.9c3.2,0,4.7,1.5,4.7,5.2V563L138.2,563.1L138.2,563.1z
				 M138,556.1c-5.1-0.5-7.5,0.3-7.5,3c0,2,1.2,2.9,3.5,2.9c3,0,4-2.3,4-3.9V556.1z"/>
			<path class="st0" d="M149.1,557.2v-3.8c0-4.2,2-6.2,6.2-6.2s6.2,1.9,6.2,6.2v3.8c0,4.3-2,6.2-6.2,6.2S149.1,561.4,149.1,557.2z
				 M157.7,557v-3.4c0-2-0.5-3.1-2.4-3.1s-2.4,1.1-2.4,3.1v3.4c0,2,0.5,3.1,2.4,3.1S157.7,558.9,157.7,557z"/>
			<path class="st0" d="M167.6,547.2l0.3,1.7c0.6-1.1,1.9-1.8,3.7-1.8c3.1,0,5.2,1.7,5.2,6.1v4.1c0,3.7-1.8,5.9-5.3,5.9
				c-1.3,0-2.6-0.3-3.3-1.4v6.1h-3.7v-20.7L167.6,547.2L167.6,547.2z M173.2,557.2v-3.7c0-2.3-0.9-3-2.4-3c-1.8,0-2.5,1.3-2.5,3.2
				v3.6c0,1.9,0.9,2.6,2.4,2.6C172.2,559.8,173.2,559.1,173.2,557.2z"/>
			<path class="st0" d="M192.2,558.2c0,3.3-2,4.9-6.2,4.9s-6.2-1.9-6.2-6.2v-3.6c0-4,2-6.2,6.2-6.2s6.2,1.9,6.2,6.2v3.1h-8.6v0.4
				c0,2.6,1,3,2.5,3c1.7,0,2.5-0.6,2.5-1.7L192.2,558.2L192.2,558.2z M183.6,553.4h5c0-2-0.4-3.1-2.5-3.1
				C184,550.4,183.6,551.5,183.6,553.4z"/>
			<path class="st0" d="M195.8,547.2h3.2l0.2,1.6c1-1.2,2.4-1.7,3.7-1.7c2.6,0,5.2,1.3,5.2,6.2v9.8h-3.7v-9.8c0-2-0.9-2.9-2.4-2.9
				c-1.4,0-2.6,0.7-2.6,2.7v9.9h-3.7v-15.8H195.8z"/>
			<path class="st0" d="M219.3,552.2c0-1.2-0.9-1.7-2.1-1.7c-1.4,0-2.3,0.6-2.3,1.7c0,1.7,1.8,1.5,4,1.7c2.1,0.2,4.3,1.5,4.3,4.3
				c0,3.5-2.7,5-6.1,5c-3.8,0-6-1.9-6-5h3.7c0.1,1.1,0.7,1.7,2.4,1.7c1.5,0,2.2-0.8,2.2-1.6c0-1.3-1.7-1.4-3.7-1.6
				c-2.3-0.3-4.5-1.3-4.5-4.4c0-3.6,2.6-5.2,6-5.2c3.9,0,5.8,2.2,5.8,5.1H219.3z"/>
			<path class="st0" d="M225.5,557.2v-3.8c0-4.2,2-6.2,6.2-6.2s6.2,1.9,6.2,6.2v3.8c0,4.3-2,6.2-6.2,6.2
				C227.5,563.3,225.5,561.4,225.5,557.2z M234.1,557v-3.4c0-2-0.5-3.1-2.4-3.1s-2.4,1.1-2.4,3.1v3.4c0,2,0.5,3.1,2.4,3.1
				S234.1,558.9,234.1,557z"/>
			<path class="st0" d="M253.4,563.1h-3.3l-0.2-1.6c-1,1.2-2.4,1.7-3.7,1.7c-2.6,0-5.2-1.3-5.2-6.2v-9.8h3.7v9.8
				c0,2,0.9,2.9,2.4,2.9c1.4,0,2.6-0.7,2.6-2.7v-9.9h3.8v15.8H253.4z"/>
			<path class="st0" d="M264.8,551c-2.4-0.3-4.3,0.6-4.3,3v9.1h-3.7v-15.9h3.4l0.2,1.7c0.6-1.1,2.4-2.1,4.4-1.7V551z"/>
			<path class="st0" d="M275.4,553.1c0-1.8-0.6-2.7-2.5-2.7c-2,0-2.6,1.1-2.6,3.1v3.4c0,2,0.5,3.1,2.4,3.1s2.6-0.8,2.7-2.7h3.5
				c0,4.3-2,6-6.2,6s-6.2-1.9-6.2-6.3v-3.6c0-4.3,2.1-6.4,6.3-6.4c4.2,0,6.1,1.7,6.1,6h-3.5V553.1z"/>
			<path class="st0" d="M293.8,558.2c0,3.3-2,4.9-6.2,4.9s-6.2-1.9-6.2-6.2v-3.6c0-4,2-6.2,6.2-6.2s6.2,1.9,6.2,6.2v3.1h-8.6v0.4
				c0,2.6,1,3,2.5,3c1.7,0,2.5-0.6,2.5-1.7L293.8,558.2L293.8,558.2z M285.2,553.4h5c0-2-0.4-3.1-2.5-3.1
				C285.6,550.4,285.2,551.5,285.2,553.4z"/>
			<path class="st0" d="M303.5,557.5v-5.1c0-3.7,1.9-5.2,5-5.2c1.6,0,2.8,0.4,3.6,1.4v-7.3h1.3v21.9h-1.2l-0.1-1.7
				c-0.8,1.1-2,1.8-3.9,1.8C304.9,563.2,303.5,561.6,303.5,557.5z M308.3,561.9c2.7-0.1,3.7-1.5,3.7-4.1v-5.2c0-3-0.7-4.2-3.6-4.2
				s-3.6,1.4-3.6,4.1v5C304.8,561,306,561.9,308.3,561.9z"/>
			<path class="st0" d="M326.5,558.8c0,2.9-1.5,4.4-4.7,4.4c-3.4,0-5-1.6-5-5.8v-4.2c0-4.3,1.6-5.9,5-5.9c3.6,0,4.8,1.8,4.8,5.9v2.3
				h-8.5v1.8c0,3.2,0.8,4.7,3.7,4.7c2.9,0,3.4-1.3,3.4-3.1h1.3V558.8z M325.5,554.2v-1.1c0-3-0.5-4.8-3.7-4.8
				c-2.9,0-3.7,1.5-3.7,4.8v1.2h7.4V554.2z"/>
			<path class="st0" d="M336.3,557.2v-3.8c0-4.2,2-6.2,6.2-6.2s6.2,1.9,6.2,6.2v3.8c0,4.3-2,6.2-6.2,6.2
				C338.3,563.3,336.3,561.4,336.3,557.2z M344.9,557v-3.4c0-2-0.5-3.1-2.4-3.1s-2.4,1.1-2.4,3.1v3.4c0,2,0.5,3.1,2.4,3.1
				S344.9,558.9,344.9,557z"/>
			<path class="st0" d="M359.5,551c-2.4-0.3-4.3,0.6-4.3,3v9.1h-3.7v-15.9h3.4l0.2,1.7c0.6-1.1,2.4-2.1,4.4-1.7V551z"/>
			<path class="st0" d="M366.1,563.3c-3.3-0.3-4.9-2.3-4.9-6.2v-3.6c0-4.3,2.1-6.4,6.3-6.4c4.2,0,6.1,1.7,6.1,6H370
				c0-1.8-0.6-2.7-2.5-2.7c-2,0-2.6,1.1-2.6,3.1v3.4c0,2,0.5,3.1,2.4,3.1s2.6-0.8,2.7-2.7h3.5c0,3.7-1.5,5.5-4.7,5.9l-0.3,0.9
				c2.2,0.1,2.7,1.7,2.4,3.2c-0.8,2.9-5.2,3.2-7.2,1.1l1.2-1.7c0.6,0.6,2.6,1.2,3,0c0.2-0.8-1-1.3-2.5-1.4L366.1,563.3z"/>
			<path class="st0" d="M376.2,552.7c-0.2-4,1.9-5.5,5.7-5.5c4.1,0,5.9,2.1,5.9,6.2v9.8h-3l-0.3-1.8c-0.9,1.2-2.4,2-4.2,2
				c-2.6,0-4.6-1.5-4.6-4.5c0-3.7,3.1-5.2,8.6-4.8c0-2.4-0.5-3.6-2.4-3.6c-1.6,0-2.2,0.6-2.2,2.3h-3.5V552.7z M379.2,558.5
				c0,1,0.9,1.4,2.2,1.4c2.2,0,2.7-1.6,2.9-3.1C380.5,556.4,379.2,557.2,379.2,558.5z"/>
			<path class="st0" d="M391.4,547.2h3.2l0.2,1.6c0.9-1.2,2.3-1.7,3.7-1.7c1.6,0,3.1,0.5,3.9,2c0.8-1.2,2.5-2,4.5-2
				c3.3,0,5.2,1.9,5.2,6.2v9.8h-3.7v-9.8c0-2-0.8-2.9-2.4-2.9c-1.4,0-2.4,0.6-2.5,2.9v9.8H400v-9.8c0-2-0.8-2.9-2.4-2.9
				c-1.4,0-2.6,0.7-2.6,2.7v9.9h-3.7v-15.8H391.4z"/>
			<path class="st0" d="M428,558.2c0,3.3-2,4.9-6.2,4.9s-6.2-1.9-6.2-6.2v-3.6c0-4,2-6.2,6.2-6.2s6.2,1.9,6.2,6.2v3.1h-8.6v0.4
				c0,2.6,1,3,2.5,3c1.7,0,2.5-0.6,2.5-1.7L428,558.2L428,558.2z M419.3,553.4h5c0-2-0.4-3.1-2.5-3.1
				C419.7,550.4,419.3,551.5,419.3,553.4z"/>
			<path class="st0" d="M431.5,547.2h3.2l0.2,1.6c1-1.2,2.4-1.7,3.7-1.7c2.6,0,5.2,1.3,5.2,6.2v9.8h-3.7v-9.8c0-2-0.9-2.9-2.4-2.9
				c-1.4,0-2.6,0.7-2.6,2.7v9.9h-3.7L431.5,547.2L431.5,547.2z"/>
			<path class="st0" d="M447,544.5l3.7-0.4v3.1h2.7v3.4h-2.7v6.7c0,1.7,0.3,2.9,2.7,2.6v3.2c-4.7,0.5-6.4-1.1-6.4-5.8L447,544.5
				L447,544.5z"/>
			<path class="st0" d="M455.7,557.2v-3.8c0-4.2,2-6.2,6.2-6.2s6.2,1.9,6.2,6.2v3.8c0,4.3-2,6.2-6.2,6.2
				C457.6,563.3,455.7,561.4,455.7,557.2z M464.3,557v-3.4c0-2-0.5-3.1-2.4-3.1s-2.4,1.1-2.4,3.1v3.4c0,2,0.5,3.1,2.4,3.1
				S464.3,558.9,464.3,557z"/>
			<path class="st0" d="M480.9,547.2l0.3,1.7c0.6-1.1,1.9-1.8,3.7-1.8c3.1,0,5.2,1.7,5.2,6.1v4.1c0,3.7-1.8,5.9-5.3,5.9
				c-1.3,0-2.6-0.3-3.3-1.4v6.1h-3.7v-20.7L480.9,547.2L480.9,547.2z M486.4,557.2v-3.7c0-2.3-0.9-3-2.4-3c-1.8,0-2.5,1.3-2.5,3.2
				v3.6c0,1.9,0.9,2.6,2.4,2.6C485.5,559.8,486.4,559.1,486.4,557.2z"/>
			<path class="st0" d="M493.2,552.7c-0.2-4,1.9-5.5,5.7-5.5c4.1,0,5.9,2.1,5.9,6.2v9.8h-3l-0.3-1.8c-0.9,1.2-2.4,2-4.2,2
				c-2.6,0-4.6-1.5-4.6-4.5c0-3.7,3.1-5.2,8.6-4.8c0-2.4-0.5-3.6-2.4-3.6c-1.6,0-2.2,0.6-2.2,2.3h-3.5V552.7z M496.2,558.5
				c0,1,0.9,1.4,2.2,1.4c2.2,0,2.7-1.6,2.9-3.1C497.6,556.4,496.2,557.2,496.2,558.5z"/>
			<path class="st0" d="M516,551c-2.4-0.3-4.3,0.6-4.3,3v9.1H508v-15.9h3.4l0.2,1.7c0.6-1.1,2.4-2.1,4.4-1.7V551z"/>
			<path class="st0" d="M518.5,544.5l3.7-0.4v3.1h2.7v3.4h-2.7v6.7c0,1.7,0.3,2.9,2.7,2.6v3.2c-4.7,0.5-6.4-1.1-6.4-5.8V544.5z"/>
			<path class="st0" d="M531.6,544c0,2.7-4.2,2.7-4.2,0C527.4,541.3,531.6,541.3,531.6,544z M531.3,563.1h-3.7v-15.6h3.7V563.1z"/>
			<path class="st0" d="M543.4,553.1c0-1.8-0.6-2.7-2.5-2.7c-2,0-2.6,1.1-2.6,3.1v3.4c0,2,0.5,3.1,2.4,3.1s2.6-0.8,2.7-2.7h3.5
				c0,4.3-2,6-6.2,6s-6.2-1.9-6.2-6.3v-3.6c0-4.3,2.1-6.4,6.3-6.4s6.1,1.7,6.1,6h-3.5V553.1z"/>
			<path class="st0" d="M554,544c0,2.7-4.2,2.7-4.2,0C549.9,541.3,554,541.3,554,544z M553.8,563.1h-3.7v-15.6h3.7V563.1z"/>
			<path class="st0" d="M560.5,547.2l0.3,1.7c0.6-1.1,1.9-1.8,3.7-1.8c3.1,0,5.2,1.7,5.2,6.1v4.1c0,3.7-1.8,5.9-5.3,5.9
				c-1.3,0-2.6-0.3-3.3-1.4v6.1h-3.7v-20.7L560.5,547.2L560.5,547.2z M566.1,557.2v-3.7c0-2.3-0.9-3-2.4-3c-1.8,0-2.5,1.3-2.5,3.2
				v3.6c0,1.9,0.9,2.6,2.4,2.6C565.1,559.8,566.1,559.1,566.1,557.2z"/>
			<path class="st0" d="M572.8,552.7c-0.2-4,1.9-5.5,5.7-5.5c4.1,0,5.9,2.1,5.9,6.2v9.8h-3l-0.3-1.8c-0.9,1.2-2.4,2-4.2,2
				c-2.6,0-4.6-1.5-4.6-4.5c0-3.7,3.1-5.2,8.6-4.8c0-2.4-0.5-3.6-2.4-3.6c-1.6,0-2.2,0.6-2.2,2.3h-3.5V552.7z M575.9,558.5
				c0,1,0.9,1.4,2.2,1.4c2.2,0,2.7-1.6,2.9-3.1C577.2,556.4,575.9,557.2,575.9,558.5z"/>
			<path class="st0" d="M587.7,544.5l3.7-0.4v3.1h2.7v3.4h-2.7v6.7c0,1.7,0.3,2.9,2.7,2.6v3.2c-4.7,0.5-6.4-1.1-6.4-5.8V544.5z"/>
			<path class="st0" d="M600.9,544c0,2.7-4.2,2.7-4.2,0S600.9,541.3,600.9,544z M600.6,563.1h-3.7v-15.6h3.7V563.1z"/>
			<path class="st0" d="M615.6,547.2l-4.9,15.9h-3.3l-4.9-15.9h3.8l1.4,4.8c0.5,2.2,1,4.7,1.2,6.7c0.3-2,0.7-4.5,1.2-6.7l1.4-4.8
				H615.6z"/>
			<path class="st0" d="M617,557.2v-3.8c0-4.2,2-6.2,6.2-6.2s6.2,1.9,6.2,6.2v3.8c0,4.3-2,6.2-6.2,6.2
				C619,563.3,617,561.4,617,557.2z M625.6,557v-3.4c0-2-0.5-3.1-2.4-3.1s-2.4,1.1-2.4,3.1v3.4c0,2,0.5,3.1,2.4,3.1
				S625.6,558.9,625.6,557z"/>
		</g>
	</g>
</g>
<g id="Layer_4">
</g>
</svg>
