<?xml version="1.0" encoding="utf-8"?>
<!-- Generator: Adobe Illustrator 22.0.1, SVG Export Plug-In . SVG Version: 6.00 Build 0)  -->
<svg version="1.1" xmlns="http://www.w3.org/2000/svg" xmlns:xlink="http://www.w3.org/1999/xlink" x="0px" y="0px"
	 viewBox="0 0 221.3 40.7" style="enable-background:new 0 0 221.3 40.7;" xml:space="preserve">
<style type="text/css">
	.st0{fill:#80B941;}
	.st1{fill:#C3C3C3;}
	.st2{fill-rule:evenodd;clip-rule:evenodd;fill:#231F20;}
	.st3{fill:#231F20;}
	.st4{fill:#DC2C2C;}
	.st5{fill:#404041;}
	.st6{fill:#FFFFFF;stroke:#2EA8DF;stroke-width:4.3004;stroke-linecap:round;stroke-linejoin:round;stroke-miterlimit:10;}
	.st7{fill:#2EA8DF;stroke:#FFFFFF;stroke-width:10.4776;stroke-linecap:round;stroke-linejoin:round;stroke-miterlimit:10;}
	.st8{fill:#FFFFFF;stroke:#2EA8DF;stroke-width:4.5392;stroke-linecap:round;stroke-linejoin:round;stroke-miterlimit:10;}
	.st9{fill:#2EA8DF;}
	.st10{fill:#FFFFFF;stroke:#2EA8DF;stroke-width:1.9357;stroke-miterlimit:10;}
	.st11{fill:#FFFFFF;}
	.st12{fill:none;stroke:#2EA8DF;stroke-width:1.1802;stroke-miterlimit:10;}
	.st13{fill:#FFFFFF;stroke:#2EA8DF;stroke-width:1.1802;stroke-miterlimit:10;}
	.st14{fill:#30A7DE;}
	.st15{fill:#E1E1E1;}
	.st16{fill:none;stroke:#30A7DE;stroke-width:4;stroke-miterlimit:10;}
	.st17{fill:#B9B9B9;}
	.st18{fill:#2EA8DF;stroke:#FFFFFF;stroke-width:15.285;stroke-linecap:round;stroke-linejoin:round;stroke-miterlimit:10;}
	.st19{fill:#2EA8DF;stroke:#2EA8DF;stroke-width:6.2735;stroke-linecap:round;stroke-linejoin:round;stroke-miterlimit:10;}
	.st20{fill:#E1E1E1;stroke:#2EA8DF;stroke-width:6.6219;stroke-linecap:round;stroke-linejoin:round;stroke-miterlimit:10;}
	.st21{fill:#FFFFFF;stroke:#2EA8DF;stroke-width:2.8239;stroke-miterlimit:10;}
	.st22{fill:none;stroke:#2EA8DF;stroke-width:1.7217;stroke-miterlimit:10;}
	.st23{fill:#FFFFFF;stroke:#2EA8DF;stroke-width:1.7217;stroke-miterlimit:10;}
	.st24{fill:#F3F3F3;}
	.st25{fill:#487013;}
	.st26{fill:#F1F1F1;}
	.st27{fill:#333333;}
	.st28{fill-rule:evenodd;clip-rule:evenodd;fill:#FFFFFF;}
	.st29{fill:none;stroke:#80B941;stroke-width:3;stroke-miterlimit:10;}
	.st30{fill:#666666;}
	.st31{fill-rule:evenodd;clip-rule:evenodd;fill:#909090;}
	.st32{fill:#909090;}
	.st33{fill-rule:evenodd;clip-rule:evenodd;fill:#C3C3C3;}
	.st34{display:none;}
	.st35{display:inline;}
	.st36{fill:none;stroke:#C3C3C3;stroke-width:3.2359;stroke-miterlimit:10;}
	.st37{fill:none;stroke:#C3C3C3;stroke-width:4;stroke-miterlimit:10;}
	.st38{fill-rule:evenodd;clip-rule:evenodd;fill:#80B941;}
	.st39{fill-rule:evenodd;clip-rule:evenodd;fill:none;stroke:#E0E0E0;stroke-width:0.7966;stroke-miterlimit:10;}
	.st40{fill:#CECECE;}
	.st41{fill:#828282;}
	.st42{opacity:0.7;}
	.st43{fill:#24A8EA;}
	.st44{opacity:0.8;}
	.st45{display:inline;fill:#FFFFFF;}
	.st46{fill:#E6ED4F;}
	.st47{fill:#FFFFFF;stroke:#80B941;stroke-width:10;stroke-linejoin:bevel;stroke-miterlimit:10;}
	.st48{fill:none;stroke:#80B941;stroke-width:6;stroke-miterlimit:10;}
	.st49{fill:#FFFFFF;stroke:#80B941;stroke-width:6;stroke-miterlimit:10;}
	.st50{opacity:0.6;fill:#FFFFFF;}
</style>
<g id="Layer_1">
</g>
<g id="Layer_2">
</g>
<g id="Layer_3">
	<g>
		<g>
			<g>
				<path class="st11" d="M24.8,27.1c0,5.2-5,8.2-9.6,8.2c-4.6,0-9.6-3-9.6-8.2V13.5c0-5.1,5-8.2,9.6-8.2c4.7,0,9.6,3.1,9.6,8.2
					V27.1z M19.8,27.1V13.5c0-1.9-2.1-3.3-4.7-3.3c-2.6,0-4.7,1.4-4.7,3.3v13.6c0,1.9,2.1,3.3,4.7,3.3
					C17.8,30.4,19.8,29.1,19.8,27.1z"/>
				<path class="st11" d="M47.9,7.8l0,24.5c0,1.3-0.2,3-2.4,3c-1,0-1.8-0.5-2.2-1.4l-9.7-16.7v15.6c0,1.4-1.2,2.4-2.5,2.4
					c-1.3,0-2.4-1.1-2.4-2.4V7.8c0-2.8,3.6-3.3,4.8-0.9L43,23.5l0-15.7c0-1.3,1.1-2.5,2.5-2.5C46.8,5.3,47.9,6.5,47.9,7.8z"/>
				<path class="st11" d="M70,32.9c0,1.1-0.8,2.4-2.3,2.4H54.3c-1.4,0-2.4-1-2.4-2.4V7.8c0-0.5,0-1.2,0.7-1.9
					c0.6-0.6,1.2-0.6,1.7-0.6h13.3c1.4,0,2.4,1.2,2.4,2.5c0,1.3-1.1,2.4-2.4,2.4l-10.8,0v7.5h9.3c1.4,0,2.5,1.1,2.5,2.4
					c0,1.4-1.1,2.5-2.4,2.5l-9.4,0v7.7l10.8,0C68.9,30.4,70,31.6,70,32.9z"/>
			</g>
			<g>
				<path class="st11" d="M143.8,5.5c0,6.6,0,20.1,0,20.1c0,5.6-4.6,10.2-10.2,10.2c-5.6,0-10.2-4.6-10.2-10.2V5.5h2.3v20.1
					c0,4.3,3.5,7.9,7.9,7.9c4.3,0,7.9-3.5,7.9-7.9c0,0,0-13.5,0-20.1L143.8,5.5z"/>
				<path class="st11" d="M129.8,5.5v20.1c0,2.1,1.8,3.9,3.9,3.9c2.1,0,3.9-1.8,3.9-3.9l0-20.1l2.3,0l0,20.1c0,3.4-2.8,6.2-6.2,6.2
					c-3.4,0-6.2-2.8-6.2-6.2V5.5H129.8z"/>
			</g>
			<path class="st11" d="M119.4,27c0,5.7-5.4,8.8-10.2,8.8c-4.8,0-10.2-3.1-10.2-8.8V13.7c0-5.6,5.4-8.8,10.2-8.8s10.2,3.2,10.2,8.8
				V27z M117.1,27V13.7c0-3.8-3.8-6.5-7.9-6.5c-4.1,0-7.9,2.7-7.9,6.5V27c0,3.9,3.8,6.5,7.9,6.5C113.3,33.4,117.1,30.8,117.1,27z
				 M113.1,27V13.7c0-1.2-1.4-2.5-3.9-2.5c-2.5,0-3.9,1.3-3.9,2.5V27c0,1.3,1.4,2.5,3.9,2.5C111.7,29.4,113.1,28.2,113.1,27z
				 M115.4,27c0,3.3-3.4,4.8-6.2,4.8c-2.9,0-6.2-1.5-6.2-4.8V13.7c0-3.3,3.4-4.8,6.2-4.8c2.9,0,6.2,1.6,6.2,4.8V27z M113.1,27V13.7
				c0-1.2-1.4-2.5-3.9-2.5c-2.5,0-3.9,1.3-3.9,2.5V27c0,1.3,1.4,2.5,3.9,2.5C111.7,29.4,113.1,28.2,113.1,27z M115.4,27
				c0,3.3-3.4,4.8-6.2,4.8c-2.9,0-6.2-1.5-6.2-4.8V13.7c0-3.3,3.4-4.8,6.2-4.8c2.9,0,6.2,1.6,6.2,4.8V27z M119.4,27
				c0,5.7-5.4,8.8-10.2,8.8c-4.8,0-10.2-3.1-10.2-8.8V13.7c0-5.6,5.4-8.8,10.2-8.8s10.2,3.2,10.2,8.8V27z M117.1,27V13.7
				c0-3.8-3.8-6.5-7.9-6.5c-4.1,0-7.9,2.7-7.9,6.5V27c0,3.9,3.8,6.5,7.9,6.5C113.3,33.4,117.1,30.8,117.1,27z"/>
			<g>
				<path class="st11" d="M88.7,13.7c0-1.2-1.4-2.5-3.9-2.5c-2.5,0-3.9,1.3-3.9,2.5c0,0.7,0.2,1.1,0.8,1.6l9.6,4.8
					C93.9,21.9,95,24,95,27c0,5.6-5.4,8.8-10.2,8.8c-4.8,0-10.2-3.2-10.2-8.8c0-1.8,1.5-3.1,3.2-3.1c1.7,0,3.1,1.4,3.1,3.1
					c0,1.2,1.4,2.5,3.9,2.5c2.5,0,3.9-1.3,3.9-2.5c0-0.6-0.2-1-0.8-1.5l-9.5-4.8c-2.5-1.7-3.9-3.9-3.9-7c0-5.6,5.4-8.8,10.2-8.8
					c4.8,0,10.2,3.2,10.2,8.8h-2.3c0-3.8-3.8-6.5-7.9-6.5c-4.1,0-7.9,2.7-7.9,6.5c0,2.2,0.9,3.7,2.7,4.9l9.5,4.8
					c1.2,0.9,1.8,2,1.8,3.5c0,3.3-3.4,4.8-6.2,4.8c-2.9,0-6.2-1.6-6.2-4.8c0-0.4-0.4-0.8-0.8-0.8c-0.5,0-0.8,0.4-0.9,0.8
					c0,3.8,3.8,6.5,7.9,6.5c4.1,0,7.9-2.7,7.9-6.5c0-1.6-0.3-3.2-2.5-4.9l-9.7-4.9c-1.2-0.9-1.9-2-1.9-3.6c0-3.2,3.4-4.8,6.2-4.8
					c2.9,0,6.2,1.6,6.2,4.8H88.7z"/>
			</g>
			<g>
				<path class="st11" d="M186.1,13.7c0-1.2-1.4-2.5-3.9-2.5c-2.5,0-3.9,1.3-3.9,2.5V27c0,1.3,1.4,2.5,3.9,2.5
					c2.5,0,3.9-1.2,3.9-2.5c0-1.8,1.5-3.1,3.2-3.1c1.7,0,3.1,1.4,3.1,3.1c0,5.7-5.4,8.8-10.2,8.8c-4.8,0-10.2-3.1-10.2-8.8V13.7
					c0-5.6,5.4-8.8,10.2-8.8c4.8,0,10.2,3.2,10.2,8.8h-2.3c0-3.8-3.8-6.5-7.9-6.5c-4.1,0-7.9,2.7-7.9,6.5V27c0,3.9,3.8,6.5,7.9,6.5
					c4.1,0,7.9-2.6,7.9-6.5c0-0.4-0.4-0.8-0.8-0.8c-0.5,0-0.9,0.4-0.9,0.8c0,3.3-3.4,4.8-6.2,4.8c-2.9,0-6.2-1.5-6.2-4.8V13.7
					c0-3.3,3.4-4.8,6.2-4.8c2.9,0,6.2,1.6,6.2,4.8H186.1z"/>
			</g>
			<g>
				<path class="st11" d="M212.7,24.1l-9.9,0v5.4l10,0c1.9,0,3,1.6,3,3.2c0,1.4-1,3.1-3,3.1h-12.8c-1.9,0-3.5-1.4-3.5-3.5l0-24.2
					c0.1-1.5,1.3-3.2,3.3-3.2l12.9,0c1.8,0,3.1,1.5,3.1,3.2c0,1.7-1.4,3.1-3.1,3.1h-9.9v6.6h9.9v2.3h-12.2l0-11.2l12.2,0
					c0.4,0,0.8-0.4,0.8-0.8c0-0.5-0.4-0.9-0.8-0.9l-13,0c-0.4,0-0.9,0.4-0.9,0.9v24.2c0,0.8,0.5,1.2,1.2,1.2l12.9,0
					c0.3,0,0.7-0.3,0.7-0.8c0-0.6-0.4-0.9-0.7-0.9l-12.3,0l0-10.1h12.3V24.1z"/>
			</g>
			<path class="st28" d="M164.2,15.1c0,3.5-2.8,6.3-6.2,6.3l-6.2,0V8.9l6.2,0C161.4,8.9,164.2,11.7,164.2,15.1z M161.9,15.1
				c0-2.1-1.8-3.9-3.9-3.9h-3.9V19l3.9,0C160.1,19,161.9,17.3,161.9,15.1z M163.1,35.8l-6-10.4h-2.9l0,7.3c0,1.8-1.5,3.1-3.2,3.1
				c-1.7,0-3.1-1.4-3.1-3.1V8.2c0-1.7,1.2-3.3,3.1-3.3h7.1c5.6,0,10.2,4.6,10.2,10.2c0,3.8-1.7,6.9-4.7,8.8l7.2,11.8l-2.7,0
				l-7.8-12.8c3.5-1.6,5.8-3.6,5.7-7.8c0-4.3-3.6-7.9-7.9-7.9H151c-0.5,0-0.8,0.3-0.8,0.9v24.5c0,0.4,0.4,0.8,0.8,0.8
				c0.5,0,0.9-0.4,0.9-0.8l0-9.7h6.5l7.4,12.8L163.1,35.8z"/>
		</g>
	</g>
</g>
</svg>
