<?xml version="1.0" encoding="utf-8"?>
<!-- Generator: Adobe Illustrator 22.0.1, SVG Export Plug-In . SVG Version: 6.00 Build 0)  -->
<svg version="1.1" xmlns="http://www.w3.org/2000/svg" xmlns:xlink="http://www.w3.org/1999/xlink" x="0px" y="0px"
	 viewBox="0 0 39.7 39.7" style="enable-background:new 0 0 39.7 39.7;" xml:space="preserve">
<style type="text/css">
	.st0{fill:#80B941;}
	.st1{fill:#C3C3C3;}
	.st2{fill-rule:evenodd;clip-rule:evenodd;fill:#231F20;}
	.st3{fill:#231F20;}
	.st4{fill:#DC2C2C;}
	.st5{fill:#404041;}
	.st6{fill:#FFFFFF;stroke:#2EA8DF;stroke-width:4.3004;stroke-linecap:round;stroke-linejoin:round;stroke-miterlimit:10;}
	.st7{fill:#2EA8DF;stroke:#FFFFFF;stroke-width:10.4776;stroke-linecap:round;stroke-linejoin:round;stroke-miterlimit:10;}
	.st8{fill:#FFFFFF;stroke:#2EA8DF;stroke-width:4.5392;stroke-linecap:round;stroke-linejoin:round;stroke-miterlimit:10;}
	.st9{fill:#2EA8DF;}
	.st10{fill:#FFFFFF;stroke:#2EA8DF;stroke-width:1.9357;stroke-miterlimit:10;}
	.st11{fill:#FFFFFF;}
	.st12{fill:none;stroke:#2EA8DF;stroke-width:1.1802;stroke-miterlimit:10;}
	.st13{fill:#FFFFFF;stroke:#2EA8DF;stroke-width:1.1802;stroke-miterlimit:10;}
	.st14{fill:#30A7DE;}
	.st15{fill:#E1E1E1;}
	.st16{fill:none;stroke:#30A7DE;stroke-width:4;stroke-miterlimit:10;}
	.st17{fill:#B9B9B9;}
	.st18{fill:#2EA8DF;stroke:#FFFFFF;stroke-width:15.285;stroke-linecap:round;stroke-linejoin:round;stroke-miterlimit:10;}
	.st19{fill:#2EA8DF;stroke:#2EA8DF;stroke-width:6.2735;stroke-linecap:round;stroke-linejoin:round;stroke-miterlimit:10;}
	.st20{fill:#E1E1E1;stroke:#2EA8DF;stroke-width:6.6219;stroke-linecap:round;stroke-linejoin:round;stroke-miterlimit:10;}
	.st21{fill:#FFFFFF;stroke:#2EA8DF;stroke-width:2.8239;stroke-miterlimit:10;}
	.st22{fill:none;stroke:#2EA8DF;stroke-width:1.7217;stroke-miterlimit:10;}
	.st23{fill:#FFFFFF;stroke:#2EA8DF;stroke-width:1.7217;stroke-miterlimit:10;}
	.st24{fill:#F3F3F3;}
	.st25{fill:#487013;}
	.st26{fill:#F1F1F1;}
	.st27{fill:#333333;}
	.st28{fill-rule:evenodd;clip-rule:evenodd;fill:#FFFFFF;}
	.st29{fill:none;stroke:#80B941;stroke-width:3;stroke-miterlimit:10;}
	.st30{fill:#666666;}
	.st31{fill-rule:evenodd;clip-rule:evenodd;fill:#909090;}
	.st32{fill:#909090;}
	.st33{fill-rule:evenodd;clip-rule:evenodd;fill:#C3C3C3;}
	.st34{display:none;}
	.st35{display:inline;}
	.st36{fill:none;stroke:#C3C3C3;stroke-width:3.2359;stroke-miterlimit:10;}
	.st37{fill:none;stroke:#C3C3C3;stroke-width:4;stroke-miterlimit:10;}
	.st38{fill-rule:evenodd;clip-rule:evenodd;fill:#80B941;}
	.st39{fill-rule:evenodd;clip-rule:evenodd;fill:none;stroke:#E0E0E0;stroke-width:0.7966;stroke-miterlimit:10;}
	.st40{fill:#CECECE;}
	.st41{fill:#828282;}
	.st42{fill:#24A8EA;}
	.st43{opacity:0.7;}
	.st44{opacity:0.8;}
	.st45{display:inline;fill:#FFFFFF;}
	.st46{fill:#E6ED4F;}
	.st47{fill:#FFFFFF;stroke:#80B941;stroke-width:10;stroke-linejoin:bevel;stroke-miterlimit:10;}
	.st48{fill:none;stroke:#80B941;stroke-width:6;stroke-miterlimit:10;}
	.st49{fill:#FFFFFF;stroke:#80B941;stroke-width:6;stroke-miterlimit:10;}
	.st50{opacity:0.6;fill:#FFFFFF;}
</style>
<g id="Layer_1">
</g>
<g id="Layer_2">
</g>
<g id="Layer_3">
	<g>
		<g>
			<path class="st11" d="M15.7,2.9c2.1,0,3.7,0.6,5,1.9c1.3,1.3,1.9,2.9,1.9,5c0,2.5-0.9,5-2.7,7.3l-0.6,0.8l0.7,0.7l7.8,7.8
				l0.8,0.8l0.8-0.8l2.1-2.1l0.8-0.8l-0.8-0.8c0,0-0.2-0.2-0.6-0.6c-0.3-0.3-0.6-0.6-0.9-0.8c-0.2-0.2-0.4-0.4-0.6-0.6
				c0.1-0.1,0.3-0.3,0.6-0.6c0.3-0.3,0.5-0.4,0.6-0.6c0.2,0.2,0.4,0.4,0.7,0.7c0.6,0.6,1.2,1.1,1.8,1.7c0.6,0.6,1.2,1.2,1.9,1.9
				c0.6,0.6,1.1,1.2,1.6,1.7c0.1,0.1,0.1,0.1,0.1,0.2c-0.1,0.1-0.3,0.3-0.5,0.6c-0.3,0.3-0.5,0.4-0.6,0.6c-0.2-0.2-0.4-0.4-0.6-0.6
				c-0.2-0.2-0.5-0.5-0.8-0.9c-0.3-0.3-0.5-0.5-0.5-0.6L33,23.9l-0.8,0.8L30,26.9l-0.8,0.8l0.8,0.8l4.8,4.8c0.2,0.2,0.3,0.4,0.3,0.7
				c0,0.3-0.2,0.6-0.5,0.9c-0.3,0.3-0.7,0.5-0.9,0.5c-0.3,0-0.5-0.1-0.7-0.3L18.3,20.5l-0.7-0.7l-0.8,0.6c-2.4,1.8-4.8,2.6-7.3,2.6
				c-2.1,0-3.7-0.6-5-1.9c-1.3-1.3-1.9-2.9-1.9-5c0-2.1,0.6-4.2,1.9-6.3c1.3-2.1,3-3.8,5.1-5.1C11.5,3.5,13.6,2.9,15.7,2.9 M10,10.4
				c-0.1,0-0.2,0-0.2,0c-1.5,0-2.8,0.5-3.8,1.6c-1,1-1.6,2.3-1.6,3.8s0.5,2.8,1.6,3.8c1,1,2.3,1.6,3.8,1.6c1.5,0,2.8-0.5,3.8-1.6
				c1-1,1.6-2.3,1.6-3.8c0-0.1,0-0.2,0-0.2c0.1,0,0.2,0,0.2,0c1.5,0,2.8-0.5,3.8-1.6c1-1,1.6-2.3,1.6-3.8c0-1.5-0.5-2.8-1.6-3.8
				c-1-1-2.3-1.6-3.8-1.6c-1.5,0-2.8,0.5-3.8,1.6c-1,1-1.6,2.3-1.6,3.8C10,10.2,10,10.3,10,10.4 M15.7,1.7c-2.3,0-4.6,0.7-6.9,2.1
				C6.6,5.2,4.8,7,3.4,9.2c-1.4,2.2-2.1,4.5-2.1,6.9c0,2.4,0.8,4.3,2.3,5.8C5,23.5,7,24.2,9.4,24.2c2.8,0,5.5-1,8-2.9l14.8,14.8
				c0.4,0.4,0.9,0.6,1.5,0.6c0.6,0,1.2-0.3,1.8-0.9c0.6-0.6,0.9-1.2,0.9-1.8c0-0.6-0.2-1.1-0.6-1.5l-4.8-4.8l2.1-2.1
				c0,0,0.2,0.2,0.5,0.6c0.3,0.3,0.6,0.6,0.8,0.9c0.2,0.2,0.5,0.5,0.8,0.7c0.3,0.2,0.5,0.4,0.6,0.4c0.2,0,0.7-0.4,1.5-1.1
				c0.7-0.7,1.1-1.2,1.1-1.5c0-0.1-0.2-0.4-0.6-0.9c-0.4-0.5-1-1.1-1.6-1.7c-0.7-0.7-1.3-1.3-1.9-1.9c-0.6-0.6-1.2-1.2-1.8-1.8
				c-0.6-0.6-0.9-0.9-1-1c-0.1-0.1-0.3-0.2-0.5-0.2c-0.2,0-0.7,0.4-1.5,1.1c-0.7,0.7-1.1,1.2-1.1,1.5c0,0.1,0.1,0.3,0.4,0.6
				c0.2,0.3,0.5,0.6,0.7,0.8c0.2,0.2,0.5,0.5,0.9,0.8c0.3,0.3,0.5,0.5,0.6,0.5l-2.1,2.1l-7.8-7.8c1.9-2.6,2.9-5.3,2.9-8
				c0-2.4-0.8-4.3-2.3-5.8C20.1,2.4,18.1,1.7,15.7,1.7L15.7,1.7z M11.6,11.9c-0.3-0.6-0.4-1.2-0.4-1.8c0-1.2,0.4-2.2,1.2-3
				c0.8-0.8,1.8-1.2,3-1.2c1.2,0,2.2,0.4,3,1.2c0.8,0.8,1.2,1.8,1.2,3c0,1.2-0.4,2.2-1.2,3c-0.8,0.8-1.8,1.2-3,1.2
				c-0.6,0-1.2-0.1-1.8-0.4c0.3,0.6,0.4,1.2,0.4,1.8c0,1.2-0.4,2.2-1.2,3c-0.8,0.8-1.8,1.2-3,1.2c-1.2,0-2.2-0.4-3-1.2
				c-0.8-0.8-1.2-1.8-1.2-3s0.4-2.2,1.2-3c0.8-0.8,1.8-1.2,3-1.2C10.3,11.5,11,11.7,11.6,11.9L11.6,11.9z"/>
		</g>
	</g>
</g>
<g id="Layer_4">
</g>
</svg>
