<?xml version="1.0" encoding="utf-8"?>
<!-- Generator: Adobe Illustrator 22.0.1, SVG Export Plug-In . SVG Version: 6.00 Build 0)  -->
<svg version="1.1" xmlns="http://www.w3.org/2000/svg" xmlns:xlink="http://www.w3.org/1999/xlink" x="0px" y="0px"
	 viewBox="0 0 39.7 39.7" style="enable-background:new 0 0 39.7 39.7;" xml:space="preserve">
<style type="text/css">
	.st0{fill:#80B941;}
	.st1{fill:#C3C3C3;}
	.st2{fill-rule:evenodd;clip-rule:evenodd;fill:#231F20;}
	.st3{fill:#231F20;}
	.st4{fill:#DC2C2C;}
	.st5{fill:#404041;}
	.st6{fill:#FFFFFF;stroke:#2EA8DF;stroke-width:4.3004;stroke-linecap:round;stroke-linejoin:round;stroke-miterlimit:10;}
	.st7{fill:#2EA8DF;stroke:#FFFFFF;stroke-width:10.4776;stroke-linecap:round;stroke-linejoin:round;stroke-miterlimit:10;}
	.st8{fill:#FFFFFF;stroke:#2EA8DF;stroke-width:4.5392;stroke-linecap:round;stroke-linejoin:round;stroke-miterlimit:10;}
	.st9{fill:#2EA8DF;}
	.st10{fill:#FFFFFF;stroke:#2EA8DF;stroke-width:1.9357;stroke-miterlimit:10;}
	.st11{fill:#FFFFFF;}
	.st12{fill:none;stroke:#2EA8DF;stroke-width:1.1802;stroke-miterlimit:10;}
	.st13{fill:#FFFFFF;stroke:#2EA8DF;stroke-width:1.1802;stroke-miterlimit:10;}
	.st14{fill:#30A7DE;}
	.st15{fill:#E1E1E1;}
	.st16{fill:none;stroke:#30A7DE;stroke-width:4;stroke-miterlimit:10;}
	.st17{fill:#B9B9B9;}
	.st18{fill:#2EA8DF;stroke:#FFFFFF;stroke-width:15.285;stroke-linecap:round;stroke-linejoin:round;stroke-miterlimit:10;}
	.st19{fill:#2EA8DF;stroke:#2EA8DF;stroke-width:6.2735;stroke-linecap:round;stroke-linejoin:round;stroke-miterlimit:10;}
	.st20{fill:#E1E1E1;stroke:#2EA8DF;stroke-width:6.6219;stroke-linecap:round;stroke-linejoin:round;stroke-miterlimit:10;}
	.st21{fill:#FFFFFF;stroke:#2EA8DF;stroke-width:2.8239;stroke-miterlimit:10;}
	.st22{fill:none;stroke:#2EA8DF;stroke-width:1.7217;stroke-miterlimit:10;}
	.st23{fill:#FFFFFF;stroke:#2EA8DF;stroke-width:1.7217;stroke-miterlimit:10;}
	.st24{fill:#F3F3F3;}
	.st25{fill:#487013;}
	.st26{fill:#F1F1F1;}
	.st27{fill:#333333;}
	.st28{fill-rule:evenodd;clip-rule:evenodd;fill:#FFFFFF;}
	.st29{fill:none;stroke:#80B941;stroke-width:3;stroke-miterlimit:10;}
	.st30{fill:#666666;}
	.st31{fill-rule:evenodd;clip-rule:evenodd;fill:#909090;}
	.st32{fill:#909090;}
	.st33{fill-rule:evenodd;clip-rule:evenodd;fill:#C3C3C3;}
	.st34{display:none;}
	.st35{display:inline;}
	.st36{fill:none;stroke:#C3C3C3;stroke-width:3.2359;stroke-miterlimit:10;}
	.st37{fill:none;stroke:#C3C3C3;stroke-width:4;stroke-miterlimit:10;}
	.st38{fill-rule:evenodd;clip-rule:evenodd;fill:#80B941;}
	.st39{fill-rule:evenodd;clip-rule:evenodd;fill:none;stroke:#E0E0E0;stroke-width:0.7966;stroke-miterlimit:10;}
	.st40{fill:#CECECE;}
	.st41{fill:#828282;}
	.st42{fill:#24A8EA;}
	.st43{opacity:0.7;}
	.st44{opacity:0.8;}
	.st45{display:inline;fill:#FFFFFF;}
	.st46{fill:#E6ED4F;}
	.st47{fill:#FFFFFF;stroke:#80B941;stroke-width:10;stroke-linejoin:bevel;stroke-miterlimit:10;}
	.st48{fill:none;stroke:#80B941;stroke-width:6;stroke-miterlimit:10;}
	.st49{fill:#FFFFFF;stroke:#80B941;stroke-width:6;stroke-miterlimit:10;}
	.st50{opacity:0.6;fill:#FFFFFF;}
	.st51{fill:#C2C2C2;}
	.st52{fill:#36A5DD;}
</style>
<g id="Layer_1">
</g>
<g id="Layer_2">
</g>
<g id="Layer_3">
	<g>
		<g>
			<g>
				<path class="st11" d="M14.8,6.4c2,0,3.8,0.2,5.5,0.5c1.6,0.3,2.9,0.7,3.8,1.3c0.7,0.4,1,0.8,1,1V11c0,0.2-0.3,0.6-1,1
					c-0.9,0.5-2.2,0.9-3.8,1.3c-1.7,0.3-3.5,0.5-5.5,0.5s-3.8-0.2-5.5-0.5C7.7,13,6.4,12.5,5.5,12c-0.7-0.4-1-0.8-1-1V9.2
					c0-0.2,0.3-0.6,1-1c0.9-0.5,2.2-0.9,3.8-1.3C11,6.6,12.8,6.4,14.8,6.4 M4.5,16c1,0.5,2.2,0.8,3.5,1.1c2.1,0.4,4.4,0.7,6.8,0.7
					c2.4,0,4.7-0.2,6.8-0.7c1.3-0.3,2.5-0.6,3.5-1.1v0.7c0,0.2-0.3,0.6-1,1c-0.9,0.5-2.2,0.9-3.8,1.3c-1.7,0.3-3.5,0.5-5.5,0.5
					s-3.8-0.2-5.5-0.5c-1.6-0.3-2.9-0.7-3.8-1.3c-0.7-0.4-1-0.8-1-1V16 M4.5,21.7c1,0.5,2.2,0.8,3.5,1.1c2.1,0.4,4.4,0.7,6.8,0.7
					c2.4,0,4.7-0.2,6.8-0.7c1.3-0.3,2.5-0.6,3.5-1.1v0.7c0,0.2-0.3,0.6-1,1c-0.9,0.5-2.2,0.9-3.8,1.3c-1.7,0.3-3.5,0.5-5.5,0.5
					s-3.8-0.2-5.5-0.5c-1.6-0.3-2.9-0.7-3.8-1.3c-0.7-0.4-1-0.8-1-1V21.7 M4.5,27.3c1,0.5,2.2,0.8,3.5,1.1c2.1,0.4,4.4,0.7,6.8,0.7
					c2.4,0,4.7-0.2,6.8-0.7c1.3-0.3,2.5-0.6,3.5-1.1V28c0,0.2-0.3,0.6-1,1c-0.9,0.5-2.2,0.9-3.8,1.3c-1.7,0.3-3.5,0.5-5.5,0.5
					c-2,0-3.8-0.2-5.5-0.5C7.7,30,6.4,29.5,5.5,29c-0.7-0.4-1-0.8-1-1V27.3 M14.8,5.4c-2,0-3.9,0.2-5.7,0.5C7.4,6.2,6,6.7,5,7.3
					C4,7.8,3.5,8.5,3.5,9.2V11c0,0.7,0.5,1.3,1.5,1.9c1,0.6,2.4,1,4.1,1.4c1.7,0.3,3.6,0.5,5.7,0.5c2,0,3.9-0.2,5.7-0.5
					c1.7-0.3,3.1-0.8,4.1-1.4c1-0.6,1.5-1.2,1.5-1.9V9.2c0-0.7-0.5-1.3-1.5-1.9c-1-0.6-2.4-1-4.1-1.4C18.7,5.5,16.8,5.4,14.8,5.4
					L14.8,5.4z M26.1,14.2c-1.2,0.8-2.8,1.5-4.8,1.9c-2,0.4-4.2,0.6-6.5,0.6c-2.3,0-4.5-0.2-6.5-0.6c-2-0.4-3.6-1-4.8-1.9v2.5
					C3.5,17.4,4,18,5,18.6c1,0.6,2.4,1,4.1,1.4c1.7,0.3,3.6,0.5,5.7,0.5c2,0,3.9-0.2,5.7-0.5c1.7-0.3,3.1-0.8,4.1-1.4
					c1-0.6,1.5-1.2,1.5-1.9V14.2L26.1,14.2z M26.1,19.9c-1.2,0.8-2.8,1.5-4.8,1.9c-2,0.4-4.2,0.6-6.5,0.6c-2.3,0-4.5-0.2-6.5-0.6
					c-2-0.4-3.6-1-4.8-1.9v2.5c0,0.7,0.5,1.3,1.5,1.9c1,0.6,2.4,1,4.1,1.4c1.7,0.3,3.6,0.5,5.7,0.5c2,0,3.9-0.2,5.7-0.5
					c1.7-0.3,3.1-0.8,4.1-1.4c1-0.6,1.5-1.2,1.5-1.9V19.9L26.1,19.9z M26.1,25.5c-1.2,0.8-2.8,1.5-4.8,1.9c-2,0.4-4.2,0.6-6.5,0.6
					c-2.3,0-4.5-0.2-6.5-0.6c-2-0.4-3.6-1-4.8-1.9V28c0,0.7,0.5,1.3,1.5,1.9c1,0.6,2.4,1,4.1,1.4c1.7,0.3,3.6,0.5,5.7,0.5
					c2,0,3.9-0.2,5.7-0.5c1.7-0.3,3.1-0.8,4.1-1.4c1-0.6,1.5-1.2,1.5-1.9V25.5L26.1,25.5z"/>
			</g>
		</g>
		<g>
			<g>
				<path class="st52" d="M17.2,33.5c-0.1,0-0.2,0-0.2-0.1c-0.1-0.1-0.1-0.1-0.1-0.2v-9.1c0-0.1,0-0.2,0.1-0.2
					c0.1-0.1,0.1-0.1,0.2-0.1h9v-3.2c0-1.3,0.4-2.3,1.3-3.2c0.9-0.9,2-1.3,3.2-1.3c1.3,0,2.3,0.4,3.2,1.3c0.9,0.9,1.3,2,1.3,3.2v3.1
					l-0.7-0.1l0.1-3c0-1.1-0.4-2-1.2-2.8c-0.8-0.8-1.7-1.2-2.8-1.2c-1.1,0-2,0.4-2.8,1.2c-0.8,0.8-1.2,1.7-1.2,2.8v3.2h2
					c0.1,0,0.2,0,0.2,0.1c0.1,0.1,0.1,0.1,0.1,0.2v9.1c0,0.1,0,0.2-0.1,0.2c-0.1,0.1-0.1,0.1-0.2,0.1H17.2z"/>
				<path class="st11" d="M28.3,24.6v8.1H17.7v-8.1h7.6H27h0.7H28.3 M30.8,15.2c-1.5,0-2.8,0.5-3.8,1.6c-1.1,1.1-1.6,2.3-1.6,3.8
					v2.3h-8.1c-0.3,0-0.6,0.1-0.8,0.3c-0.2,0.2-0.3,0.5-0.3,0.8v9.1c0,0.3,0.1,0.6,0.3,0.8c0.2,0.2,0.5,0.3,0.8,0.3h11.6
					c0.3,0,0.6-0.1,0.8-0.3c0.2-0.2,0.3-0.5,0.3-0.8v-9.1c0-0.3-0.1-0.6-0.3-0.8c-0.2-0.2-0.5-0.3-0.8-0.3h-1.2v-2.3
					c0-0.9,0.3-1.6,0.9-2.2c0.6-0.6,1.3-0.9,2.2-0.9c0.9,0,1.6,0.3,2.2,0.9c0.6,0.6,0.9,1.3,0.9,2.2v3.1c0,0.2,0.1,0.4,0.2,0.5
					c0.2,0.2,0.3,0.2,0.5,0.2h0.8c0.2,0,0.4-0.1,0.5-0.2c0.2-0.2,0.2-0.3,0.2-0.5v-3.1c0-1.5-0.5-2.8-1.6-3.8
					C33.6,15.7,32.3,15.2,30.8,15.2L30.8,15.2z"/>
			</g>
			<g>
				<path class="st11" d="M24.2,27.7c0-0.7-0.5-1.2-1.2-1.2c-0.7,0-1.2,0.5-1.2,1.2c0,0.4,0.2,0.8,0.5,1l-0.2,1.9h1.8l-0.2-1.9
					C24,28.5,24.2,28.1,24.2,27.7z"/>
			</g>
		</g>
	</g>
</g>
<g id="Layer_4">
</g>
</svg>
