<?xml version="1.0" encoding="utf-8"?>
<!-- Generator: Adobe Illustrator 22.0.1, SVG Export Plug-In . SVG Version: 6.00 Build 0)  -->
<svg version="1.1" xmlns="http://www.w3.org/2000/svg" xmlns:xlink="http://www.w3.org/1999/xlink" x="0px" y="0px"
	 viewBox="0 0 39.7 39.7" style="enable-background:new 0 0 39.7 39.7;" xml:space="preserve">
<style type="text/css">
	.st0{fill:#80B941;}
	.st1{fill:#C3C3C3;}
	.st2{fill-rule:evenodd;clip-rule:evenodd;fill:#231F20;}
	.st3{fill:#231F20;}
	.st4{fill:#DC2C2C;}
	.st5{fill:#404041;}
	.st6{fill:#FFFFFF;stroke:#2EA8DF;stroke-width:4.3004;stroke-linecap:round;stroke-linejoin:round;stroke-miterlimit:10;}
	.st7{fill:#2EA8DF;stroke:#FFFFFF;stroke-width:10.4776;stroke-linecap:round;stroke-linejoin:round;stroke-miterlimit:10;}
	.st8{fill:#FFFFFF;stroke:#2EA8DF;stroke-width:4.5392;stroke-linecap:round;stroke-linejoin:round;stroke-miterlimit:10;}
	.st9{fill:#2EA8DF;}
	.st10{fill:#FFFFFF;stroke:#2EA8DF;stroke-width:1.9357;stroke-miterlimit:10;}
	.st11{fill:#FFFFFF;}
	.st12{fill:none;stroke:#2EA8DF;stroke-width:1.1802;stroke-miterlimit:10;}
	.st13{fill:#FFFFFF;stroke:#2EA8DF;stroke-width:1.1802;stroke-miterlimit:10;}
	.st14{fill:#30A7DE;}
	.st15{fill:#E1E1E1;}
	.st16{fill:none;stroke:#30A7DE;stroke-width:4;stroke-miterlimit:10;}
	.st17{fill:#B9B9B9;}
	.st18{fill:#2EA8DF;stroke:#FFFFFF;stroke-width:15.285;stroke-linecap:round;stroke-linejoin:round;stroke-miterlimit:10;}
	.st19{fill:#2EA8DF;stroke:#2EA8DF;stroke-width:6.2735;stroke-linecap:round;stroke-linejoin:round;stroke-miterlimit:10;}
	.st20{fill:#E1E1E1;stroke:#2EA8DF;stroke-width:6.6219;stroke-linecap:round;stroke-linejoin:round;stroke-miterlimit:10;}
	.st21{fill:#FFFFFF;stroke:#2EA8DF;stroke-width:2.8239;stroke-miterlimit:10;}
	.st22{fill:none;stroke:#2EA8DF;stroke-width:1.7217;stroke-miterlimit:10;}
	.st23{fill:#FFFFFF;stroke:#2EA8DF;stroke-width:1.7217;stroke-miterlimit:10;}
	.st24{fill:#F3F3F3;}
	.st25{fill:#487013;}
	.st26{fill:#F1F1F1;}
	.st27{fill:#333333;}
	.st28{fill-rule:evenodd;clip-rule:evenodd;fill:#FFFFFF;}
	.st29{fill:none;stroke:#80B941;stroke-width:3;stroke-miterlimit:10;}
	.st30{fill:#666666;}
	.st31{fill-rule:evenodd;clip-rule:evenodd;fill:#909090;}
	.st32{fill:#909090;}
	.st33{fill-rule:evenodd;clip-rule:evenodd;fill:#C3C3C3;}
	.st34{display:none;}
	.st35{display:inline;}
	.st36{fill:none;stroke:#C3C3C3;stroke-width:3.2359;stroke-miterlimit:10;}
	.st37{fill:none;stroke:#C3C3C3;stroke-width:4;stroke-miterlimit:10;}
	.st38{fill-rule:evenodd;clip-rule:evenodd;fill:#80B941;}
	.st39{fill-rule:evenodd;clip-rule:evenodd;fill:none;stroke:#E0E0E0;stroke-width:0.7966;stroke-miterlimit:10;}
	.st40{fill:#CECECE;}
	.st41{fill:#828282;}
	.st42{fill:#24A8EA;}
	.st43{opacity:0.7;}
	.st44{opacity:0.8;}
	.st45{display:inline;fill:#FFFFFF;}
	.st46{fill:#E6ED4F;}
	.st47{fill:#FFFFFF;stroke:#80B941;stroke-width:10;stroke-linejoin:bevel;stroke-miterlimit:10;}
	.st48{fill:none;stroke:#80B941;stroke-width:6;stroke-miterlimit:10;}
	.st49{fill:#FFFFFF;stroke:#80B941;stroke-width:6;stroke-miterlimit:10;}
	.st50{opacity:0.6;fill:#FFFFFF;}
</style>
<g id="Layer_1">
</g>
<g id="Layer_2">
</g>
<g id="Layer_3">
	<g>
		<g>
			<path class="st11" d="M30.1,21c2.1,2.1,3.7,4.9,4.5,8.1c-3.1,5.6-7.7,8.7-12.5,8.7c-4.9,0-9.5-3.3-12.7-9
				c0.8-3.1,2.3-5.8,4.4-7.8c2.2,2.1,5.1,3.3,8.1,3.3C25,24.3,27.9,23.1,30.1,21 M30,19.6c-2,2.2-4.9,3.7-8.1,3.7
				c-3.2,0-6.1-1.4-8.1-3.7c-2.6,2.2-4.6,5.5-5.5,9.4c3.2,6,8.1,9.9,13.7,9.9c5.5,0,10.4-3.7,13.6-9.6C34.7,25.3,32.7,21.9,30,19.6
				L30,19.6z"/>
		</g>
		<g>
			<path class="st11" d="M33.1,14.6h-1.2c0,1.5-3.8,2.6-7.9,2.9c-0.3-0.1-0.6-0.2-1-0.2c-0.8,0-1.4,0.4-1.4,0.9
				c0,0.5,0.6,0.9,1.4,0.9c0.5,0,0.9-0.2,1.2-0.4C27.5,18.4,33.1,17.6,33.1,14.6L33.1,14.6z"/>
		</g>
		<g>
			<path class="st11" d="M21.9,4.7c4.3,0,7.8,3.5,7.8,7.8c0,0.8-0.1,1.6-0.4,2.4c-0.8,0.3-2.4,0.8-5.1,1c-0.4-0.1-0.8-0.2-1.3-0.2
				c-1.7,0-3.1,1.1-3.1,2.5c0,0.9,0.5,1.7,1.3,2.1c-4-0.3-7.1-3.7-7.1-7.7C14.2,8.2,17.6,4.7,21.9,4.7 M21.9,3.7
				c-4.8,0-8.8,3.9-8.8,8.8s3.9,8.8,8.8,8.8c2.4,0,4.5-0.9,6.1-2.5c-1.2,0.2-2.4,0.4-3.6,0.5c-0.4,0.3-0.9,0.4-1.4,0.4
				c-1.2,0-2.1-0.7-2.1-1.5c0-0.9,0.9-1.5,2.1-1.5c0.4,0,0.8,0.1,1.1,0.2c2.8-0.2,4.8-0.7,6-1.2c0.4-1,0.6-2,0.6-3.1
				C30.7,7.7,26.8,3.7,21.9,3.7L21.9,3.7z"/>
		</g>
		<g>
			<path class="st11" d="M32.3,9.9l0.1,0c0.4,0.2,1.1,1.1,1.1,2.6c0,1.5-0.7,2.6-1.2,2.6c-0.1-0.4-0.1-1.4-0.1-2.1l0-0.5l0-0.5
				C32.2,11.3,32.2,10.2,32.3,9.9 M11.4,9.9c0.2,0.4,0.1,1.4,0.1,2.1l0,0.5l0,0.5c0,0.7,0,1.8-0.1,2.1c-0.5-0.1-1.2-1.1-1.2-2.6
				C10.3,11,10.9,10,11.4,9.9L11.4,9.9 M21.9,1.1c-5.1,0-9.3,3.3-10.9,7.9c-1,0.3-1.8,1.8-1.8,3.6c0,2,1,3.6,2.2,3.6
				c1.2,0,1.1-1.6,1.1-3.6c0-1.4,0.1-2.6-0.3-3.2c1.4-4,5.2-6.9,9.7-6.9c4.5,0,8.2,2.9,9.6,6.9c-0.5,0.6-0.4,1.8-0.4,3.3
				c0,2-0.1,3.6,1.1,3.6c1.2,0,2.2-1.6,2.2-3.6c0-1.7-0.7-3.1-1.7-3.5C31.3,4.4,27,1.1,21.9,1.1L21.9,1.1z"/>
		</g>
	</g>
</g>
<g id="Layer_4">
</g>
</svg>
