<?xml version="1.0" encoding="utf-8"?>
<!-- Generator: Adobe Illustrator 22.0.1, SVG Export Plug-In . SVG Version: 6.00 Build 0)  -->
<svg version="1.1" xmlns="http://www.w3.org/2000/svg" xmlns:xlink="http://www.w3.org/1999/xlink" x="0px" y="0px"
	 viewBox="0 0 39.7 39.7" style="enable-background:new 0 0 39.7 39.7;" xml:space="preserve">
<style type="text/css">
	.st0{fill:#80B941;}
	.st1{fill:#C3C3C3;}
	.st2{fill-rule:evenodd;clip-rule:evenodd;fill:#231F20;}
	.st3{fill:#231F20;}
	.st4{fill:#DC2C2C;}
	.st5{fill:#404041;}
	.st6{fill:#FFFFFF;stroke:#2EA8DF;stroke-width:4.3004;stroke-linecap:round;stroke-linejoin:round;stroke-miterlimit:10;}
	.st7{fill:#2EA8DF;stroke:#FFFFFF;stroke-width:10.4776;stroke-linecap:round;stroke-linejoin:round;stroke-miterlimit:10;}
	.st8{fill:#FFFFFF;stroke:#2EA8DF;stroke-width:4.5392;stroke-linecap:round;stroke-linejoin:round;stroke-miterlimit:10;}
	.st9{fill:#2EA8DF;}
	.st10{fill:#FFFFFF;stroke:#2EA8DF;stroke-width:1.9357;stroke-miterlimit:10;}
	.st11{fill:#FFFFFF;}
	.st12{fill:none;stroke:#2EA8DF;stroke-width:1.1802;stroke-miterlimit:10;}
	.st13{fill:#FFFFFF;stroke:#2EA8DF;stroke-width:1.1802;stroke-miterlimit:10;}
	.st14{fill:#30A7DE;}
	.st15{fill:#E1E1E1;}
	.st16{fill:none;stroke:#30A7DE;stroke-width:4;stroke-miterlimit:10;}
	.st17{fill:#B9B9B9;}
	.st18{fill:#2EA8DF;stroke:#FFFFFF;stroke-width:15.285;stroke-linecap:round;stroke-linejoin:round;stroke-miterlimit:10;}
	.st19{fill:#2EA8DF;stroke:#2EA8DF;stroke-width:6.2735;stroke-linecap:round;stroke-linejoin:round;stroke-miterlimit:10;}
	.st20{fill:#E1E1E1;stroke:#2EA8DF;stroke-width:6.6219;stroke-linecap:round;stroke-linejoin:round;stroke-miterlimit:10;}
	.st21{fill:#FFFFFF;stroke:#2EA8DF;stroke-width:2.8239;stroke-miterlimit:10;}
	.st22{fill:none;stroke:#2EA8DF;stroke-width:1.7217;stroke-miterlimit:10;}
	.st23{fill:#FFFFFF;stroke:#2EA8DF;stroke-width:1.7217;stroke-miterlimit:10;}
	.st24{fill:#F3F3F3;}
	.st25{fill:#487013;}
	.st26{fill:#F1F1F1;}
	.st27{fill:#333333;}
	.st28{fill-rule:evenodd;clip-rule:evenodd;fill:#FFFFFF;}
	.st29{fill:none;stroke:#80B941;stroke-width:3;stroke-miterlimit:10;}
	.st30{fill:#666666;}
	.st31{fill-rule:evenodd;clip-rule:evenodd;fill:#909090;}
	.st32{fill:#909090;}
	.st33{fill-rule:evenodd;clip-rule:evenodd;fill:#C3C3C3;}
	.st34{display:none;}
	.st35{display:inline;}
	.st36{fill:none;stroke:#C3C3C3;stroke-width:3.2359;stroke-miterlimit:10;}
	.st37{fill:none;stroke:#C3C3C3;stroke-width:4;stroke-miterlimit:10;}
	.st38{fill-rule:evenodd;clip-rule:evenodd;fill:#80B941;}
	.st39{fill-rule:evenodd;clip-rule:evenodd;fill:none;stroke:#E0E0E0;stroke-width:0.7966;stroke-miterlimit:10;}
	.st40{fill:#CECECE;}
	.st41{fill:#828282;}
	.st42{fill:#24A8EA;}
	.st43{opacity:0.7;}
	.st44{opacity:0.8;}
	.st45{display:inline;fill:#FFFFFF;}
	.st46{fill:#E6ED4F;}
	.st47{fill:#FFFFFF;stroke:#80B941;stroke-width:10;stroke-linejoin:bevel;stroke-miterlimit:10;}
	.st48{fill:none;stroke:#80B941;stroke-width:6;stroke-miterlimit:10;}
	.st49{fill:#FFFFFF;stroke:#80B941;stroke-width:6;stroke-miterlimit:10;}
	.st50{opacity:0.6;fill:#FFFFFF;}
</style>
<g id="Layer_1">
</g>
<g id="Layer_2">
</g>
<g id="Layer_3">
	<g>
		<g>
			<g>
				<path class="st11" d="M15.2,2.7c2.3,0,4.5,0.2,6.4,0.6c1.9,0.4,3.4,0.9,4.4,1.5c0.8,0.5,1.2,0.9,1.2,1.1v2.2
					c0,0.2-0.3,0.6-1.2,1.1c-1.1,0.6-2.6,1.1-4.4,1.5c-1.9,0.4-4.1,0.6-6.4,0.6s-4.5-0.2-6.4-0.6c-1.9-0.4-3.4-0.9-4.5-1.5
					C3.5,8.8,3.2,8.4,3.2,8.1V5.9c0-0.2,0.3-0.6,1.2-1.1c1.1-0.6,2.6-1.1,4.4-1.5C10.8,2.9,12.9,2.7,15.2,2.7 M3.2,13.9
					c1.2,0.5,2.6,1,4.1,1.3c2.4,0.5,5.1,0.8,7.9,0.8c2.8,0,5.5-0.3,7.9-0.8c1.6-0.3,2.9-0.8,4.1-1.3v0.8c0,0.2-0.3,0.6-1.2,1.1
					c-1.1,0.6-2.6,1.1-4.5,1.5c-1.9,0.4-4.1,0.6-6.4,0.6s-4.5-0.2-6.4-0.6c-1.9-0.4-3.4-0.9-4.4-1.5c-0.9-0.5-1.2-0.9-1.2-1.1V13.9
					 M3.2,20.6c1.2,0.5,2.6,1,4.1,1.3c2.4,0.5,5.1,0.8,7.9,0.8c2.8,0,5.5-0.3,7.9-0.8c1.6-0.3,2.9-0.8,4.1-1.3v0.8
					c0,0.2-0.3,0.6-1.2,1.1c-1.1,0.6-2.6,1.1-4.4,1.5c-1.9,0.4-4.1,0.6-6.4,0.6s-4.5-0.2-6.4-0.6c-1.9-0.4-3.4-0.9-4.5-1.5
					c-0.8-0.5-1.2-0.9-1.2-1.1V20.6 M3.2,27.2c1.2,0.5,2.6,1,4.1,1.3c2.4,0.5,5.1,0.8,7.9,0.8c2.8,0,5.5-0.3,7.9-0.8
					c1.6-0.3,2.9-0.8,4.1-1.3V28c0,0.2-0.3,0.6-1.2,1.1c-1.1,0.6-2.6,1.1-4.4,1.5c-2,0.4-4.1,0.6-6.4,0.6c-2.3,0-4.5-0.2-6.4-0.6
					c-1.9-0.4-3.4-0.9-4.4-1.5c-0.9-0.5-1.2-0.9-1.2-1.1V27.2 M15.2,1.5c-2.4,0-4.6,0.2-6.6,0.6C6.6,2.5,4.9,3,3.8,3.7
					C2.6,4.4,2,5.1,2,5.9v2.2c0,0.8,0.6,1.5,1.8,2.2C4.9,11,6.6,11.6,8.6,12c2,0.4,4.2,0.6,6.6,0.6c2.4,0,4.6-0.2,6.6-0.6
					c2-0.4,3.6-0.9,4.8-1.6c1.2-0.7,1.8-1.4,1.8-2.2V5.9c0-0.8-0.6-1.5-1.8-2.2c-1.2-0.7-2.8-1.2-4.8-1.6S17.6,1.5,15.2,1.5
					L15.2,1.5z M28.5,11.8c-1.4,1-3.2,1.7-5.6,2.2c-2.4,0.5-4.9,0.7-7.6,0.7c-2.7,0-5.3-0.2-7.6-0.7c-2.4-0.5-4.2-1.2-5.6-2.2v2.9
					c0,0.8,0.6,1.5,1.8,2.2c1.2,0.7,2.8,1.2,4.8,1.6c2,0.4,4.2,0.6,6.6,0.6c2.4,0,4.6-0.2,6.6-0.6c2-0.4,3.6-0.9,4.8-1.6
					c1.2-0.7,1.8-1.4,1.8-2.2V11.8L28.5,11.8z M28.5,18.4c-1.4,1-3.2,1.7-5.6,2.2c-2.4,0.5-4.9,0.7-7.6,0.7c-2.7,0-5.3-0.2-7.6-0.7
					c-2.4-0.5-4.2-1.2-5.6-2.2v2.9c0,0.8,0.6,1.5,1.8,2.2c1.2,0.7,2.8,1.2,4.8,1.6c2,0.4,4.2,0.6,6.6,0.6c2.4,0,4.6-0.2,6.6-0.6
					c2-0.4,3.6-0.9,4.8-1.6c1.2-0.7,1.8-1.4,1.8-2.2V18.4L28.5,18.4z M28.5,25.1c-1.4,1-3.2,1.7-5.6,2.2C20.5,27.8,18,28,15.2,28
					c-2.7,0-5.3-0.2-7.6-0.7C5.2,26.8,3.4,26,2,25.1V28c0,0.8,0.6,1.5,1.8,2.2c1.2,0.7,2.8,1.2,4.8,1.6c2,0.4,4.2,0.6,6.6,0.6
					c2.4,0,4.6-0.2,6.6-0.6s3.6-0.9,4.8-1.6c1.2-0.7,1.8-1.4,1.8-2.2V25.1L28.5,25.1z"/>
			</g>
		</g>
		<g>
			<g>
				<g>
					<path class="st42" d="M35.3,13.4v10.3c0,0.8-0.2,1.5-0.5,2.3c-0.3,0.8-0.7,1.4-1.1,2c-0.4,0.6-1,1.2-1.6,1.7
						c-0.6,0.6-1.2,1-1.7,1.4c-0.5,0.4-1.1,0.7-1.6,1c-0.6,0.3-1,0.6-1.2,0.7c-0.2,0.1-0.4,0.2-0.6,0.3c-0.1,0.1-0.2,0.1-0.4,0.1
						c-0.1,0-0.2,0-0.3-0.1c-0.1-0.1-0.3-0.2-0.6-0.3c-0.2-0.1-0.6-0.3-1.2-0.7c-0.6-0.3-1.1-0.7-1.6-1c-0.5-0.4-1.1-0.8-1.7-1.4
						c-0.6-0.6-1.1-1.1-1.6-1.7s-0.8-1.3-1.1-2c-0.3-0.8-0.5-1.5-0.5-2.3V13.4c0-0.2,0.1-0.4,0.3-0.6c0.2-0.2,0.4-0.3,0.6-0.3h15.5
						c0.2,0,0.4,0.1,0.6,0.3C35.2,13,35.3,13.2,35.3,13.4z"/>
				</g>
				<path class="st11" d="M34.4,12.5c0.2,0,0.4,0.1,0.6,0.3c0.2,0.2,0.3,0.4,0.3,0.6v10.3c0,0.8-0.2,1.5-0.5,2.3
					c-0.3,0.8-0.7,1.4-1.1,2c-0.4,0.6-1,1.2-1.6,1.7c-0.6,0.6-1.2,1-1.7,1.4c-0.5,0.4-1.1,0.7-1.6,1c-0.6,0.3-1,0.6-1.2,0.7
					c-0.2,0.1-0.4,0.2-0.6,0.3c-0.1,0.1-0.2,0.1-0.4,0.1c-0.1,0-0.2,0-0.3-0.1c-0.1-0.1-0.3-0.2-0.6-0.3c-0.2-0.1-0.6-0.3-1.2-0.7
					c-0.6-0.3-1.1-0.7-1.6-1c-0.5-0.4-1.1-0.8-1.7-1.4c-0.6-0.6-1.1-1.1-1.6-1.7c-0.4-0.6-0.8-1.3-1.1-2c-0.3-0.8-0.5-1.5-0.5-2.3
					V13.4c0-0.2,0.1-0.4,0.3-0.6c0.2-0.2,0.4-0.3,0.6-0.3H34.4 M34.4,10.5H18.9c-0.8,0-1.5,0.3-2.1,0.9c-0.5,0.5-0.9,1.3-0.9,2.1
					v10.3c0,1,0.2,2.1,0.6,3.1c0.4,0.9,0.8,1.8,1.4,2.5c0.5,0.7,1.1,1.4,1.9,2c0.7,0.6,1.3,1.1,1.9,1.5c0.6,0.4,1.2,0.8,1.8,1.1
					c0.6,0.4,1,0.6,1.3,0.7c0.3,0.1,0.5,0.2,0.6,0.3c0.4,0.2,0.8,0.3,1.2,0.3c0.4,0,0.8-0.1,1.2-0.3c0.2-0.1,0.4-0.2,0.6-0.3
					c0.3-0.1,0.7-0.4,1.3-0.7c0.6-0.4,1.2-0.7,1.8-1.1c0.6-0.4,1.2-0.9,1.9-1.5c0.7-0.6,1.3-1.3,1.9-2c0.6-0.7,1-1.6,1.4-2.5
					c0.4-1,0.6-2,0.6-3.1V13.4c0-0.8-0.3-1.5-0.9-2.1C35.9,10.8,35.2,10.5,34.4,10.5L34.4,10.5z"/>
			</g>
			<path class="st11" d="M32.7,23.8v-8.6h-6v15.3c1.1-0.6,2-1.2,2.9-1.8C31.6,26.9,32.7,25.3,32.7,23.8z"/>
		</g>
	</g>
</g>
<g id="Layer_4">
</g>
</svg>
