<?xml version="1.0" encoding="utf-8"?>
<!-- Generator: Adobe Illustrator 22.0.1, SVG Export Plug-In . SVG Version: 6.00 Build 0)  -->
<svg version="1.1" xmlns="http://www.w3.org/2000/svg" xmlns:xlink="http://www.w3.org/1999/xlink" x="0px" y="0px"
	 viewBox="0 0 39.7 39.7" style="enable-background:new 0 0 39.7 39.7;" xml:space="preserve">
<style type="text/css">
	.st0{fill:#80B941;}
	.st1{fill:#C3C3C3;}
	.st2{fill-rule:evenodd;clip-rule:evenodd;fill:#231F20;}
	.st3{fill:#231F20;}
	.st4{fill:#DC2C2C;}
	.st5{fill:#404041;}
	.st6{fill:#FFFFFF;stroke:#2EA8DF;stroke-width:4.3004;stroke-linecap:round;stroke-linejoin:round;stroke-miterlimit:10;}
	.st7{fill:#2EA8DF;stroke:#FFFFFF;stroke-width:10.4776;stroke-linecap:round;stroke-linejoin:round;stroke-miterlimit:10;}
	.st8{fill:#FFFFFF;stroke:#2EA8DF;stroke-width:4.5392;stroke-linecap:round;stroke-linejoin:round;stroke-miterlimit:10;}
	.st9{fill:#2EA8DF;}
	.st10{fill:#FFFFFF;stroke:#2EA8DF;stroke-width:1.9357;stroke-miterlimit:10;}
	.st11{fill:#FFFFFF;}
	.st12{fill:none;stroke:#2EA8DF;stroke-width:1.1802;stroke-miterlimit:10;}
	.st13{fill:#FFFFFF;stroke:#2EA8DF;stroke-width:1.1802;stroke-miterlimit:10;}
	.st14{fill:#30A7DE;}
	.st15{fill:#E1E1E1;}
	.st16{fill:none;stroke:#30A7DE;stroke-width:4;stroke-miterlimit:10;}
	.st17{fill:#B9B9B9;}
	.st18{fill:#2EA8DF;stroke:#FFFFFF;stroke-width:15.285;stroke-linecap:round;stroke-linejoin:round;stroke-miterlimit:10;}
	.st19{fill:#2EA8DF;stroke:#2EA8DF;stroke-width:6.2735;stroke-linecap:round;stroke-linejoin:round;stroke-miterlimit:10;}
	.st20{fill:#E1E1E1;stroke:#2EA8DF;stroke-width:6.6219;stroke-linecap:round;stroke-linejoin:round;stroke-miterlimit:10;}
	.st21{fill:#FFFFFF;stroke:#2EA8DF;stroke-width:2.8239;stroke-miterlimit:10;}
	.st22{fill:none;stroke:#2EA8DF;stroke-width:1.7217;stroke-miterlimit:10;}
	.st23{fill:#FFFFFF;stroke:#2EA8DF;stroke-width:1.7217;stroke-miterlimit:10;}
	.st24{fill:#F3F3F3;}
	.st25{fill:#487013;}
	.st26{fill:#F1F1F1;}
	.st27{fill:#333333;}
	.st28{fill-rule:evenodd;clip-rule:evenodd;fill:#FFFFFF;}
	.st29{fill:none;stroke:#80B941;stroke-width:3;stroke-miterlimit:10;}
	.st30{fill:#666666;}
	.st31{fill-rule:evenodd;clip-rule:evenodd;fill:#909090;}
	.st32{fill:#909090;}
	.st33{fill-rule:evenodd;clip-rule:evenodd;fill:#C3C3C3;}
	.st34{display:none;}
	.st35{display:inline;}
	.st36{fill:none;stroke:#C3C3C3;stroke-width:3.2359;stroke-miterlimit:10;}
	.st37{fill:none;stroke:#C3C3C3;stroke-width:4;stroke-miterlimit:10;}
	.st38{fill-rule:evenodd;clip-rule:evenodd;fill:#80B941;}
	.st39{fill-rule:evenodd;clip-rule:evenodd;fill:none;stroke:#E0E0E0;stroke-width:0.7966;stroke-miterlimit:10;}
	.st40{fill:#CECECE;}
	.st41{fill:#828282;}
	.st42{fill:#24A8EA;}
	.st43{opacity:0.7;}
	.st44{opacity:0.8;}
	.st45{display:inline;fill:#FFFFFF;}
	.st46{fill:#E6ED4F;}
	.st47{fill:#FFFFFF;stroke:#80B941;stroke-width:10;stroke-linejoin:bevel;stroke-miterlimit:10;}
	.st48{fill:none;stroke:#80B941;stroke-width:6;stroke-miterlimit:10;}
	.st49{fill:#FFFFFF;stroke:#80B941;stroke-width:6;stroke-miterlimit:10;}
	.st50{opacity:0.6;fill:#FFFFFF;}
</style>
<g id="Layer_1">
</g>
<g id="Layer_2">
</g>
<g id="Layer_3">
	<path class="st11" d="M20.9,4.6c8.1,0,14.6,6.6,14.6,14.6c0,5.5-3.2,10.6-8,13l-2.6-6.9c2-1.3,3.3-3.6,3.3-6.1c0-4-3.3-7.3-7.3-7.3
		s-7.3,3.3-7.3,7.3c0,2.5,1.3,4.8,3.3,6.1l-2.6,6.9c-4.9-2.5-8-7.5-8-13C6.2,11.2,12.8,4.6,20.9,4.6 M20.9,3
		c-9,0-16.2,7.3-16.2,16.2c0,7,4.4,12.9,10.6,15.2l3.7-9.8c-2.2-0.8-3.7-2.9-3.7-5.4c0-3.2,2.6-5.7,5.7-5.7s5.7,2.6,5.7,5.7
		c0,2.5-1.6,4.6-3.7,5.4l3.7,9.8c6.2-2.3,10.6-8.2,10.6-15.2C37.1,10.3,29.8,3,20.9,3L20.9,3z"/>
</g>
<g id="Layer_4">
</g>
</svg>
