<?xml version="1.0" encoding="UTF-8" standalone="no"?>
<!-- Generator: Adobe Illustrator 18.0.0, SVG Export Plug-In . SVG Version: 6.00 Build 0)  -->

<svg
   xmlns:dc="http://purl.org/dc/elements/1.1/"
   xmlns:cc="http://creativecommons.org/ns#"
   xmlns:rdf="http://www.w3.org/1999/02/22-rdf-syntax-ns#"
   xmlns:svg="http://www.w3.org/2000/svg"
   xmlns="http://www.w3.org/2000/svg"
   xmlns:sodipodi="http://sodipodi.sourceforge.net/DTD/sodipodi-0.dtd"
   xmlns:inkscape="http://www.inkscape.org/namespaces/inkscape"
   version="1.1"
   x="0px"
   y="0px"
   width="81.301636"
   height="68.338318"
   viewBox="0 0 81.301636 68.33832"
   enable-background="new 0 0 93 95.7"
   xml:space="preserve"
   id="svg13"
   sodipodi:docname="backoffice_icon-comments.svg"
   inkscape:version="0.92.1 r15371"><metadata
     id="metadata19"><rdf:RDF><cc:Work
         rdf:about=""><dc:format>image/svg+xml</dc:format><dc:type
           rdf:resource="http://purl.org/dc/dcmitype/StillImage" /></cc:Work></rdf:RDF></metadata><defs
     id="defs17" /><sodipodi:namedview
     pagecolor="#ffffff"
     bordercolor="#666666"
     borderopacity="1"
     objecttolerance="10"
     gridtolerance="10"
     guidetolerance="10"
     inkscape:pageopacity="0"
     inkscape:pageshadow="2"
     inkscape:window-width="1015"
     inkscape:window-height="619"
     id="namedview15"
     showgrid="false"
     inkscape:zoom="2.4660398"
     inkscape:cx="40.7"
     inkscape:cy="34.188322"
     inkscape:window-x="471"
     inkscape:window-y="56"
     inkscape:window-maximized="0"
     inkscape:current-layer="svg13" /><g
     id="Camada_1"
     transform="translate(-5.8,-13.7)"><g
       id="g6"><path
         d="M 77.3,13.7 H 39 c -5.4,0 -9.9,4.5 -9.9,9.9 v 4 H 54 c 7.7,0 14,6.3 14,14 v 18.6 0 c 0.8,0.9 1.5,1.7 3,2.4 2.1,1 4.3,1.5 6.5,1.4 l 5.7,-0.5 -5.1,-2.6 c -1.4,-0.7 -2.5,-2.2 -2.9,-3.8 h 2 c 5.4,0 9.9,-4.5 9.9,-9.9 V 23.6 c 0.1,-5.5 -4.4,-9.9 -9.8,-9.9 z"
         id="path2"
         inkscape:connector-curvature="0"
         style="fill:#dddddd" /><path
         d="M 54,31.7 H 15.7 c -5.4,0 -9.9,4.5 -9.9,9.9 v 23.6 c 0,5.4 4.5,9.9 9.9,9.9 h 2 c -0.4,1.6 -1.5,3.1 -2.9,3.8 l -5.1,2.6 5.7,0.5 c 2.1,0.2 4.3,-0.4 6.5,-1.4 1.6,-0.7 2.2,-1.5 3,-2.4 h 26.5 c 5.4,0 12.5,-7.6 12.5,-13 V 41.6 c 0,-5.4 -4.4,-9.9 -9.9,-9.9 z"
         id="path4"
         inkscape:connector-curvature="0"
         style="fill:#ddaf2f" /></g></g><g
     id="Camada_2"
     transform="translate(-5.8,-13.7)" /><g
     id="Camada_3"
     transform="translate(-5.8,-13.7)" /><g
     id="Camada_4"
     transform="translate(-5.8,-13.7)" /><g
     id="Camada_5"
     transform="translate(-5.8,-13.7)" /></svg>