<?xml version="1.0" encoding="UTF-8" standalone="no"?>
<!-- Generator: Adobe Illustrator 18.0.0, SVG Export Plug-In . SVG Version: 6.00 Build 0)  -->

<svg
   xmlns:dc="http://purl.org/dc/elements/1.1/"
   xmlns:cc="http://creativecommons.org/ns#"
   xmlns:rdf="http://www.w3.org/1999/02/22-rdf-syntax-ns#"
   xmlns:svg="http://www.w3.org/2000/svg"
   xmlns="http://www.w3.org/2000/svg"
   xmlns:sodipodi="http://sodipodi.sourceforge.net/DTD/sodipodi-0.dtd"
   xmlns:inkscape="http://www.inkscape.org/namespaces/inkscape"
   version="1.1"
   x="0px"
   y="0px"
   width="54.025906"
   height="78.167938"
   viewBox="0 0 54.025906 78.167941"
   enable-background="new 0 0 93 95.7"
   xml:space="preserve"
   id="svg9"
   sodipodi:docname="backoffice_icon-ideas.svg"
   inkscape:version="0.92.1 r15371"><metadata
     id="metadata15"><rdf:RDF><cc:Work
         rdf:about=""><dc:format>image/svg+xml</dc:format><dc:type
           rdf:resource="http://purl.org/dc/dcmitype/StillImage" /></cc:Work></rdf:RDF></metadata><defs
     id="defs13" /><sodipodi:namedview
     pagecolor="#ffffff"
     bordercolor="#666666"
     borderopacity="1"
     objecttolerance="10"
     gridtolerance="10"
     guidetolerance="10"
     inkscape:pageopacity="0"
     inkscape:pageshadow="2"
     inkscape:window-width="716"
     inkscape:window-height="480"
     id="namedview11"
     showgrid="false"
     inkscape:zoom="2.4660398"
     inkscape:cx="27.025904"
     inkscape:cy="39.150002"
     inkscape:window-x="792"
     inkscape:window-y="154"
     inkscape:window-maximized="0"
     inkscape:current-layer="svg9" /><g
     id="Camada_1"
     transform="translate(-19.474096,-8.8320645)"><path
       d="M 55.4,69.8 H 37.5 c -1,0 -1.9,-0.9 -1.9,-1.9 v -0.7 c 0,-1 0.9,-1.9 1.9,-1.9 h 17.9 c 1,0 1.9,0.9 1.9,1.9 v 0.7 c 0,1.1 -0.8,1.9 -1.9,1.9 z m 1.9,3.8 v -0.7 c 0,-1 -0.9,-1.9 -1.9,-1.9 H 37.5 c -1,0 -1.9,0.9 -1.9,1.9 v 0.7 c 0,1 0.9,1.9 1.9,1.9 h 17.9 c 1.1,0 1.9,-0.9 1.9,-1.9 z m 0,5.7 v -0.7 c 0,-1 -0.9,-1.9 -1.9,-1.9 H 37.5 c -1,0 -1.9,0.9 -1.9,1.9 v 0.7 c 0,1 0.9,1.9 1.9,1.9 h 17.9 c 1.1,0 1.9,-0.9 1.9,-1.9 z M 37.4,64.1 h 18.2 c 1.7,0 3.2,-1 4,-2.5 1,-1.9 2.3,-3.6 4,-5 6,-5 9.9,-12.4 9.9,-20.8 C 73.5,20.2 60.4,7.8 44.6,8.9 31.3,9.7 20.8,20 19.6,33.2 c -0.9,9.3 3.1,17.8 9.6,23.2 1.8,1.5 3.2,3.3 4.3,5.3 0.7,1.5 2.2,2.4 3.9,2.4 z M 63.5,37.6 c -0.7,0 -1.3,-0.6 -1.4,-1.2 -0.8,-5.9 -6.6,-12.6 -9.9,-13.9 -0.7,-0.3 -1.1,-1.2 -0.8,-1.9 0.3,-0.7 1.2,-1.1 1.9,-0.8 4,1.7 10.7,8.9 11.7,16.2 0.1,0.8 -0.4,1.5 -1.2,1.6 -0.2,0 -0.3,0 -0.3,0 z M 38.7,82.4 c -0.3,0 -0.4,0.3 -0.3,0.6 1.8,2.4 4.7,4 8,4 3.3,0 6.2,-1.5 8,-4 0.2,-0.2 0,-0.6 -0.3,-0.6 z"
       id="path2"
       inkscape:connector-curvature="0"
       style="fill:#2ea7de" /></g><g
     id="Camada_2"
     transform="translate(-19.474096,-8.8320645)" /><g
     id="Camada_3"
     transform="translate(-19.474096,-8.8320645)" /><g
     id="Camada_4"
     transform="translate(-19.474096,-8.8320645)" /><g
     id="Camada_5"
     transform="translate(-19.474096,-8.8320645)" /></svg>