<?xml version="1.0" encoding="UTF-8" standalone="no"?>
<!-- Generator: Adobe Illustrator 18.0.0, SVG Export Plug-In . SVG Version: 6.00 Build 0)  -->

<svg
   xmlns:dc="http://purl.org/dc/elements/1.1/"
   xmlns:cc="http://creativecommons.org/ns#"
   xmlns:rdf="http://www.w3.org/1999/02/22-rdf-syntax-ns#"
   xmlns:svg="http://www.w3.org/2000/svg"
   xmlns="http://www.w3.org/2000/svg"
   xmlns:sodipodi="http://sodipodi.sourceforge.net/DTD/sodipodi-0.dtd"
   xmlns:inkscape="http://www.inkscape.org/namespaces/inkscape"
   version="1.1"
   x="0px"
   y="0px"
   width="63.299999"
   height="88.800003"
   viewBox="0 0 63.299999 88.800006"
   enable-background="new 0 0 93 95.7"
   xml:space="preserve"
   id="svg23"
   sodipodi:docname="backoffice_icon-registered.svg"
   inkscape:version="0.92.1 r15371"><metadata
     id="metadata29"><rdf:RDF><cc:Work
         rdf:about=""><dc:format>image/svg+xml</dc:format><dc:type
           rdf:resource="http://purl.org/dc/dcmitype/StillImage" /></cc:Work></rdf:RDF></metadata><defs
     id="defs27" /><sodipodi:namedview
     pagecolor="#ffffff"
     bordercolor="#666666"
     borderopacity="1"
     objecttolerance="10"
     gridtolerance="10"
     guidetolerance="10"
     inkscape:pageopacity="0"
     inkscape:pageshadow="2"
     inkscape:window-width="716"
     inkscape:window-height="480"
     id="namedview25"
     showgrid="false"
     inkscape:zoom="2.4660398"
     inkscape:cx="31.6"
     inkscape:cy="44.350004"
     inkscape:window-x="868"
     inkscape:window-y="115"
     inkscape:window-maximized="0"
     inkscape:current-layer="svg23" /><g
     id="Camada_1"
     transform="translate(-14.9,-3.3999996)"><g
       id="g16"><g
         id="g6"><path
           d="M 54.6,34.4 H 52 C 48.9,36.7 45.1,38 41,38 36.9,38 33.1,36.7 29.9,34.4 h -2.5 c -2,0 -12.5,5.3 -12.5,7.6 v 40.4 c 0,2.2 1.8,4.1 4.1,4.1 h 4 c 0.2,0 0.3,0 0.5,0 0.4,1.8 2,3.1 3.9,3.1 h 27.2 c 1.9,0 3.5,-1.3 3.9,-3.1 0.2,0 0.3,0 0.5,0 h 4 c 2.2,0 4.1,-1.8 4.1,-4.1 V 42 c 0,-2.3 -10.5,-7.6 -12.5,-7.6 z"
           id="path2"
           inkscape:connector-curvature="0"
           style="fill:#dddddd" /><circle
           cx="41"
           cy="19"
           r="15.6"
           id="circle4"
           style="fill:#dddddd" /></g><g
         id="g14"><circle
           cx="54.299999"
           cy="68.300003"
           r="23.9"
           id="circle8"
           style="fill:#2ea7de" /><path
           d="m 55.7,63.9 v -0.7 c -0.1,-2.3 0.8,-4.5 2.6,-6 1.4,-1.2 3.1,-1.8 4.9,-1.8 2.2,0 4.3,1 5.7,2.6 1.3,1.5 1.9,3.5 1.8,5.4 -0.2,2 -1.1,3.8 -2.6,5.1 -1.3,1.2 -3.1,1.8 -4.8,1.8 -1.8,0 -2.8,-0.2 -4.2,-1.4 l -0.5,-0.4 -2.1,1.8 v 2.4 0.2 0.1 c 0,0 -0.1,0 -0.1,0 l -4,-1.4 0.7,4.2 c 0,0 -0.1,0 -0.1,0 l -4,-1.4 0.7,4.2 c 0,0 0,0 -0.1,0 l -2.8,-1 -1.2,-0.4 0.7,4.2 c 0,0 -0.1,0 -0.1,0 v 0 0 c -0.1,0 -5,-2.1 -7.2,-3.1 z"
           id="path10"
           inkscape:connector-curvature="0"
           style="fill:#ffffff" /><circle
           cx="65"
           cy="61.099998"
           r="1.9"
           id="circle12"
           style="fill:#2ea7de" /></g></g></g><g
     id="Camada_2"
     transform="translate(-14.9,-3.3999996)" /><g
     id="Camada_3"
     transform="translate(-14.9,-3.3999996)" /><g
     id="Camada_4"
     transform="translate(-14.9,-3.3999996)" /><g
     id="Camada_5"
     transform="translate(-14.9,-3.3999996)" /></svg>